<svg xmlns="http://www.w3.org/2000/svg" xmlns:xlink="http://www.w3.org/1999/xlink" version="1.1" x="0px" y="0px" viewBox="0 0 100 100" enable-background="new 0 0 100 100" xml:space="preserve"><path d="M71.654,59.575l-9.119-2.2c-1.555-0.375-4.162-1.33-4.162-3.522v-3.651c1.662-1.424,3.014-3.394,4.021-5.862  c0.523-1.283,0.979-2.637,1.355-4.032c1.238-0.613,2.047-1.982,2.047-3.527c0-0.96-0.322-1.886-0.893-2.593  c0.016-0.119,0.029-0.22,0.043-0.321c2.076-6.884,0.441-15.331-8.951-15.499l-0.342-0.25c-6.239-4.492-14.742-1.875-18.609,4.132  c-0.589,0.79-0.976,1.618-1.241,2.473c-0.858,2.285-1.104,4.893-0.462,7.693l0.138,0.349c-0.015,0.25-0.069,0.605-0.186,1.266  c-0.655,0.724-1.027,1.712-1.027,2.75c0,1.615,0.891,3.037,2.21,3.603c0.319,1.233,0.687,2.513,1.116,3.899  c0.772,2.487,2.164,4.58,4.034,6.075v3.594c0,2.191-2.607,3.147-4.161,3.521l-9.119,2.201c-3.967,0.957-6.633,4.068-6.633,7.742  v13.451l0.546,0.129c8.845,2.09,18.178,3.15,27.74,3.15c9.562,0,18.896-1.061,27.74-3.15l0.545-0.129v-13.55  C78.285,63.643,75.621,60.531,71.654,59.575z M49.965,53.795c2.613,0,4.888-1.091,6.99-2.544v2.602c0,0.505,0.104,0.976,0.273,1.422  l-5.092,2.348h-4.061l-5.248-2.42c0.131-0.396,0.218-0.81,0.218-1.251V51.39C45.613,53.111,47.894,53.795,49.965,53.795z   M49.728,79.807l-2.678-2.678l1.831-14.063h2.195l1.83,14.063l-2.678,2.678H49.728z M58.633,57.303l-2.301,5.498l-3.346-1.632  v-2.378l4.852-2.236L58.633,57.303z M51.568,59.039v2.313l-0.217,0.219H48.38l-0.218-0.219v-2.313H51.568z M46.745,61.457  l-2.808,1.369l-2.303-5.498l0.797-0.748l4.313,1.988V61.457z M65.314,70.598V67.66h1.541v2.938H65.314z M64.605,69.588h-3.773v2.098  h10.506v-2.098h-3.773v-0.686h4.426v7.307H60.182v-7.307h4.424V69.588z M38.947,43.861c-0.465-1.5-0.854-2.872-1.19-4.193  l-0.101-0.397l-0.395-0.111c-0.914-0.255-1.576-1.256-1.576-2.38c0-0.741,0.277-1.435,0.763-1.904l0.164-0.159l0.04-0.226  c0.089-0.498,0.148-0.859,0.189-1.153c2.974-5.029,13.411-2.635,17.186-9.754c7.469,3.688,8.189,11.462,9.207,14.249  c0.363-0.619,0.693-1.28,0.986-1.968c0.1,0.289,0.158,0.597,0.158,0.916c0,1.075-0.602,2.039-1.461,2.344l-0.355,0.126l-0.094,0.364  c-0.379,1.453-0.844,2.862-1.387,4.19c-0.959,2.352-2.246,4.191-3.822,5.475c-4.535,3.478-8.553,4.708-14.474,0.182l-0.024-0.018  C40.988,48.115,39.669,46.186,38.947,43.861z"></path></svg>