<svg xmlns="http://www.w3.org/2000/svg" xmlns:xlink="http://www.w3.org/1999/xlink" version="1.1" x="0px" y="0px" viewBox="0 0 48 48" enable-background="new 0 0 48 48" xml:space="preserve"><g><path d="M4,0v48h40V0H4z M12,1c0.553,0,1,0.447,1,1s-0.447,1-1,1s-1-0.447-1-1S11.447,1,12,1z M9,1c0.553,0,1,0.447,1,1   S9.553,3,9,3S8,2.553,8,2S8.447,1,9,1z M6,1c0.553,0,1,0.447,1,1S6.553,3,6,3S5,2.553,5,2S5.447,1,6,1z M43,47H5V4h38V47z"></path><rect x="9" y="16" width="8" height="2"></rect><rect x="20" y="16" width="8" height="2"></rect><rect x="31" y="16" width="8" height="2"></rect><rect x="9" y="29" width="8" height="2"></rect><rect x="20" y="29" width="8" height="2"></rect><rect x="31" y="29" width="8" height="2"></rect><rect x="9" y="42" width="8" height="2"></rect><rect x="20" y="42" width="8" height="2"></rect><rect x="31" y="42" width="8" height="2"></rect><path d="M11,15h4c0.55,0,1-0.45,1-1V9.5c0-0.275-0.159-0.659-0.354-0.854l-1.293-1.293C14.159,7.159,13.775,7,13.5,7H11   c-0.55,0-1,0.45-1,1v6C10,14.55,10.45,15,11,15z M14,8l1,1h-1V8z M11,8h2v1c0,0.552,0.449,1,1,1h1v4h-4V8z"></path><path d="M22,15h4c0.55,0,1-0.45,1-1V9.5c0-0.275-0.159-0.659-0.354-0.854l-1.293-1.293C25.159,7.159,24.775,7,24.5,7H22   c-0.55,0-1,0.45-1,1v6C21,14.55,21.45,15,22,15z M25,8l1,1h-1V8z M22,8h2v1c0,0.552,0.449,1,1,1h1v4h-4V8z"></path><path d="M33,15h4c0.55,0,1-0.45,1-1V9.5c0-0.275-0.159-0.659-0.354-0.854l-1.293-1.293C36.159,7.159,35.775,7,35.5,7H33   c-0.55,0-1,0.45-1,1v6C32,14.55,32.45,15,33,15z M36,8l1,1h-1V8z M33,8h2v1c0,0.552,0.449,1,1,1h1v4h-4V8z"></path><path d="M13.5,20H11c-0.55,0-1,0.45-1,1v6c0,0.55,0.45,1,1,1h4c0.55,0,1-0.45,1-1v-4.5c0-0.275-0.159-0.659-0.354-0.854   l-1.293-1.293C14.159,20.159,13.775,20,13.5,20z M15,27h-4v-6h2v1c0,0.552,0.449,1,1,1h1V27z M14,22v-1l1,1H14z"></path><path d="M24.5,20H22c-0.55,0-1,0.45-1,1v6c0,0.55,0.45,1,1,1h4c0.55,0,1-0.45,1-1v-4.5c0-0.275-0.159-0.659-0.354-0.854   l-1.293-1.293C25.159,20.159,24.775,20,24.5,20z M26,27h-4v-6h2v1c0,0.552,0.449,1,1,1h1V27z M25,22v-1l1,1H25z"></path><path d="M35.5,20H33c-0.55,0-1,0.45-1,1v6c0,0.55,0.45,1,1,1h4c0.55,0,1-0.45,1-1v-4.5c0-0.275-0.159-0.659-0.354-0.854   l-1.293-1.293C36.159,20.159,35.775,20,35.5,20z M37,27h-4v-6h2v1c0,0.552,0.449,1,1,1h1V27z M36,22v-1l1,1H36z"></path><path d="M13.5,33H11c-0.55,0-1,0.45-1,1v6c0,0.55,0.45,1,1,1h4c0.55,0,1-0.45,1-1v-4.5c0-0.275-0.159-0.659-0.354-0.854   l-1.293-1.293C14.159,33.159,13.775,33,13.5,33z M15,40h-4v-6h2v1c0,0.552,0.449,1,1,1h1V40z M14,35v-1l1,1H14z"></path><path d="M24.5,33H22c-0.55,0-1,0.45-1,1v6c0,0.55,0.45,1,1,1h4c0.55,0,1-0.45,1-1v-4.5c0-0.275-0.159-0.659-0.354-0.854   l-1.293-1.293C25.159,33.159,24.775,33,24.5,33z M26,40h-4v-6h2v1c0,0.552,0.449,1,1,1h1V40z M25,35v-1l1,1H25z"></path><path d="M35.5,33H33c-0.55,0-1,0.45-1,1v6c0,0.55,0.45,1,1,1h4c0.55,0,1-0.45,1-1v-4.5c0-0.275-0.159-0.659-0.354-0.854   l-1.293-1.293C36.159,33.159,35.775,33,35.5,33z M37,40h-4v-6h2v1c0,0.552,0.449,1,1,1h1V40z M36,35v-1l1,1H36z"></path></g></svg>