<svg xmlns="http://www.w3.org/2000/svg" data-name="Layer 1" viewBox="0 0 100 100" x="0px" y="0px"><title>Artboard 2</title><path d="M71.46,46.56V38.94A11.85,11.85,0,0,0,59.62,27.1H51.39L55.27,31l-3.56,3.56-6.4-6.4-3.56-3.56L45.31,21l6.4-6.4,3.56,3.56-3.88,3.88h8.24A16.89,16.89,0,0,1,76.5,38.94v7.62ZM58.26,75.43,54.7,71.87l-6.4-6.4L44.74,69l3.88,3.88H40.39A11.85,11.85,0,0,1,28.55,61.08V53.46h-5v7.62A16.89,16.89,0,0,0,40.39,77.95h8.24l-3.88,3.88,3.56,3.56L54.7,79ZM80.57,57.18A6.1,6.1,0,0,0,78.18,55a8.06,8.06,0,0,0-4.91-1,7.13,7.13,0,0,0-2,.37h0a8.61,8.61,0,0,0-2.15,1.1A11.51,11.51,0,0,0,67,57.22a8.92,8.92,0,0,0-2.39,4.2,9.11,9.11,0,0,0,0,4.1h0a8.17,8.17,0,0,0,.34,1.28c-.79-.07-1.73.39-.85,3.5.64,2.27,1.24,2.91,1.7,2.95A9.53,9.53,0,0,0,67,76.49v4.05a.38.38,0,0,1-.21.34A67.64,67.64,0,0,0,54.5,88.74a4.14,4.14,0,0,0-1.5,3.2v5.88H94.77V91.94a4.14,4.14,0,0,0-1.5-3.2A67.64,67.64,0,0,0,81,80.89a.38.38,0,0,1-.21-.34V76.45A9.34,9.34,0,0,0,82,73.24c.45,0,1.05-.67,1.7-2.95.88-3.11-.05-3.57-.85-3.5a8.19,8.19,0,0,0,.34-1.28C84.54,57.46,80.57,57.18,80.57,57.18ZM47,40.26a4.14,4.14,0,0,0-1.5-3.2A67.6,67.6,0,0,0,34.27,29.7l-3,16.45H47Zm-21.56-8-2.35,3,1.58,2.54-1.23,8.36H28.8l-1.23-8.36,1.58-2.54-2.35-3,6.27-4.56V24.76a9.34,9.34,0,0,0,1.19-3.21c.45,0,1.05-.67,1.7-3,.88-3.11-.05-3.57-.85-3.5a8.2,8.2,0,0,0,.34-1.28c1.34-8.06-2.63-8.35-2.63-8.35a6.1,6.1,0,0,0-2.39-2.22,8.06,8.06,0,0,0-4.91-1,7.13,7.13,0,0,0-2,.37h0a8.62,8.62,0,0,0-2.15,1.1,11.52,11.52,0,0,0-2.21,1.83,8.92,8.92,0,0,0-2.39,4.2,9.12,9.12,0,0,0,0,4.1h0a8.17,8.17,0,0,0,.34,1.28c-.79-.07-1.73.39-.85,3.5.64,2.28,1.24,2.91,1.7,3a9.54,9.54,0,0,0,1.19,3.25v2.9ZM18,29.7A67.59,67.59,0,0,0,6.73,37.06a4.14,4.14,0,0,0-1.5,3.2v5.89H21Z"></path></svg>