<svg fill="#002451" xmlns="http://www.w3.org/2000/svg" xmlns:xlink="http://www.w3.org/1999/xlink" version="1.1" x="0px" y="0px" viewBox="0 0 64 64" enable-background="new 0 0 64 64" xml:space="preserve"><g><g><circle cx="16.011" cy="7.667" r="5.334"></circle><path d="M29.642,25.313l-4.825-7.954c0,0-1.456-1.483-5.478-2.301l-2.384,5.793l-0.395-3.338l0.88-1.329    c0.17-0.293,0.128-0.669-0.122-0.922c-0.148-0.149-0.357-0.222-0.567-0.222h-1.648c-0.21,0-0.419,0.073-0.567,0.222    c-0.251,0.253-0.291,0.629-0.123,0.922l0.88,1.329l-0.395,3.342l-2.342-5.697c-3.663,0.855-5.282,2.156-5.282,2.156L2.24,25.138    c-0.421,0.654-0.426,1.491-0.014,2.151l5.033,8.054c0.371,0.594,1.001,0.924,1.652,0.941v23.033c0,1.298,1.052,2.35,2.35,2.35    h0.33c1.222,0,2.24-0.936,2.342-2.153l1.244-17.402c0.064-0.386,0.386-0.707,0.771-0.707c0.386,0,0.771,0.321,0.771,0.707    l1.514,17.443c0.122,1.199,1.132,2.112,2.338,2.112h0c1.298,0,2.35-1.052,2.35-2.35v-23.05c0.564-0.067,1.097-0.373,1.436-0.885    l5.242-7.919C30.027,26.815,30.045,25.976,29.642,25.313z M8.91,30.406L6.306,26.24l2.604-4.047V30.406z M22.92,30.276v-4.359    c0-0.061,0.008-0.12,0.024-0.178v-3.724l2.603,4.293L22.92,30.276z"></path></g><path d="M46.216,53.275c0-0.936-0.759-1.696-1.696-1.696h-3.395V33.695h3.395c0.936,0,1.696-0.758,1.696-1.695   c0-0.938-0.759-1.696-1.696-1.696h-3.395V12.421h3.395c0.936,0,1.696-0.759,1.696-1.696c0-0.937-0.759-1.696-1.696-1.696h-5.09   c-0.937,0-1.696,0.76-1.696,1.696v19.579h-4.685c-0.937,0-1.696,0.759-1.696,1.696c0,0.936,0.76,1.696,1.696,1.696h4.685v19.578   c0,0.938,0.759,1.696,1.696,1.696h5.09C45.457,54.971,46.216,54.212,46.216,53.275L46.216,53.275z M46.216,53.275"></path><g><g><circle cx="56.2" cy="5.802" r="3.468"></circle><path d="M60.398,19.481h-8.396c-0.971,0-1.74-0.82-1.678-1.789l0.201-4.403c0.123-1.91,1.707-3.396,3.621-3.396h4.108     c1.914,0,3.499,1.486,3.621,3.396l0.201,4.403C62.138,18.661,61.369,19.481,60.398,19.481z"></path></g><g><circle cx="56.2" cy="26.895" r="3.468"></circle><path d="M60.398,40.574h-8.396c-0.971,0-1.74-0.82-1.678-1.789l0.201-4.403c0.123-1.91,1.707-3.396,3.621-3.396h4.108     c1.914,0,3.499,1.486,3.621,3.396l0.201,4.403C62.138,39.754,61.369,40.574,60.398,40.574z"></path></g><g><circle cx="56.2" cy="47.988" r="3.468"></circle><path d="M60.398,61.667h-8.396c-0.971,0-1.74-0.82-1.678-1.789l0.201-4.403c0.123-1.91,1.707-3.396,3.621-3.396h4.108     c1.914,0,3.499,1.486,3.621,3.396l0.201,4.403C62.138,60.846,61.369,61.667,60.398,61.667z"></path></g></g></g></svg>