<svg xmlns="http://www.w3.org/2000/svg" viewBox="0 0 100 100" x="0px" y="0px"><path d="m 79.777344 41.556641 l 0 .532452 l -.38476 -.396485 z"></path><path d="m 78.712894 41.934819 l 1.06445 1.09375 l 0 .472656 l -1.40625 -1.443359 z"></path><path d="m 77.683594 42.305913 l 2.09375 2.148437 l 0 .460938 l -2.42578 -2.490235 z"></path><path d="m 76.662114 42.671147 l 3.11523 3.197266 l 0 .480468 l -3.46093 -3.552734 z"></path><path d="m 75.634774 43.040288 l 4.14257 4.251953 l 0 .480469 l -4.48828 -4.609375 z"></path><path d="m 74.607424 43.409428 l 5.16992 5.308594 l 0 .486328 l -5.52343 -5.669922 z"></path><path d="m 73.585944 43.774663 l 6.1914 6.355468 l 0 .486329 l -6.53906 -6.716797 z"></path><path d="m 72.558592 44.143803 l 7.218752 7.41211 l 0 .472656 l -7.560542 -7.761719 z"></path><path d="m 71.529302 44.512944 l 8.248042 8.46875 l 0 .462891 l -8.580072 -8.8125 z"></path><path d="m 70.507812 44.880131 l 9.269532 9.519532 l 0 .464844 l -9.607422 -9.863282 z"></path><path d="m 69.488282 45.245366 l 10.289062 10.5625 l 0 .482422 l -10.634762 -10.921875 z"></path><path d="m 68.460942 45.614507 l 11.316402 11.621093 l 0 .484375 l -11.669922 -11.980468 z"></path><path d="m 67.439452 45.979741 l 12.337892 12.667969 l 0 .486328 l -12.685542 -13.029297 z"></path><path d="m 66.412112 46.348881 l 13.365232 13.722657 l 0 .472656 l -13.707032 -14.072266 z"></path><path d="M 65.382812 46.71875 L 65.050781 46.837891 L 72.365234 54.351562 L 71.667969 54.601562 L 64.351562 47.087891 L 64.015625 47.208984 L 71.332031 54.722656 L 70.652344 54.966797 L 63.333984 47.453125 L 62.988281 47.578125 L 70.304688 55.089844 L 69.623047 55.335938 L 62.306641 47.822266 L 61.955078 47.949219 L 69.271484 55.460938 L 68.605469 55.701172 L 61.287109 48.1875 L 60.935547 48.314453 L 68.251953 55.828125 L 67.574219 56.070312 L 60.257812 48.556641 L 59.916016 48.679688 L 67.234375 56.193359 L 66.544922 56.439453 L 59.228516 48.927734 L 58.896484 49.046875 L 66.210938 56.558594 L 65.521484 56.806641 L 58.205078 49.292969 L 57.871094 49.414062 L 65.1875 56.927734 L 64.505859 57.171875 L 57.1875 49.658203 L 56.841797 49.783203 L 64.158203 57.296875 L 63.476562 57.541016 L 56.160156 50.027344 L 55.808594 50.154297 L 63.126953 57.666016 L 62.457031 57.90625 L 55.138672 50.394531 L 54.789062 50.519531 L 62.105469 58.033203 L 61.427734 58.275391 L 54.111328 50.761719 L 53.771484 50.884766 L 61.089844 58.398438 L 60.398438 58.644531 L 53.082031 51.132812 L 52.748047 51.251953 L 60.064453 58.765625 L 59.378906 59.011719 L 52.060547 51.498047 L 51.714844 51.623047 L 59.03125 59.136719 L 58.351562 59.378906 L 51.070312 51.904297 L 51.070312 52.388672 L 58.001953 59.505859 L 57.652344 59.630859 L 57.652344 60.089844 L 51.070312 53.330078 L 51.070312 53.814453 L 57.652344 60.572266 L 57.652344 61.5 L 51.070312 54.742188 L 51.070312 55.228516 L 57.652344 61.986328 L 57.652344 62.279297 L 57.863281 62.203125 L 60.28125 64.6875 L 59.822266 64.851562 L 59.822266 65.154297 L 51.070312 56.167969 L 51.070312 56.638672 L 59.822266 65.623047 L 59.822266 66.580078 L 51.070312 57.59375 L 51.070312 58.058594 L 59.822266 67.046875 L 59.822266 67.5 L 60.148438 67.382812 L 77.726562 85.435547 L 78.068359 85.3125 L 60.486328 67.261719 L 61.175781 67.013672 L 78.757812 85.064453 L 79.095703 84.943359 L 61.515625 66.892578 L 62.193359 66.648438 L 79.773438 84.699219 L 79.777344 84.214844 L 62.544922 66.523438 L 63.214844 66.283203 L 79.777344 83.285156 L 79.777344 82.8125 L 63.560547 66.158203 L 64.242188 65.914062 L 79.777344 81.865234 L 79.777344 81.373047 L 64.595703 65.787109 L 65.273438 65.544922 L 79.777344 80.435547 L 79.777344 79.957031 L 65.619141 65.419922 L 66.304688 65.173828 L 79.777344 79.009766 L 79.777344 78.541016 L 66.640625 65.054688 L 67.332031 64.806641 L 79.777344 77.583984 L 79.777344 77.119141 L 67.669922 64.685547 L 68.345703 64.441406 L 79.777344 76.181641 L 79.777344 75.689453 L 68.699219 64.316406 L 69.369141 64.076172 L 79.777344 74.761719 L 79.777344 74.28125 L 69.716797 63.951172 L 70.400391 63.705078 L 79.777344 73.335938 L 79.777344 72.847656 L 70.75 63.580078 L 71.027344 63.480469 L 71.027344 62.923828 L 79.777344 71.908203 L 79.777344 71.447266 L 71.027344 62.460938 L 71.027344 61.503906 L 79.777344 70.490234 L 79.777344 70.025391 L 71.027344 61.041016 L 71.027344 60.832031 L 70.876953 60.886719 L 68.457031 58.402344 L 69.144531 58.154297 L 79.777344 69.070312 L 79.777344 68.599609 L 69.486328 58.033203 L 70.162109 57.791016 L 79.777344 67.664062 L 79.777344 67.171875 L 70.515625 57.664062 L 71.183594 57.423828 L 79.777344 66.246094 L 79.777344 65.765625 L 71.533203 57.298828 L 72.214844 57.052734 L 79.777344 64.818359 L 79.777344 64.333984 L 72.564453 56.927734 L 73.197266 56.701172 L 73.197266 56.636719 L 79.777344 63.392578 L 79.777344 62.929688 L 73.197266 56.171875 L 73.197266 55.205078 L 79.777344 61.962891 L 79.777344 61.498047 L 73.197266 54.742188 L 73.197266 54.052734 L 72.699219 54.230469 L 65.382812 46.71875 z M 68.123047 58.521484 L 70.542969 61.005859 L 69.851562 61.253906 L 67.433594 58.769531 L 68.123047 58.521484 z M 67.099609 58.888672 L 69.517578 61.373047 L 68.837891 61.617188 L 66.417969 59.134766 L 67.099609 58.888672 z M 66.068359 59.259766 L 68.488281 61.742188 L 67.806641 61.988281 L 65.386719 59.503906 L 66.068359 59.259766 z M 65.037109 59.628906 L 67.457031 62.113281 L 66.787109 62.353516 L 64.367188 59.869141 L 65.037109 59.628906 z M 64.015625 59.996094 L 66.435547 62.478516 L 65.757812 62.722656 L 63.339844 60.238281 L 64.015625 59.996094 z M 63 60.359375 L 65.419922 62.84375 L 64.728516 63.091797 L 62.310547 60.607422 L 63 60.359375 z M 61.974609 60.728516 L 64.394531 63.210938 L 63.708984 63.457031 L 61.289062 60.974609 L 61.974609 60.728516 z M 60.943359 61.097656 L 63.361328 63.582031 L 62.683594 63.826172 L 60.263672 61.341797 L 60.943359 61.097656 z M 59.912109 61.46875 L 62.332031 63.951172 L 61.650391 64.195312 L 59.232422 61.712891 L 59.912109 61.46875 z M 58.884766 61.837891 L 61.304688 64.320312 L 60.632812 64.560547 L 58.214844 62.078125 L 58.884766 61.837891 z"></path><path d="m 51.070312 59.010991 l 25.968752 26.669922 l -.33203 .11914 l -25.636722 -26.324218 z"></path><path d="m 51.070312 60.417241 l 24.962892 25.625 l -.35547 .126953 l -24.607422 -25.269531 z"></path><path d="m 51.070312 61.848881 l 23.921882 24.566407 l -.3418 .123047 L 51.070312 62.32935 Z"></path><path d="M 51.070312 63.257085 L 73.978524 86.778569 L 73.623054 86.905522 L 51.070312 63.745366 Z"></path><path d="m 51.070312 64.682866 l 21.87891 22.464844 l -.33789 .121093 l -21.54102 -22.115234 z"></path><path d="m 51.070312 66.108647 l 20.84961 21.408203 l -.33984 .123047 l -20.50977 -21.064453 z"></path><path d="m 51.070312 67.542241 l 19.8125 20.347656 l -.32812 .117188 l -19.48438 -20.00586 z"></path><path d="m 51.070312 68.942631 l 18.80664 19.306641 l -.35547 .128906 l -18.45117 -18.947265 z"></path><path d="m 51.070312 70.376225 l 17.76758 18.246094 l -.33984 .123047 l -17.42774 -17.890625 z"></path><path d="m 51.070312 71.784428 l 16.75391 17.203125 l -.35547 .126954 l -16.39844 -16.839844 z"></path><path d="m 51.070312 73.212163 l 15.72266 16.144531 l -.33594 .121094 l -15.38672 -15.796875 z"></path><path d="m 51.070312 74.635991 l 14.69531 15.089844 l -.34179 .121093 l -14.35352 -14.742187 z"></path><path d="m 51.070312 76.059819 l 13.66602 14.035156 l -.32813 .117188 l -13.33789 -13.69336 z"></path><path d="m 51.070312 77.458257 l 12.66016 12.996093 l -.35547 .128907 l -12.30469 -12.636719 z"></path><path d="m 51.070312 78.893803 l 11.6211 11.933594 l -.3418 .123047 l -11.2793 -11.580078 z"></path><path d="m 51.070312 80.2981 l 10.60938 10.892578 l -.35938 .128907 l -10.25 -10.527344 z"></path><path d="m 51.070312 81.729741 l 9.57617 9.832031 l -.33593 .121094 l -9.24024 -9.486328 z"></path><path d="m 51.070312 83.149663 l 8.55078 8.779297 l -.34179 .123047 l -8.20899 -8.429688 z"></path><path d="m 51.070312 84.565678 l 7.5293 7.730469 l -.3457 .125 l -7.1836 -7.375 z"></path><path d="m 51.070312 85.983647 l 6.50586 6.679688 l -.35547 .126953 l -6.15039 -6.316407 z"></path><path d="m 51.070312 87.4231 l 5.4668 5.613281 l -.3418 .121094 l -5.125 -5.261718 z"></path><path d="m 51.070312 88.825444 l 4.45508 4.574219 l -.35937 .128906 l -4.09571 -4.207031 z"></path><path d="m 51.070312 90.257085 l 3.42188 3.513672 l -.33594 .11914 l -3.08594 -3.167969 z"></path><path d="m 51.070312 91.67896 l 2.39453 2.458984 l -.34179 .123047 l -2.05274 -2.109375 z"></path><path d="m 51.070312 93.106694 l 1.36524 1.400391 l -.32813 .117187 l -1.03711 -1.064453 z"></path><path d="m 51.431642 94.868413 l -.36142 .123053 l .00005 -.494144 z"></path><path d="m 20.222348 41.556776 l 0 .532452 l .38476 -.396485 z"></path><path d="m 21.286798 41.934954 l -1.06445 1.09375 l 0 .472656 l 1.40625 -1.443359 z"></path><path d="m 22.316098 42.306048 l -2.09375 2.148437 l 0 .460938 l 2.42578 -2.490235 z"></path><path d="m 23.337578 42.671282 l -3.11523 3.197266 l 0 .480468 l 3.46093 -3.552734 z"></path><path d="m 24.364918 43.040423 l -4.14257 4.251953 l 0 .480469 l 4.48828 -4.609375 z"></path><path d="m 25.392268 43.409563 l -5.16992 5.308594 l 0 .486328 l 5.52343 -5.669922 z"></path><path d="m 26.413748 43.774798 l -6.1914 6.355468 l 0 .486329 l 6.53906 -6.716797 z"></path><path d="m 27.4411 44.143938 l -7.218752 7.41211 l 0 .472656 l 7.560542 -7.761719 z"></path><path d="m 28.47039 44.513079 l -8.248042 8.46875 l 0 .462891 l 8.580072 -8.8125 z"></path><path d="m 29.49188 44.880266 l -9.269532 9.519532 l 0 .464844 l 9.607422 -9.863282 z"></path><path d="m 30.51141 45.245501 l -10.289062 10.5625 l 0 .482422 l 10.634762 -10.921875 z"></path><path d="m 31.53875 45.614642 l -11.316402 11.621093 l 0 .484375 l 11.669922 -11.980468 z"></path><path d="m 32.56024 45.979876 l -12.337892 12.667969 l 0 .486328 l 12.685542 -13.029297 z"></path><path d="m 33.58758 46.349016 l -13.365232 13.722657 l 0 .472656 l 13.707032 -14.072266 z"></path><path d="m 34.61688 46.718157 l -14.394532 14.779297 l 0 .464844 l 14.726562 -15.125 z"></path><path d="m 35.64813 47.087298 l -15.425782 15.841797 l 0 .46289 l 15.761722 -16.183593 z"></path><path d="m 36.66571 47.452532 l -16.443362 16.88086 l 0 .484374 l 16.789062 -17.240234 z"></path><path d="m 37.69305 47.821673 l -17.470702 17.943359 l 0 .480469 l 17.822262 -18.296875 z"></path><path d="m 38.71258 48.186907 l -18.490232 18.984375 l 0 .492188 l 18.841792 -19.34961 z"></path><path d="m 39.74188 48.556048 l -19.519532 20.042968 l 0 .470704 l 19.861322 -20.390625 z"></path><path d="m 40.77117 48.927142 l -20.548822 21.097656 l 0 .464844 l 20.880862 -21.44336 z"></path><path d="m 41.79461 49.292376 l -21.572262 22.154297 l 0 .460937 L 42.1286 49.41347 Z"></path><path d="m 42.81219 49.65761 l -22.589842 23.189453 l 0 .488282 L 43.15789 49.78261 Z"></path><path d="m 43.83953 50.026751 l -23.617182 24.253906 l 0 .480469 L 44.1911 50.153704 Z"></path><path d="m 44.86102 50.393938 l -24.638672 25.294922 l 0 .492188 l 24.988282 -25.66211 z"></path><path d="m 45.88836 50.761126 l -25.666012 26.357422 l 0 .464844 l 26.005862 -26.699219 z"></path><path d="m 46.91766 51.13222 l -26.695312 27.408203 l 0 .46875 L 47.25164 51.25136 Z"></path><path d="m 47.93914 51.497454 l -27.716792 28.458984 l 0 .478516 l 28.062502 -28.8125 z"></path><path d="m 48.92938 51.903704 l -28.707032 29.46875 l 0 .492188 l 28.707032 -29.476563 z"></path><path d="m 48.92938 53.329485 l -28.707032 29.482422 l 0 .472656 L 48.92938 53.81386 Z"></path><path d="m 20.222348 84.214251 l .0039 .485375 l 28.703122 -29.471656 l 0 -.486351 z"></path><path d="M 48.92938 56.167376 L 20.903988 84.942766 L 21.241878 85.06386 L 48.92938 56.638079 Z"></path><path d="m 48.92938 57.593157 l -26.998052 27.71875 l .3418 .123047 l 26.656252 -27.376953 z"></path><path d="m 48.92938 59.011126 l -25.968752 26.669922 l .33203 .11914 L 48.92938 59.47597 Z"></path><path d="m 48.92938 60.417376 l -24.962892 25.625 l .35547 .126953 l 24.607422 -25.269531 z"></path><path d="M 48.92938 61.849016 L 25.007498 86.415423 L 25.349298 86.53847 L 48.92938 62.329485 Z"></path><path d="M 48.92938 63.25722 L 26.021168 86.778704 L 26.376638 86.905657 L 48.92938 63.745501 Z"></path><path d="M 48.92938 64.683001 L 27.05047 87.147845 L 27.38836 87.268938 L 48.92938 65.153704 Z"></path><path d="M 48.92938 66.108782 L 28.07977 87.516985 L 28.41961 87.640032 L 48.92938 66.575579 Z"></path><path d="M 48.92938 67.542376 L 29.11688 87.890032 L 29.445 88.00722 L 48.92938 68.00136 Z"></path><path d="M 48.92938 68.942766 L 30.12274 88.249407 L 30.47821 88.378313 L 48.92938 69.431048 Z"></path><path d="M 48.92938 70.37636 L 31.1618 88.622454 L 31.50164 88.745501 L 48.92938 70.854876 Z"></path><path d="M 48.92938 71.784563 L 32.17547 88.987688 L 32.53094 89.114642 L 48.92938 72.274798 Z"></path><path d="M 48.92938 73.212298 L 33.20672 89.356829 L 33.54266 89.477923 L 48.92938 73.681048 Z"></path><path d="M 48.92938 74.636126 L 34.23407 89.72597 L 34.57586 89.847063 L 48.92938 75.104876 Z"></path><path d="M 48.92938 76.059954 L 35.26336 90.09511 L 35.59149 90.212298 L 48.92938 76.518938 Z"></path><path d="M 48.92938 77.458392 L 36.26922 90.454485 L 36.62469 90.583392 L 48.92938 77.946673 Z"></path><path d="m 48.92938 78.893938 l -11.6211 11.933594 l .3418 .123047 l 11.2793 -11.580078 z"></path><path d="M 48.92938 80.298235 L 38.32 91.190813 l .35938 .128907 l 10.25 -10.527344 z"></path><path d="m 48.92938 81.729876 l -9.57617 9.832031 l .33593 .121094 l 9.24024 -9.486328 z"></path><path d="m 48.92938 83.149798 l -8.55078 8.779297 l .34179 .123047 l 8.20899 -8.429688 z"></path><path d="m 48.92938 84.565813 l -7.5293 7.730469 l .3457 .125 l 7.1836 -7.375 z"></path><path d="m 48.92938 85.983782 l -6.50586 6.679688 l .35547 .126953 l 6.15039 -6.316407 z"></path><path d="m 48.92938 87.423235 l -5.4668 5.613281 l .3418 .121094 l 5.125 -5.261718 z"></path><path d="m 48.92938 88.825579 l -4.45508 4.574219 l .35937 .128906 l 4.09571 -4.207031 z"></path><path d="m 48.92938 90.25722 l -3.42188 3.513672 l .33594 .11914 l 3.08594 -3.167969 z"></path><path d="m 48.92938 91.679095 l -2.39453 2.458984 l .34179 .123047 l 2.05274 -2.109375 z"></path><path d="m 48.92938 93.106829 l -1.36524 1.400391 l .32813 .117187 l 1.03711 -1.064453 z"></path><path d="m 48.56805 94.868548 l .36142 .123053 l -.00005 -.494144 z"></path><path d="m 49.970864 5 c -6.145784 0 -11.735382 5.677717 -11.732925 11.919163 c .0025 6.241445 5.592054 11.919164 11.732925 11.919164 c 6.14089 0 11.730887 -5.680224 11.732927 -11.919164 c .002041 -6.243948 -5.587092 -11.919163 -11.732927 -11.919163 z"></path><path d="m 37.687543 31.361999 c -2.351933 0 -4.674629 1.196997 -6.054916 3.101299 l -5.305005 7.318835 l 22.600931 8.109025 h 2.142332 l 22.600932 -8.109025 l -5.305005 -7.318835 c -1.385449 -1.911423 -3.751733 -3.101299 -6.112456 -3.101299 z"></path><path d="m 18.258384 66.106328 c -3.52517 0 -6.382884 -2.857714 -6.382884 -6.382883 c 0 -3.52517 2.857714 -6.382884 6.382884 -6.382884 z" overflow="visible"></path><path d="m 81.741993 66.106328 c 3.525169 0 6.382884 -2.857714 6.382884 -6.382883 c 0 -3.52517 -2.857715 -6.382884 -6.382884 -6.382884 z" overflow="visible"></path></svg>