<svg fill="#002451" xmlns="http://www.w3.org/2000/svg" xmlns:xlink="http://www.w3.org/1999/xlink" version="1.1" x="0px" y="0px" viewBox="0 0 100 100" style="enable-background:new 0 0 100 100;" xml:space="preserve"><g><circle cx="25.7" cy="31.4" r="8.6"></circle><path d="M92,56.4c-0.1-7.2-4.5-13.4-10.8-16c-1.6,2-4,3.2-6.7,3.2c-2.7,0-5.1-1.3-6.7-3.2c-4.2,1.8-7.6,5.1-9.3,9.3   c-0.8-0.4-1.6-0.8-2.5-1.1c-1.5,1.5-3.7,2.5-6,2.5c-2.3,0-4.5-0.9-6-2.5c-0.7,0.3-1.5,0.6-2.2,1c-1.8-4.7-5.6-8.3-10.4-10   c-1.5,1.5-3.6,2.4-5.9,2.4c-2.3,0-4.4-0.9-5.9-2.4c-6.7,2.4-11.4,8.8-11.4,16.3v4.7h25c-0.4,1.4-0.6,2.8-0.6,4.3v4.7h34.8v-4.7   c0-1.3-0.2-2.6-0.4-3.8H92V56.4z"></path><circle cx="74.6" cy="32.7" r="8.6"></circle><circle cx="50.1" cy="40" r="8.6"></circle></g></svg>