<svg fill="#002451" xmlns="http://www.w3.org/2000/svg" xmlns:xlink="http://www.w3.org/1999/xlink" version="1.1" x="0px" y="0px" viewBox="0 0 100 100" enable-background="new 0 0 100 100" xml:space="preserve"><path fill="none" stroke="#002451" stroke-width="3" stroke-linecap="round" stroke-linejoin="round" stroke-miterlimit="10" d="  M43.819,75.557c3.186-0.293,6.129,2.536,9.568,3.25c3.438,0.712,20.231-3.07,15.201-7.343c-5.028-4.273-11.377-1.408-18.808-5.613  c-7.429-4.206-15.875-7.4-20.681-6.658C24.293,59.932,8.483,70.224,8.483,70.224l6.084,15.061  c9.976-9.534,23.957,3.354,31.449,3.231c0,0,16.986,4.211,29.048-8.68c4.581-4.896,15.971-12.533,15.971-12.533  c-1.138-4.452-1.933-5.056-1.933-5.056c-2.79-4.695-19.086,10.804-19.086,10.804"></path><line fill="none" stroke="#002451" stroke-width="3" stroke-linecap="round" stroke-linejoin="round" stroke-miterlimit="10" x1="19.59" y1="82.296" x2="13.149" y2="67.289"></line><path fill="none" stroke="#002451" stroke-width="3" stroke-linecap="round" stroke-linejoin="round" stroke-miterlimit="10" d="  M38.816,75.405c0,0-1.931-0.182-4.568-0.025"></path><polygon points="66.756,15.027 66.756,23.345 75.712,23.345 "></polygon><path fill="none" stroke="#002451" stroke-width="2.7" stroke-linejoin="round" stroke-miterlimit="10" d="M75.712,47.317V23.131  l-8.956-8.104H44.425c-1.211,0-2.192,0.982-2.192,2.193v40.972l2.66,1.82l1.707,0.18l3.039-0.477l1.709,2.477l3.404-2.18l1.764,2.18  l3.382-2.18l1.259,2.18l2.663-2.18l2.331,2.18l3.681-2.18"></path><line fill="none" stroke="#002451" stroke-width="2" stroke-linecap="round" stroke-linejoin="round" stroke-miterlimit="10" x1="51.639" y1="32.366" x2="69.311" y2="32.366"></line><line fill="none" stroke="#002451" stroke-width="2" stroke-linecap="round" stroke-linejoin="round" stroke-miterlimit="10" x1="51.639" y1="28.3" x2="69.311" y2="28.3"></line><line fill="none" stroke="#002451" stroke-width="2" stroke-linecap="round" stroke-linejoin="round" stroke-miterlimit="10" x1="51.639" y1="36.389" x2="69.311" y2="36.389"></line><line fill="none" stroke="#002451" stroke-width="2" stroke-linecap="round" stroke-linejoin="round" stroke-miterlimit="10" x1="51.639" y1="40.413" x2="69.311" y2="40.413"></line><line fill="none" stroke="#002451" stroke-width="2" stroke-linecap="round" stroke-linejoin="round" stroke-miterlimit="10" x1="64.303" y1="45.001" x2="69.311" y2="45.001"></line><path d="M74.947,46.265c-4.913,0-8.896,3.983-8.896,8.896s3.983,8.896,8.896,8.896c4.912,0,8.896-3.982,8.896-8.896  S79.859,46.265,74.947,46.265z M77.94,58.031c-0.325,1.235-1.059,1.79-1.617,2.037c-0.168,0.075-0.341,0.127-0.516,0.167v0.793  c0,0.475-0.386,0.861-0.86,0.861c-0.476,0-0.86-0.386-0.86-0.861v-0.784c-0.918-0.17-1.654-0.536-1.787-0.605  c-0.423-0.219-0.587-0.739-0.366-1.161c0.218-0.422,0.736-0.585,1.159-0.367c0.41,0.21,1.753,0.73,2.535,0.382  c0.2-0.089,0.484-0.28,0.647-0.9c0.218-0.831-0.024-1.086-1.621-1.712c-1.163-0.455-2.757-1.079-2.817-2.844  c-0.045-1.274,0.513-1.94,0.986-2.273c0.369-0.26,0.809-0.397,1.264-0.457v-0.74c0-0.475,0.386-0.86,0.861-0.86l0,0  c0.474,0,0.86,0.385,0.86,0.861v0.813c0.818,0.148,1.477,0.397,1.618,0.454c0.441,0.176,0.657,0.677,0.481,1.118  c-0.178,0.441-0.677,0.657-1.119,0.481c-0.864-0.342-2.41-0.663-2.976-0.263c-0.068,0.048-0.278,0.197-0.257,0.805  c0.021,0.573,0.567,0.848,1.725,1.301C76.516,54.762,78.584,55.571,77.94,58.031z"></path><line fill="none" stroke="#002451" stroke-width="2" stroke-linecap="round" stroke-linejoin="round" stroke-miterlimit="10" x1="51.639" y1="45.001" x2="53.377" y2="45.001"></line><line fill="none" stroke="#002451" stroke-width="2" stroke-linecap="round" stroke-linejoin="round" stroke-miterlimit="10" x1="51.639" y1="49.019" x2="53.377" y2="49.019"></line><line fill="none" stroke="#002451" stroke-width="2" stroke-linecap="round" stroke-linejoin="round" stroke-miterlimit="10" x1="57.376" y1="45.001" x2="59.116" y2="45.001"></line><line fill="none" stroke="#002451" stroke-width="2" stroke-linecap="round" stroke-linejoin="round" stroke-miterlimit="10" x1="57.376" y1="49.019" x2="59.116" y2="49.019"></line><circle cx="48.549" cy="28.288" r="0.955"></circle><circle cx="48.549" cy="32.469" r="0.955"></circle><circle cx="48.549" cy="36.127" r="0.955"></circle><circle cx="48.549" cy="40.309" r="0.955"></circle></svg>