<svg fill="#002451" xmlns="http://www.w3.org/2000/svg" xmlns:xlink="http://www.w3.org/1999/xlink" version="1.1" x="0px" y="0px" viewBox="0 0 64 64" style="enable-background:new 0 0 64 64;" xml:space="preserve"><g><path style="" d="M1.5,0   c0,6.08,27.678,11,62.5,11" fill="none" stroke="#002451" stroke-width="2" stroke-linejoin="round" stroke-miterlimit="10"></path><path style="" d="M41,10   c0,12.063-15.671,17-41,17" fill="none" stroke="#002451" stroke-width="2" stroke-linejoin="round" stroke-miterlimit="10"></path><polyline style="" points="63,11 57,19    52,11 46,19 41,11 32,18 28,9 19,17 16,7 8,15 5,4 1,12  " fill="none" stroke="#002451" stroke-width="2" stroke-linejoin="round" stroke-miterlimit="10"></polyline><polyline style="" points="2,27 7,36 11,27    19,34 23,25 31,30 35,21 41,24 41,12  " fill="none" stroke="#002451" stroke-width="2" stroke-linejoin="round" stroke-miterlimit="10"></polyline><line style="" x1="12" y1="38" x2="12" y2="64" fill="none" stroke="#002451" stroke-width="2" stroke-linejoin="round" stroke-miterlimit="10"></line><line style="" x1="44" y1="38" x2="44" y2="64" fill="none" stroke="#002451" stroke-width="2" stroke-linejoin="round" stroke-miterlimit="10"></line><rect x="12" y="38" style="" width="32" height="15" fill="none" stroke="#002451" stroke-width="2" stroke-linejoin="round" stroke-miterlimit="10"></rect><path style="" d="M28,49l-3.901-3.901   c-0.607-0.607-0.607-1.591,0-2.198l0,0c0.524-0.524,1.345-0.605,1.961-0.194L28,44l1.94-1.293c0.616-0.411,1.437-0.33,1.961,0.194   l0,0c0.607,0.607,0.607,1.591,0,2.198L28,49z" fill="none" stroke="#002451" stroke-width="2" stroke-linejoin="round" stroke-miterlimit="10"></path><line style="" x1="31.121" y1="0.879" x2="26.879" y2="5.121" fill="none" stroke="#002451" stroke-width="2" stroke-linejoin="round" stroke-miterlimit="10"></line><line style="" x1="31.121" y1="5.121" x2="26.879" y2="0.879" fill="none" stroke="#002451" stroke-width="2" stroke-linejoin="round" stroke-miterlimit="10"></line><line style="" x1="7.121" y1="51.879" x2="2.879" y2="56.121" fill="none" stroke="#002451" stroke-width="2" stroke-linejoin="round" stroke-miterlimit="10"></line><line style="" x1="7.121" y1="56.121" x2="2.879" y2="51.879" fill="none" stroke="#002451" stroke-width="2" stroke-linejoin="round" stroke-miterlimit="10"></line><line style="" x1="38.121" y1="56.879" x2="33.879" y2="61.121" fill="none" stroke="#002451" stroke-width="2" stroke-linejoin="round" stroke-miterlimit="10"></line><line style="" x1="38.121" y1="61.121" x2="33.879" y2="56.879" fill="none" stroke="#002451" stroke-width="2" stroke-linejoin="round" stroke-miterlimit="10"></line><line style="" x1="58.121" y1="0.879" x2="53.879" y2="5.121" fill="none" stroke="#002451" stroke-width="2" stroke-linejoin="round" stroke-miterlimit="10"></line><line style="" x1="58.121" y1="5.121" x2="53.879" y2="0.879" fill="none" stroke="#002451" stroke-width="2" stroke-linejoin="round" stroke-miterlimit="10"></line><line style="" x1="12" y1="17" x2="12" y2="19" fill="none" stroke="#002451" stroke-width="2" stroke-linejoin="round" stroke-miterlimit="10"></line><line style="" x1="51" y1="22" x2="51" y2="24" fill="none" stroke="#002451" stroke-width="2" stroke-linejoin="round" stroke-miterlimit="10"></line><line style="" x1="45" y1="3" x2="45" y2="5" fill="none" stroke="#002451" stroke-width="2" stroke-linejoin="round" stroke-miterlimit="10"></line><line style="" x1="8" y1="40" x2="8" y2="42" fill="none" stroke="#002451" stroke-width="2" stroke-linejoin="round" stroke-miterlimit="10"></line><line style="" x1="52" y1="55" x2="52" y2="57" fill="none" stroke="#002451" stroke-width="2" stroke-linejoin="round" stroke-miterlimit="10"></line><line style="" x1="5" y1="60" x2="5" y2="62" fill="none" stroke="#002451" stroke-width="2" stroke-linejoin="round" stroke-miterlimit="10"></line><line style="" x1="48" y1="43" x2="48" y2="45" fill="none" stroke="#002451" stroke-width="2" stroke-linejoin="round" stroke-miterlimit="10"></line><line style="" x1="61" y1="24" x2="61" y2="26" fill="none" stroke="#002451" stroke-width="2" stroke-linejoin="round" stroke-miterlimit="10"></line><line style="" x1="43" y1="28" x2="43" y2="30" fill="none" stroke="#002451" stroke-width="2" stroke-linejoin="round" stroke-miterlimit="10"></line><line style="" x1="40" y1="5" x2="40" y2="7" fill="none" stroke="#002451" stroke-width="2" stroke-linejoin="round" stroke-miterlimit="10"></line><polygon style="" points="52,39 59,35 61,47     " fill="none" stroke="#002451" stroke-width="2" stroke-linejoin="round" stroke-miterlimit="10"></polygon><path style="" d="M60.451,46.367   c0.634,1.853,1.094,3.641-0.853,4.853c-0.839,0.523-1.811,0.818-2.611,1.399c-0.8,0.581-1.419,1.607-1.092,2.54   c0.23,0.655,0.865,1.086,1.517,1.327c0.651,0.24,1.349,0.336,1.999,0.58c0.501,0.188,1.041,0.604,0.947,1.131   c-0.049,0.273-0.26,0.485-0.464,0.673c-1.347,1.247-2.841,2.337-4.439,3.24" fill="none" stroke="#002451" stroke-width="2" stroke-linejoin="round" stroke-miterlimit="10"></path><line style="" x1="56.879" y1="32.131" x2="57.879" y2="27.131" fill="none" stroke="#002451" stroke-width="2" stroke-linejoin="round" stroke-miterlimit="10"></line><line style="" x1="53" y1="33" x2="50" y2="28" fill="none" stroke="#002451" stroke-width="2" stroke-linejoin="round" stroke-miterlimit="10"></line><line style="" x1="50" y1="35" x2="45" y2="34" fill="none" stroke="#002451" stroke-width="2" stroke-linejoin="round" stroke-miterlimit="10"></line><line style="" x1="19" y1="57" x2="21" y2="57" fill="none" stroke="#002451" stroke-width="2" stroke-linejoin="round" stroke-miterlimit="10"></line><line style="" x1="23" y1="57" x2="25" y2="57" fill="none" stroke="#002451" stroke-width="2" stroke-linejoin="round" stroke-miterlimit="10"></line><line style="" x1="15" y1="57" x2="17" y2="57" fill="none" stroke="#002451" stroke-width="2" stroke-linejoin="round" stroke-miterlimit="10"></line></g></svg>