<svg fill="#002451" xmlns="http://www.w3.org/2000/svg" xmlns:xlink="http://www.w3.org/1999/xlink" version="1.1" x="0px" y="0px" viewBox="0 0 100 100" enable-background="new 0 0 100 100" xml:space="preserve"><path d="M97.1074219,52.5029297l-6.3183594,23.5371094H58.9638672l-7.5742188-27.5673828h-4.6181641v-2h6.1435547  l7.5742188,27.5673828h28.7666016l5.2421875-19.5273438l-30.3828125,0.1064453l-0.0078125-2L97.1074219,52.5029297z   M88.4277344,78.9980469H59.5273438v2h28.9003906V78.9980469z M66.0693359,86.3876953  c0,2.0791016-1.6914062,3.7705078-3.7705078,3.7705078c-2.0800781,0-3.7714844-1.6914062-3.7714844-3.7705078  c0-2.0800781,1.6914062-3.7714844,3.7714844-3.7714844C64.3779297,82.6162109,66.0693359,84.3076172,66.0693359,86.3876953z   M64.0693359,86.3876953c0-0.9765625-0.7939453-1.7714844-1.7705078-1.7714844s-1.7714844,0.7949219-1.7714844,1.7714844  s0.7949219,1.7705078,1.7714844,1.7705078S64.0693359,87.3642578,64.0693359,86.3876953z M88.7919922,86.3876953  c0,2.0791016-1.6914062,3.7705078-3.7714844,3.7705078s-3.7714844-1.6914062-3.7714844-3.7705078  c0-2.0800781,1.6914062-3.7714844,3.7714844-3.7714844S88.7919922,84.3076172,88.7919922,86.3876953z M86.7919922,86.3876953  c0-0.9765625-0.7949219-1.7714844-1.7714844-1.7714844s-1.7714844,0.7949219-1.7714844,1.7714844  s0.7949219,1.7705078,1.7714844,1.7705078S86.7919922,87.3642578,86.7919922,86.3876953z M6,81.8984375h41.9482422v2H4V14.9985352  h4.7763672h5.9384766h69.4853516v28.6987305h-2V29.5463867H6V81.8984375z M6,16.9985352v10.5478516h76.2001953V16.9985352  H14.7148438H8.7763672H6z M22.973877,24.0585938c1.0043945,0,1.8186035-0.814209,1.8186035-1.8186646  s-0.814209-1.8187256-1.8186035-1.8187256s-1.8186035,0.81427-1.8186035,1.8187256S21.9694824,24.0585938,22.973877,24.0585938z   M17.291748,24.0585938c1.0046387,0,1.8188477-0.814209,1.8188477-1.8186646s-0.814209-1.8187256-1.8188477-1.8187256  c-1.0043945,0-1.8186035,0.81427-1.8186035,1.8187256S16.2873535,24.0585938,17.291748,24.0585938z M11.6098633,24.0585938  c1.0043945,0,1.8186035-0.814209,1.8186035-1.8186646s-0.814209-1.8187256-1.8186035-1.8187256  s-1.8188477,0.81427-1.8188477,1.8187256S10.6054688,24.0585938,11.6098633,24.0585938z M36.2675781,71.6894531l6.5625-6.5625  l-6.5263672-6.5273438l-1.4140625,1.4140625l4.130127,4.1308594h-19.326416V45.2924805h-2v20.8520508H38.984375  l-4.1308594,4.1308594L36.2675781,71.6894531z"></path></svg>