<svg xmlns="http://www.w3.org/2000/svg" xmlns:xlink="http://www.w3.org/1999/xlink" version="1.1" x="0px" y="0px" viewBox="0 0 100 100" enable-background="new 0 0 100 100" xml:space="preserve"><path d="M27.2224121,20.5510254c0-0.8286133,0.6713867-1.5,1.5-1.5h39.2021484c0.8286133,0,1.5,0.6713867,1.5,1.5  s-0.6713867,1.5-1.5,1.5H28.7224121C27.8937988,22.0510254,27.2224121,21.3796387,27.2224121,20.5510254z M62.5109863,68.557373  h-6.4165039c-0.4418945,0-0.7998047,0.3579102-0.7998047,0.7998047s0.3579102,0.7998047,0.7998047,0.7998047h6.4165039  c0.4418945,0,0.7998047-0.3579102,0.7998047-0.7998047S62.9528809,68.557373,62.5109863,68.557373z M62.5109863,64.4206543  h-6.4165039c-0.4418945,0-0.7998047,0.3579102-0.7998047,0.7998047s0.3579102,0.7998047,0.7998047,0.7998047h6.4165039  c0.4418945,0,0.7998047-0.3579102,0.7998047-0.7998047S62.9528809,64.4206543,62.5109863,64.4206543z M82.1960449,15.1970215  v73.2363281c0,1.2128906-0.9868164,2.199707-2.199707,2.199707H23.3571777c-1.2128906,0-2.199707-0.9868164-2.199707-2.199707  v-1.4311523h-1.1538086c-1.2128906,0-2.199707-0.9868164-2.199707-2.199707V11.5666504  c0-1.2128906,0.9868164-2.199707,2.199707-2.199707h56.6391602c1.2133789,0,2.2001953,0.9868164,2.2001953,2.199707v1.4306641  h1.1533203C81.2092285,12.9973145,82.1960449,13.9841309,82.1960449,15.1970215z M77.2434082,11.5666504  c0-0.3305664-0.2695313-0.6000977-0.6005859-0.6000977H20.0036621c-0.3305664,0-0.6000977,0.2695313-0.6000977,0.6000977v73.2358398  c0,0.3305664,0.2695313,0.6000977,0.6000977,0.6000977h56.6391602c0.3310547,0,0.6005859-0.2695313,0.6005859-0.6000977V11.5666504z   M69.1696777,64.7637329v1.8852539c0.6999512,0.1711426,1.2883301,0.515625,1.6914063,1.0075073  c0.3950195,0.4824219,0.5737305,1.0708008,0.5039063,1.6572266c-0.1196289,0.996582-1.0058594,1.7633057-2.1953125,2.0437012  v0.4020996c0,0.4418945-0.3579102,0.7998047-0.7998047,0.7998047s-0.7998047-0.3579102-0.7998047-0.7998047v-0.3309326  c-0.8100586-0.1062012-1.5366211-0.4075928-2.0561523-0.8795166c-0.3271484-0.296875-0.3515625-0.8027344-0.0546875-1.1298828  c0.2973633-0.3266602,0.8032227-0.3510742,1.1298828-0.0546875c0.2321777,0.2106323,0.5847168,0.3689575,0.980957,0.4511719  v-1.8354492c-0.6779785-0.1976929-1.2697754-0.5634766-1.6806641-1.065918  c-0.4072266-0.4970703-0.5942383-1.0834961-0.5263672-1.6503906c0.119873-1.0003052,1.0102539-1.7772827,2.2070313-2.0541382  V62.817627c0-0.4418945,0.3579102-0.7998047,0.7998047-0.7998047s0.7998047,0.3579102,0.7998047,0.7998047v0.3331909  c0.8054199,0.107666,1.5268555,0.4080811,2.0439453,0.8772583c0.3271484,0.296875,0.3515625,0.8027344,0.0546875,1.1298828  c-0.2963867,0.3276367-0.8027344,0.3520508-1.1298828,0.0546875C69.9089355,65.0043945,69.5612793,64.8465576,69.1696777,64.7637329  z M67.5700684,64.8847656c-0.3657227,0.1541138-0.5952148,0.3765869-0.6181641,0.5695801  c-0.015625,0.1303711,0.046875,0.2890625,0.175293,0.4467773c0.0976563,0.1192627,0.2524414,0.242981,0.4428711,0.3521729  V64.8847656z M69.1696777,68.3377686v1.3505249c0.359375-0.1537476,0.5837402-0.3736572,0.6064453-0.5650024  c0.0185547-0.1538086-0.0332031-0.3066406-0.1533203-0.453125C69.5129395,68.5358887,69.3549805,68.4259033,69.1696777,68.3377686z   M72.4553223,32.385498v26.4990234c0,0.4418945-0.3579102,0.7998047-0.7998047,0.7998047H24.9914551  c-0.4418945,0-0.7998047-0.3579102-0.7998047-0.7998047V32.385498c0-0.4418945,0.3579102-0.7998047,0.7998047-0.7998047h46.6640625  C72.0974121,31.5856934,72.4553223,31.9436035,72.4553223,32.385498z M51.2351074,54.692627H25.7912598v3.3920898h25.4438477  V54.692627z M51.2351074,38.1467285H25.7912598v14.9462891h25.4438477V38.1467285z M51.2351074,33.1853027H25.7912598v3.3618164  h25.4438477V33.1853027z M60.0251465,54.692627h-7.1904297v3.3920898h7.1904297V54.692627z M60.0251465,38.1467285h-7.1904297  v14.9462891h7.1904297V38.1467285z M60.0251465,33.1853027h-7.1904297v3.3618164h7.1904297V33.1853027z M70.8557129,54.692627  h-9.230957v3.3920898h9.230957V54.692627z M70.8557129,38.1467285h-9.230957v14.9462891h9.230957V38.1467285z   M70.8557129,33.1853027h-9.230957v3.3618164h9.230957V33.1853027z"></path></svg>