<svg xmlns="http://www.w3.org/2000/svg" xmlns:xlink="http://www.w3.org/1999/xlink" version="1.1" x="0px" y="0px" viewBox="0 0 30 30" enable-background="new 0 0 30 30" xml:space="preserve"><g><path d="M8.832,14.841c-0.057,0.449-0.098,0.903-0.098,1.369c0,0.466,0.041,0.92,0.098,1.37l2.809,0.703   c0.184,0.682,0.451,1.329,0.797,1.928l-1.486,2.479c0.559,0.727,1.211,1.377,1.938,1.938l2.479-1.488   c0.6,0.345,1.246,0.614,1.928,0.797l0.703,2.808c0.449,0.059,0.902,0.099,1.369,0.099c0.465,0,0.92-0.04,1.369-0.099l0.703-2.808   c0.682-0.183,1.328-0.452,1.926-0.797l2.48,1.489c0.727-0.561,1.379-1.211,1.938-1.938l-1.488-2.479   c0.348-0.599,0.615-1.246,0.799-1.929L29.9,17.58c0.061-0.449,0.1-0.904,0.1-1.37c0-0.465-0.039-0.92-0.1-1.369l-2.807-0.703   c-0.184-0.683-0.451-1.331-0.799-1.928l1.49-2.48c-0.561-0.727-1.211-1.377-1.939-1.938l-2.479,1.488   c-0.6-0.346-1.244-0.614-1.928-0.797l-0.703-2.809c-0.449-0.059-0.904-0.098-1.369-0.098c-0.467,0-0.92,0.04-1.369,0.098   l-0.703,2.809c-0.684,0.183-1.33,0.451-1.928,0.797l-2.482-1.488c-0.725,0.561-1.375,1.21-1.936,1.938l1.488,2.48   c-0.346,0.598-0.613,1.244-0.797,1.927L8.832,14.841z M19.367,12.491c2.053,0,3.719,1.666,3.719,3.719s-1.666,3.719-3.719,3.719   c-2.055,0-3.719-1.666-3.719-3.719S17.313,12.491,19.367,12.491"></path><path d="M5.105,3.157c0.223,0,0.441,0.02,0.656,0.047L6.1,4.552L6.15,4.565c0.289,0.083,0.57,0.199,0.83,0.344l0.045,0.025   l1.189-0.714c0.373,0.294,0.674,0.596,0.93,0.931L8.434,6.341l0.023,0.045C8.605,6.65,8.721,6.93,8.799,7.217l0.014,0.049   l1.35,0.337c0.031,0.248,0.047,0.451,0.047,0.659c0,0.222-0.02,0.441-0.047,0.656l-1.35,0.337L8.799,9.305   c-0.078,0.287-0.193,0.566-0.342,0.832l-0.025,0.045l0.713,1.19c-0.291,0.371-0.592,0.669-0.93,0.93l-1.189-0.713L6.98,11.614   c-0.264,0.147-0.545,0.262-0.83,0.342L6.1,11.97l-0.338,1.348c-0.246,0.03-0.449,0.047-0.656,0.047   c-0.225,0-0.441-0.02-0.658-0.047L4.109,11.97l-0.049-0.014c-0.285-0.08-0.566-0.195-0.83-0.342l-0.045-0.025l-1.188,0.713   c-0.377-0.295-0.676-0.595-0.934-0.93l0.715-1.19l-0.025-0.045C1.607,9.875,1.492,9.596,1.41,9.305L1.396,9.256L0.049,8.918   C0.018,8.671,0,8.468,0,8.262c0-0.225,0.02-0.444,0.049-0.659l1.348-0.337L1.41,7.217c0.082-0.29,0.197-0.57,0.344-0.831   l0.025-0.045L1.064,5.152c0.295-0.374,0.596-0.673,0.93-0.932l1.189,0.714l0.045-0.024C3.49,4.765,3.77,4.649,4.061,4.565   l0.049-0.014l0.338-1.348C4.695,3.174,4.898,3.157,5.105,3.157 M5.105,10.171c1.053,0,1.912-0.856,1.912-1.909   c0-1.054-0.859-1.912-1.912-1.912S3.193,7.208,3.193,8.262C3.193,9.315,4.053,10.171,5.105,10.171"></path></g></svg>