<svg xmlns="http://www.w3.org/2000/svg" data-name="Layer 1" viewBox="0 0 100 100" x="0px" y="0px"><defs><style>.cls-1{stroke:#000;stroke-miterlimit:10;stroke-width:0.01px;}</style></defs><title>collections_08</title><path class="cls-1" d="M65.74,17.61a6.53,6.53,0,1,1,6.53,6.53A6.54,6.54,0,0,1,65.74,17.61ZM58.42,40.78L58.77,41c0.25,0.13.51,0.27,0.78,0.38a27.13,27.13,0,0,0,7.84,1.9,47.36,47.36,0,0,0,4.85.25q1.3,0,2.62-.07a34.43,34.43,0,0,0,6.6-.91A19.09,19.09,0,0,0,86,40.86,0.7,0.7,0,0,0,86.43,40c0-.44,0-1.13-0.06-1.89,0-1.17-.07-2.49-0.12-3.18a16.12,16.12,0,0,0-.65-3.54,2.94,2.94,0,0,0-1.91-2.17c-0.77-.24-1.56-0.5-2.32-0.75l-1.57-.51-3.43-1.07a0.5,0.5,0,0,0-.39,0,0.58,0.58,0,0,0-.18.42c-0.5,2.49-1.14,5.08-1.95,7.93v0l-0.1-1c-0.11-1.13-.23-2.3-0.36-3.44a2.1,2.1,0,0,1,.15-1.17A5.34,5.34,0,0,0,73.77,29a1.33,1.33,0,0,0-.17-1,0.42,0.42,0,0,0-.33-0.21c-0.6,0-1.22,0-1.81,0H71.27a0.42,0.42,0,0,0-.29.17,1.28,1.28,0,0,0-.16,1.21l0.09,0.26c0.06,0.17.12,0.34,0.19,0.5a1.37,1.37,0,0,1,.07.72Q71,31.76,70.93,32.9l-0.13,1.22c0,0.37-.08.73-0.12,1.1-0.83-2.85-1.5-5.57-2-8.31l0-.12-0.12,0-0.15,0a1.82,1.82,0,0,0-.31.06l-2.73.88-4.59,1.47a2.54,2.54,0,0,0-1.62,1.66,15.43,15.43,0,0,0-.62,2.4,43.18,43.18,0,0,0-.35,5.51c0,0.52,0,1,0,1.39A0.59,0.59,0,0,0,58.42,40.78ZM47.11,69.89a20.33,20.33,0,0,1,0,2.2,2,2,0,0,1-1.8,2l-0.54.1-1.58.28a0.25,0.25,0,0,0-.23.21c-0.43,1.07-.77,1.88-1.1,2.63a0.27,0.27,0,0,0,0,.33c0.4,0.55.8,1.13,1.24,1.77a2.06,2.06,0,0,1-.26,2.83l-1,1-0.34.34a2.07,2.07,0,0,1-1.55.64,2.13,2.13,0,0,1-1.24-.45l-0.59-.41L37,82.49a0.27,0.27,0,0,0-.33,0c-1,.44-1.83.78-2.6,1.08a0.32,0.32,0,0,0-.26.29c-0.13.78-.26,1.48-0.39,2.12a2,2,0,0,1-2,1.75l-1,0c-0.41,0-.82,0-1.24,0a2,2,0,0,1-1.87-1.65c-0.14-.66-0.27-1.36-0.42-2.28a0.23,0.23,0,0,0-.19-0.21c-1-.41-1.88-0.77-2.69-1.12a0.22,0.22,0,0,0-.27,0c-0.66.48-1.24,0.89-1.79,1.27a2,2,0,0,1-2.73-.21c-0.51-.48-1-0.94-1.41-1.39a2,2,0,0,1-.24-2.75c0.45-.67.86-1.26,1.26-1.8a0.3,0.3,0,0,0,0-.36c-0.37-.86-0.74-1.74-1.08-2.6a0.3,0.3,0,0,0-.27-0.24c-0.74-.12-1.48-0.26-2.19-0.4a2,2,0,0,1-1.72-2.09c0-.65,0-1.29,0-1.94a2,2,0,0,1,1.68-2.06c0.76-.16,1.53-0.29,2.25-0.42a0.25,0.25,0,0,0,.23-0.2c0.32-.81.67-1.66,1.1-2.66a0.25,0.25,0,0,0,0-.3c-0.3-.4-0.59-0.82-0.87-1.23l-0.32-.46a2.06,2.06,0,0,1,.25-2.92l0.32-.32,1-1a2,2,0,0,1,2.75-.26c0.57,0.39,1.15.79,1.77,1.24a0.32,0.32,0,0,0,.39,0c0.83-.37,1.7-0.73,2.58-1.07a0.33,0.33,0,0,0,.26-0.29c0.1-.62.22-1.27,0.39-2.12a2.05,2.05,0,0,1,2.12-1.77H31.3A2.05,2.05,0,0,1,33.43,56c0.13,0.71.26,1.41,0.38,2.12a0.31,0.31,0,0,0,.24.28c0.77,0.31,1.59.65,2.6,1.1a0.25,0.25,0,0,0,.3,0l1.41-1,0.34-.23a2.06,2.06,0,0,1,2.87.25l0.2,0.2,1.1,1.1a2,2,0,0,1,.25,2.78c-0.45.66-.86,1.24-1.26,1.79a0.24,0.24,0,0,0,0,.3c0.36,0.84.72,1.71,1.1,2.66a0.26,0.26,0,0,0,.23.2l1.48,0.27L45.3,67.9A2,2,0,0,1,47.11,69.89ZM35.92,71a5.59,5.59,0,0,0-5.56-5.58h0a5.58,5.58,0,1,0,0,11.16h0A5.58,5.58,0,0,0,35.92,71ZM87.05,50.31a2,2,0,0,0-4,0,31.28,31.28,0,0,1-27.68,31L61,71.47a2,2,0,0,0-3.47-2L50.08,82.54a2,2,0,0,0-.1.22v0a2,2,0,0,0-.09.3l0,0.1a2,2,0,0,0,0,.25s0,0.07,0,.11,0,0,0,.06,0,0.11,0,.16a2,2,0,0,0,0,.27h0v0a2,2,0,0,0,1.16,1.32l12.82,7.33a2,2,0,1,0,2-3.47l-7.55-4.32A35.29,35.29,0,0,0,87.05,50.31Zm-68.48,2a2,2,0,0,0,2-2A31.28,31.28,0,0,1,48,19.32l-5.94,9.37a2,2,0,1,0,3.38,2.14l8-12.57a2,2,0,0,0,.26-0.49h0a2,2,0,0,0,.1-0.35c0-.05,0-0.11,0-0.16s0-.12,0-0.18,0,0,0,0a2,2,0,0,0,0-.32s0,0,0,0a2,2,0,0,0-.89-1.3L40.19,7.31A2,2,0,1,0,38,10.69l7.74,4.91A35.29,35.29,0,0,0,16.58,50.31,2,2,0,0,0,18.58,52.31Z"></path></svg>