<svg fill="#002451" xmlns="http://www.w3.org/2000/svg" xmlns:xlink="http://www.w3.org/1999/xlink" viewBox="0 0 24 24" version="1.1" x="0px" y="0px"><title>7 -Industry Stock- (Solid)</title><desc>Created with Sketch.</desc><g stroke="none" stroke-width="1" fill="none" fill-rule="evenodd"><g fill="#002451"><path d="M19,20.9995 L19,17.9995 C19,17.4475 18.553,16.9995 18,16.9995 L14,16.9995 C13.447,16.9995 13,17.4475 13,17.9995 L13,20.9995 L11,20.9995 L11,17.9995 C11,17.4475 10.553,16.9995 10,16.9995 L6,16.9995 C5.447,16.9995 5,17.4475 5,17.9995 L5,20.9995 L2,20.9995 L2,14.9995 L6,14.9995 L10,14.9995 L14,14.9995 L18,14.9995 L22,14.9995 L22,20.9995 L19,20.9995 Z M6,6.9995 L10,6.9995 L14,6.9995 L18,6.9995 L22,6.9995 L22,12.9995 L19,12.9995 L19,9.9995 C19,9.4475 18.553,8.9995 18,8.9995 L14,8.9995 C13.447,8.9995 13,9.4475 13,9.9995 L13,12.9995 L11,12.9995 L11,9.9995 C11,9.4475 10.553,8.9995 10,8.9995 L6,8.9995 C5.447,8.9995 5,9.4475 5,9.9995 L5,12.9995 L2,12.9995 L2,6.9995 L6,6.9995 Z M23,-0.0005 C22.447,-0.0005 22,0.4475 22,0.9995 L22,4.9995 L19,4.9995 L19,1.9995 C19,1.4475 18.553,0.9995 18,0.9995 L14,0.9995 C13.447,0.9995 13,1.4475 13,1.9995 L13,4.9995 L11,4.9995 L11,1.9995 C11,1.4475 10.553,0.9995 10,0.9995 L6,0.9995 C5.447,0.9995 5,1.4475 5,1.9995 L5,4.9995 L2,4.9995 L2,0.9995 C2,0.4475 1.553,-0.0005 1,-0.0005 C0.447,-0.0005 0,0.4475 0,0.9995 L0,22.9995 C0,23.5515 0.447,23.9995 1,23.9995 C1.553,23.9995 2,23.5515 2,22.9995 L6,22.9995 L10,22.9995 L14,22.9995 L18,22.9995 L22,22.9995 C22,23.5515 22.447,23.9995 23,23.9995 C23.553,23.9995 24,23.5515 24,22.9995 L24,0.9995 C24,0.4475 23.553,-0.0005 23,-0.0005 L23,-0.0005 Z"></path></g></g></svg>