<svg fill="#002451" xmlns:dc="http://purl.org/dc/elements/1.1/" xmlns:cc="http://creativecommons.org/ns#" xmlns:rdf="http://www.w3.org/1999/02/22-rdf-syntax-ns#" xmlns:svg="http://www.w3.org/2000/svg" xmlns="http://www.w3.org/2000/svg" xmlns:sodipodi="http://sodipodi.sourceforge.net/DTD/sodipodi-0.dtd" xmlns:inkscape="http://www.inkscape.org/namespaces/inkscape" viewBox="0 0 100 100" version="1.1" x="0px" y="0px"><g transform="translate(0,-952.36216)"><path style="color:#000000;font-style:normal;font-variant:normal;font-weight:normal;font-stretch:normal;font-size:medium;line-height:normal;font-family:sans-serif;text-indent:0;text-align:start;text-decoration:none;text-decoration-line:none;text-decoration-style:solid;text-decoration-color:#000000;letter-spacing:normal;word-spacing:normal;text-transform:none;direction:ltr;block-progression:tb;writing-mode:lr-tb;baseline-shift:baseline;text-anchor:start;white-space:normal;clip-rule:nonzero;display:inline;overflow:visible;visibility:visible;opacity:1;isolation:auto;mix-blend-mode:normal;color-interpolation:sRGB;color-interpolation-filters:linearRGB;solid-color:#000000;solid-opacity:1;fill:#002451;fill-opacity:1;fill-rule:evenodd;stroke:none;stroke-width:0.435;stroke-linecap:butt;stroke-linejoin:miter;stroke-miterlimit:4;stroke-dasharray:none;stroke-dashoffset:0;stroke-opacity:1;color-rendering:auto;image-rendering:auto;shape-rendering:auto;text-rendering:auto;enable-background:accumulate" d="m 86.1778,955.35829 0,82.00001 -5.3243,0 0,6.0058 -5.0312,0 0,6.002 -62,0 0,-82 5.0312,0 0,-6.00195 5.3243,0 0,-6.00586 62,0 z m -62,8.00586 -3.3243,0 0,77.99995 58,0 0,-4.0058 -54.6757,0 0,-73.99415 z m -5.3243,6.00195 -3.0312,0 0,78 58,0 0,-4.002 -54.9688,0 0,-73.998 z m 36.3243,2.56055 c -7.0109,0 -12.7149,5.70392 -12.7149,12.71484 0,7.01094 5.704,12.71483 12.7149,12.71484 7.011,0 12.7168,-5.7039 12.7168,-12.71484 -1e-4,-7.01092 -5.7058,-12.71484 -12.7168,-12.71484 z m 0,6.42578 c 1.9295,0 3.5136,1.58223 3.5136,3.51172 0,1.92949 -1.5842,3.51172 -3.5136,3.51172 -1.9293,0 -3.5118,-1.58223 -3.5118,-3.51172 0,-1.92949 1.5823,-3.51172 3.5118,-3.51172 z m 0,1.99609 c -0.8512,0 -1.5157,0.66438 -1.5157,1.51563 0,0.85124 0.6643,1.51562 1.5157,1.51562 0.8515,0 1.5156,-0.66438 1.5156,-1.51562 0,-0.85125 -0.6643,-1.51563 -1.5156,-1.51563 z m 6.0273,4.33985 0,6.24414 -12.0527,0 0,-6.02735 0,-0.21679 1.9961,0 0,4.24609 8.0605,0 0,-4.24609 1.9961,0 z m 9.8125,18.48043 -31.6777,0 0,1.9981 31.6777,0 0,-1.7793 0,-0.2188 z m 0,7.8106 -31.6777,0 0,1.998 31.6777,0 0,-1.7793 0,-0.2187 z m 0,7.8125 -31.6777,0 0,1.998 31.6777,0 0,-1.7793 0,-0.2187 z"></path></g></svg>