<svg xmlns="http://www.w3.org/2000/svg" xmlns:xlink="http://www.w3.org/1999/xlink" version="1.1" x="0px" y="0px" viewBox="0 0 100 100" enable-background="new 0 0 100 100" xml:space="preserve"><path d="M74.395,27.692c-3.937,0-7.134-3.217-7.134-7.187c0-3.968,3.197-7.183,7.134-7.183c3.935,0,7.126,3.216,7.126,7.183  C81.522,24.475,78.331,27.692,74.395,27.692z"></path><path d="M28.05,12.269c-1.526-0.138-2.981,0.225-4.213,0.947l-0.023-0.022l-0.155,0.133c-0.607,0.38-1.154,0.848-1.624,1.391  l-8.727,7.475l-4.593,1.027l2.337,3.942l2.792-4.062l6.519-2.59c0.478,3.195,3.058,5.77,6.393,6.071  c3.921,0.354,7.395-2.562,7.752-6.516C34.866,16.113,31.971,12.623,28.05,12.269z"></path><path d="M47.556,54.29L32.569,29.246v0.158l-0.025-0.155c0,0-7.99-0.034-10.654-0.015c-3.141,0.022-12.083,2.512-12.083,2.512  c-0.677,0.073-1.2,0.627-1.235,1.307L8.15,39.465l-2.333,0.436L5.252,50.842l2.304,0.119l-0.069,1.338l9.764,0.107  c0.55,0.266,1.13,0.472,1.723,0.647l-1.347,18.928h3.176l0.069,18.413l4.568-0.106l2.351-18.307h1.012l-0.049,18.307h4.19  l2.653-18.307h3.967l-4.616-28.099l7.589,10.408H47.556z M19.115,51.059c-0.614-0.213-1.201-0.484-1.753-0.815l0.943-18.26  c0.703-0.329,1.448-0.311,2.22-0.456L19.115,51.059z"></path><path d="M78.612,53.497l1.099-14.774L90.023,51.47h4.603L80.304,30.766l-13.337,0.043c-1.033,0.085-11.045,2.575-11.045,2.575  c-0.693,0.075-1.229,0.642-1.265,1.338l-0.432,6.565l-2.389,0.447l-0.579,11.203l2.359,0.122l-0.071,1.37l9.997,0.109  c0.531,0.257,1.089,0.461,1.659,0.635l-0.083,1.142v6.294v26.424h5.437l3.496-27.537L84.155,69.1l-1.968,17.177l4.731,0.114  l4.548-19.685l-0.075-0.003L78.612,53.497z M63.657,52.323l0.966-18.697c0,0,1.186-0.36,2.18-0.555l-1.452,20.051  C64.76,52.909,64.192,52.644,63.657,52.323z"></path></svg>