<svg fill="#002451" xmlns="http://www.w3.org/2000/svg" xmlns:xlink="http://www.w3.org/1999/xlink" version="1.1" x="0px" y="0px" viewBox="0 0 100 100" enable-background="new 0 0 100 100" xml:space="preserve"><g><path fill="none" d="M16.216,40.996c0.097,0.096,0.197,0.144,0.292,0.127c0.047-0.008,0.088-0.031,0.126-0.066   c0.466,1.448,1.358,2.891,2.483,3.751c0.649,0.497,1.375,0.799,2.141,0.799c0.782,0,1.523-0.316,2.183-0.832   c1.104-0.864,1.981-2.29,2.44-3.719c0.038,0.035,0.08,0.057,0.126,0.066c0.083,0.014,0.168-0.019,0.252-0.09   c0.21-0.179,0.408-0.595,0.499-1.102c0.118-0.66,0.012-1.238-0.236-1.354c-0.019-0.009-0.037-0.016-0.057-0.019   c-0.078-0.014-0.156,0.015-0.236,0.077l-0.003,0.005c0-0.001-0.001-0.001-0.001-0.001c-0.001,0-0.001,0.001-0.002,0.002   c0-0.005,0-0.01,0-0.015c-0.298-1.132-0.675-1.825-1.062-2.237c-0.075-0.041-0.153-0.078-0.239-0.102   c-0.009,0.166,0.18,0.42,0.2,0.667c-0.537-0.251-1.051-0.639-1.803-0.667c-0.174-0.006-0.365-0.005-0.559-0.001   c-0.258,0.093-0.519,0.151-0.778,0.193c-0.542,0.204-0.749,0.222-1.213,0.064c-1.03-0.056-1.813-0.343-1.813-0.343   c-2.272-0.21-2.633,2.15-2.661,2.42c0,0.006,0,0.013,0,0.02c0,0,0,0-0.001,0c-0.08-0.064-0.163-0.096-0.243-0.082   c-0.034,0.005-0.066,0.021-0.095,0.042c-0.071,0.05-0.127,0.146-0.168,0.268c-0.022,0.317-0.037,0.64-0.041,0.971   c0.004,0.031,0.006,0.06,0.013,0.092C15.843,40.407,16.022,40.8,16.216,40.996z"></path><polygon fill="none" points="46.563,53.532 48.772,53.532 50.917,53.532 53.218,53.532 60.494,53.532 62.537,53.532 62.538,53.531    60.494,53.531 53.218,53.531 50.917,53.531 48.772,53.531 46.563,53.531 37.461,53.531 37.462,53.532  "></polygon><path fill="none" d="M43.199,37.995c0.129,0.128,0.263,0.192,0.39,0.17c0.063-0.011,0.117-0.041,0.168-0.088   c0.622,1.931,1.811,3.854,3.311,5.003c0.865,0.662,1.833,1.066,2.855,1.066c1.042,0,2.031-0.422,2.91-1.11   c1.473-1.153,2.642-3.053,3.254-4.959c0.051,0.046,0.105,0.077,0.168,0.088c0.11,0.02,0.225-0.025,0.336-0.12   c0.281-0.238,0.545-0.793,0.665-1.469c0.156-0.88,0.016-1.651-0.316-1.806c-0.024-0.012-0.049-0.021-0.075-0.025   c-0.103-0.018-0.208,0.021-0.314,0.102l-0.004,0.007c0-0.001-0.001-0.001-0.001-0.002c-0.002,0-0.002,0.002-0.003,0.003   c0-0.007,0-0.014-0.002-0.02c-0.396-1.51-0.899-2.433-1.415-2.983c-0.1-0.054-0.204-0.103-0.318-0.136   c-0.013,0.222,0.24,0.56,0.267,0.891c-0.717-0.335-1.402-0.853-2.404-0.891c-0.233-0.009-0.486-0.006-0.746,0   c-0.345,0.123-0.691,0.2-1.036,0.257c-0.722,0.271-1,0.296-1.619,0.085c-1.374-0.074-2.418-0.457-2.418-0.457   c-3.03-0.279-3.51,2.867-3.546,3.228c0,0.009-0.001,0.017-0.001,0.026c0,0,0,0-0.001,0c-0.107-0.086-0.217-0.127-0.323-0.108   c-0.046,0.007-0.089,0.027-0.128,0.056c-0.094,0.067-0.168,0.195-0.224,0.358c-0.029,0.423-0.049,0.852-0.054,1.294   c0.006,0.042,0.009,0.081,0.017,0.123C42.702,37.208,42.94,37.734,43.199,37.995z"></path><path fill="none" d="M73.583,40.996c0.097,0.096,0.198,0.144,0.294,0.127c0.045-0.008,0.087-0.031,0.126-0.066   c0.465,1.448,1.356,2.891,2.481,3.751c0.649,0.497,1.375,0.799,2.141,0.799c0.782,0,1.523-0.316,2.183-0.832   c1.104-0.864,1.981-2.29,2.44-3.719c0.037,0.035,0.079,0.057,0.126,0.066c0.082,0.014,0.168-0.019,0.252-0.09   c0.211-0.179,0.408-0.595,0.498-1.102c0.117-0.66,0.013-1.238-0.236-1.354c-0.019-0.009-0.037-0.016-0.057-0.019   c-0.076-0.014-0.156,0.015-0.235,0.077l-0.003,0.005c0-0.001-0.002-0.001-0.002-0.001c-0.001,0-0.001,0.001-0.001,0.002   c0-0.005,0-0.01-0.002-0.015c-0.298-1.132-0.675-1.825-1.062-2.237c-0.075-0.041-0.153-0.078-0.238-0.102   c-0.011,0.166,0.181,0.42,0.199,0.667c-0.537-0.251-1.051-0.639-1.803-0.667c-0.175-0.006-0.365-0.005-0.559-0.001   c-0.26,0.093-0.521,0.151-0.778,0.193c-0.54,0.204-0.749,0.222-1.215,0.064c-1.028-0.056-1.812-0.343-1.812-0.343   c-2.272-0.21-2.632,2.15-2.66,2.42c0,0.006,0,0.013,0,0.02c-0.002,0-0.002,0-0.002,0c-0.081-0.064-0.163-0.096-0.242-0.082   c-0.034,0.005-0.066,0.021-0.097,0.042c-0.069,0.05-0.126,0.146-0.168,0.268c-0.021,0.317-0.036,0.64-0.04,0.971   c0.004,0.031,0.008,0.06,0.013,0.092C73.209,40.407,73.389,40.8,73.583,40.996z"></path><path fill="none" d="M66.958,53.531h-1.254h-2.852c-0.001,0-0.001,0.001-0.001,0.001h2.854L66.958,53.531l2.712,0.001   c1.152,0,2.087,0.935,2.087,2.086l-3.109,14.638h21.516c0.857,0,1.551-0.687,1.551-1.533l3.131-14.29   c0-0.846-0.693-1.532-1.549-1.532h-1.858h-0.854h-4.151h-5.52H79.39h-1.645h-1.471h-9.492c0.031,0.104,0.066,0.194,0.097,0.3   C66.911,53.31,66.937,53.421,66.958,53.531z M78.684,60.885c0.459,0,0.831,0.372,0.831,0.83c0,0.46-0.372,0.834-0.831,0.834   c-0.46,0-0.832-0.374-0.832-0.834C77.852,61.257,78.224,60.885,78.684,60.885z"></path><path fill="none" d="M30.331,53.532h2.704h4.115c-0.001,0-0.001-0.001-0.001-0.001h-4.114c0.021-0.11,0.047-0.222,0.079-0.331   c0.031-0.105,0.065-0.196,0.097-0.3h-4.143h-5.52h-1.523h-1.645h-1.47H8.556h-1.85c-0.856,0-1.55,0.687-1.55,1.532l3.13,14.29   c0,0.847,0.694,1.533,1.55,1.533h21.518l-3.111-14.638C28.244,54.465,29.179,53.532,30.331,53.532z M21.317,62.549   c-0.459,0-0.832-0.374-0.832-0.834c0-0.458,0.373-0.83,0.832-0.83s0.832,0.372,0.832,0.83   C22.149,62.175,21.776,62.549,21.317,62.549z"></path><path fill="none" d="M68.352,70.508l0.055-0.252l3.143-14.344c0-1.129-0.925-2.044-2.066-2.044h-2.477h-1.138h-3.231h-0.201h-2.103   h-7.359h-2.032h-2.193h-1.96h-9.224h-0.201h-4.378h-2.467c-1.141,0-2.067,0.915-2.066,2.044l3.143,14.344l0.056,0.252l0.086,0.396   l0.294,1.341l0.596,2.72c0,1.129,0.925,2.044,2.067,2.044h30.614c1.143,0,2.068-0.915,2.068-2.044l0.595-2.72l0.294-1.341   L68.352,70.508z M50,66.731c-0.613,0-1.109-0.497-1.109-1.111c0-0.61,0.497-1.107,1.109-1.107c0.612,0,1.109,0.497,1.109,1.107   C51.109,66.234,50.612,66.731,50,66.731z"></path><circle cx="50" cy="65.622" r="1.109"></circle><path d="M67.392,77.872H32.611c-0.49,0-0.886,0.401-0.886,0.894s0.396,0.894,0.886,0.894h34.781c0.488,0,0.885-0.399,0.885-0.894   C68.276,78.273,67.878,77.872,67.392,77.872z"></path><path d="M40.506,25.436l-0.047,0.656c-0.255,0.043-0.45,0.265-0.45,0.533c0,0.241,0.157,0.445,0.375,0.515l-0.436,6.096   l0.601,1.803l0.602-1.803l-0.435-6.096c0.217-0.071,0.375-0.274,0.375-0.515c0-0.268-0.195-0.489-0.45-0.533l-0.043-0.604   l1.041,0.604l0.043,0.024l0.825,0.479l-0.225,2.879l0.192,0.071c-0.235,0.686-0.415,1.427-0.483,2.246   c-0.148,0.607-0.235,1.239-0.235,1.891h0.014c0,0.007-0.001,0.011-0.001,0.016c-0.009,0.001-0.019,0.001-0.028,0.003   c-0.565,0.099-0.823,1.304-0.573,2.693c0.226,1.277,0.802,2.264,1.333,2.338c0.676,1.817,1.745,3.582,3.067,4.875   c0.749,0.73,1.577,1.309,2.462,1.661c0.608,0.24,1.241,0.374,1.895,0.374c0.652,0,1.286-0.134,1.893-0.374   c0.915-0.364,1.771-0.971,2.54-1.739c1.29-1.287,2.333-3.025,2.995-4.812c0.51-0.15,1.044-1.104,1.261-2.322   c0.237-1.323,0.012-2.477-0.496-2.669c0.017-0.323,0.028-0.649,0.028-0.983c-0.004-1.726-0.382-3.18-1.057-4.362l-0.151-1.517   l0.884-0.512l0.449-0.258l1.877-1.087c0.117-0.117,0.117-0.307,0-0.424l-9.98-4.153c-0.117-0.117-0.309-0.117-0.423,0l-9.981,4.153   c-0.117,0.117-0.117,0.307,0,0.424L40.506,25.436z M42.626,35.159c0.055-0.163,0.129-0.291,0.224-0.358   c0.039-0.028,0.083-0.048,0.128-0.056c0.105-0.019,0.216,0.022,0.323,0.108c0.001,0,0.001,0,0.001,0   c0-0.009,0.001-0.017,0.001-0.026c0.037-0.361,0.517-3.507,3.546-3.228c0,0,1.044,0.383,2.418,0.457   c0.619,0.211,0.896,0.186,1.619-0.085c0.345-0.057,0.691-0.134,1.036-0.257c0.26-0.006,0.513-0.008,0.746,0   c1.002,0.038,1.688,0.555,2.404,0.891c-0.026-0.331-0.279-0.669-0.267-0.891c0.114,0.033,0.219,0.082,0.318,0.136   c0.516,0.55,1.019,1.474,1.415,2.983c0.002,0.005,0.002,0.012,0.002,0.02c0.001-0.001,0.001-0.002,0.003-0.003   c0,0,0.001,0,0.001,0.002l0.004-0.007c0.106-0.082,0.212-0.12,0.314-0.102c0.026,0.004,0.051,0.013,0.075,0.025   c0.332,0.155,0.473,0.926,0.316,1.806c-0.12,0.676-0.384,1.231-0.665,1.469c-0.111,0.095-0.226,0.139-0.336,0.12   c-0.063-0.011-0.117-0.042-0.168-0.088c-0.612,1.906-1.781,3.806-3.254,4.959c-0.879,0.688-1.867,1.11-2.91,1.11   c-1.022,0-1.99-0.404-2.855-1.066c-1.5-1.148-2.689-3.072-3.311-5.003c-0.051,0.047-0.105,0.078-0.168,0.088   c-0.127,0.022-0.261-0.042-0.39-0.17c-0.259-0.261-0.498-0.787-0.61-1.418c-0.008-0.042-0.011-0.081-0.017-0.123   C42.577,36.011,42.598,35.582,42.626,35.159z"></path><circle cx="21.317" cy="61.717" r="0.832"></circle><path d="M14.197,31.577l-0.036,0.493c-0.191,0.032-0.337,0.198-0.337,0.399c0,0.181,0.118,0.334,0.282,0.386l-0.327,4.572   l0.451,1.353l0.451-1.353l-0.327-4.572c0.163-0.054,0.281-0.206,0.281-0.386c0-0.201-0.146-0.367-0.337-0.399l-0.033-0.454   l0.782,0.453l0.032,0.018l0.619,0.358l-0.169,2.16l0.144,0.053c-0.176,0.514-0.311,1.07-0.363,1.685   c-0.111,0.456-0.176,0.93-0.176,1.418h0.01c0,0.004,0,0.008,0,0.012c-0.007,0.001-0.014,0.001-0.021,0.002   c-0.424,0.074-0.618,0.979-0.43,2.02c0.169,0.958,0.602,1.698,1,1.754c0.507,1.362,1.309,2.687,2.3,3.656   c0.562,0.547,1.183,0.981,1.847,1.245c0.457,0.18,0.931,0.28,1.42,0.28c0.489,0,0.965-0.1,1.42-0.28   c0.687-0.272,1.328-0.728,1.905-1.304c0.967-0.965,1.75-2.269,2.246-3.609c0.382-0.112,0.783-0.828,0.946-1.741   c0.178-0.992,0.009-1.857-0.372-2.002c0.013-0.242,0.021-0.487,0.021-0.737c-0.003-1.294-0.287-2.385-0.793-3.272l-0.113-1.138   l0.663-0.384l0.337-0.193l1.407-0.815c0.088-0.088,0.088-0.23,0-0.319l-7.485-3.114c-0.087-0.087-0.231-0.087-0.316,0l-7.486,3.114   c-0.088,0.088-0.088,0.23,0,0.319L14.197,31.577z M15.787,38.869c0.041-0.122,0.097-0.218,0.168-0.268   c0.029-0.021,0.062-0.037,0.095-0.042c0.08-0.014,0.163,0.017,0.243,0.082c0.001,0,0.001,0,0.001,0c0-0.007,0-0.013,0-0.02   c0.028-0.271,0.388-2.63,2.661-2.42c0,0,0.783,0.287,1.813,0.343c0.464,0.158,0.672,0.139,1.213-0.064   c0.259-0.042,0.52-0.1,0.778-0.193c0.194-0.004,0.385-0.005,0.559,0.001c0.751,0.028,1.266,0.417,1.803,0.667   c-0.02-0.248-0.209-0.501-0.2-0.667c0.086,0.024,0.165,0.062,0.239,0.102c0.386,0.413,0.764,1.105,1.062,2.237   c0,0.004,0,0.01,0,0.015c0.001,0,0.001-0.001,0.002-0.002c0,0,0.001,0,0.001,0.001l0.003-0.005c0.08-0.062,0.159-0.09,0.236-0.077   c0.02,0.003,0.038,0.01,0.057,0.019c0.248,0.116,0.354,0.694,0.236,1.354c-0.09,0.507-0.288,0.923-0.499,1.102   c-0.083,0.071-0.169,0.104-0.252,0.09c-0.046-0.009-0.088-0.031-0.126-0.066c-0.459,1.429-1.336,2.854-2.44,3.719   c-0.66,0.516-1.4,0.832-2.183,0.832c-0.766,0-1.492-0.303-2.141-0.799c-1.125-0.861-2.017-2.303-2.483-3.751   c-0.038,0.035-0.079,0.058-0.126,0.066c-0.096,0.017-0.195-0.031-0.292-0.127c-0.194-0.196-0.373-0.589-0.457-1.064   c-0.006-0.032-0.008-0.061-0.013-0.092C15.75,39.509,15.765,39.187,15.787,38.869z"></path><circle cx="78.684" cy="61.717" r="0.832"></circle><path d="M91.728,70.903H68.51l0.084-0.396h21.713c0.863,0,1.563-0.699,1.563-1.563L95,54.213c0-0.863-0.701-1.564-1.565-1.564   h-2.033h-0.938h-3.91h-5.457h-1.725h-1.609h-1.656H66.7c-0.001,0-0.001-0.001-0.001-0.001h9.406h1.656h1.609h1.725h5.457h3.908   h0.94c-0.016-0.083-0.035-0.165-0.06-0.248c-1.448-4.983-4.124-5.153-4.701-5.288c-1.134-0.267-2.507-0.154-3.239-0.382   c-0.128,1.073-2.192,1.926-4.721,1.926c-2.529,0-4.594-0.853-4.722-1.926c-0.732,0.229-2.107,0.115-3.241,0.382   c-0.54,0.125-2.93,0.285-4.418,4.417c-1.993-4.999-4.991-5.218-5.688-5.381c-1.513-0.355-3.343-0.204-4.32-0.509   c-0.17,1.431-2.923,2.567-6.295,2.567c-3.372,0-6.124-1.137-6.296-2.567c-0.976,0.305-2.808,0.153-4.32,0.509   c-0.697,0.163-3.693,0.382-5.687,5.38c-1.488-4.132-3.876-4.29-4.417-4.417c-1.134-0.267-2.507-0.154-3.24-0.382   c-0.127,1.073-2.192,1.926-4.721,1.926c-2.528,0-4.593-0.853-4.723-1.926c-0.732,0.229-2.105,0.115-3.24,0.382   c-0.576,0.134-3.252,0.305-4.7,5.288c-0.024,0.083-0.043,0.165-0.06,0.248H18.74h1.656h1.608h1.727h5.457h3.908h0.197l0,0.001   h-0.196h-3.909H23.73h-1.727h-1.608H18.74H8.593H6.565c-0.864,0-1.565,0.7-1.565,1.564l3.13,14.731   c-0.001,0.864,0.7,1.563,1.565,1.563h21.713l0.084,0.396H8.275c-0.368,0-0.665,0.302-0.665,0.671s0.297,0.67,0.665,0.67h23.502   l0.64,3.014c-0.001,1.153,0.934,2.087,2.087,2.087h30.993c1.151,0,2.087-0.934,2.087-2.087l0.641-3.014h23.503   c0.364,0,0.663-0.3,0.663-0.67C92.391,71.205,92.092,70.903,91.728,70.903z M76.274,52.9h1.471h1.645h1.523h5.52h4.151h0.854h1.858   c0.855,0,1.549,0.687,1.549,1.532l-3.131,14.29c0,0.847-0.693,1.533-1.551,1.533H68.647l3.109-14.638   c0-1.151-0.935-2.086-2.087-2.086h-2.712h-1.252h-2.854c0,0,0-0.001,0.001-0.001h2.852h1.254c-0.021-0.11-0.047-0.222-0.079-0.331   c-0.03-0.105-0.065-0.196-0.097-0.3H76.274z M46.563,53.531h2.208h2.145h2.301h7.276h2.044l-0.001,0.001h-2.043h-7.276h-2.301   h-2.145L46.563,53.531l-9.101,0.001l-0.001-0.001H46.563z M9.837,70.256c-0.856,0-1.55-0.687-1.55-1.533l-3.13-14.29   c0-0.846,0.694-1.532,1.55-1.532h1.85h10.353h1.47h1.645h1.523h5.52h4.143c-0.032,0.104-0.066,0.194-0.097,0.3   c-0.032,0.109-0.058,0.221-0.079,0.331h4.114c0,0,0,0.001,0.001,0.001h-4.115h-2.704c-1.152,0-2.087,0.933-2.087,2.086   l3.111,14.638H9.837z M67.971,72.244l-0.595,2.72c0,1.129-0.926,2.044-2.068,2.044H34.693c-1.142,0-2.067-0.915-2.067-2.044   l-0.596-2.72l-0.294-1.341l-0.086-0.396l-0.056-0.252l-3.143-14.344c0-1.129,0.925-2.044,2.066-2.044h2.467h4.378h0.201h9.224h1.96   h2.193h2.032h7.359h2.103h0.201h3.231h1.138h2.477c1.142,0,2.066,0.915,2.066,2.044l-3.143,14.344l-0.055,0.252l-0.087,0.396   L67.971,72.244z"></path><path d="M71.563,31.577l-0.035,0.493c-0.191,0.032-0.336,0.198-0.336,0.399c0,0.181,0.117,0.334,0.279,0.386l-0.325,4.572   l0.45,1.353l0.452-1.353l-0.326-4.572c0.162-0.054,0.279-0.206,0.279-0.386c0-0.201-0.145-0.367-0.336-0.399l-0.033-0.454   l0.78,0.453l0.032,0.018l0.62,0.358l-0.17,2.16l0.144,0.053c-0.177,0.514-0.312,1.07-0.362,1.685   c-0.111,0.456-0.177,0.93-0.177,1.418h0.011c0,0.004,0,0.008,0,0.012c-0.008,0.001-0.015,0.001-0.022,0.002   c-0.423,0.074-0.616,0.979-0.43,2.02c0.169,0.958,0.603,1.698,0.999,1.754c0.507,1.362,1.311,2.687,2.302,3.656   c0.562,0.547,1.183,0.981,1.846,1.245c0.457,0.18,0.932,0.28,1.421,0.28s0.965-0.1,1.419-0.28c0.687-0.272,1.33-0.728,1.906-1.304   c0.968-0.965,1.749-2.269,2.246-3.609c0.383-0.112,0.783-0.828,0.946-1.741c0.178-0.992,0.008-1.857-0.373-2.002   c0.014-0.242,0.022-0.487,0.022-0.737c-0.003-1.294-0.287-2.385-0.794-3.272l-0.113-1.138l0.663-0.384l0.337-0.193l1.407-0.815   c0.088-0.088,0.088-0.23,0-0.319l-7.484-3.114c-0.087-0.087-0.231-0.087-0.317,0l-7.485,3.114c-0.087,0.088-0.087,0.23,0,0.319   L71.563,31.577z M73.152,38.869c0.042-0.122,0.099-0.218,0.168-0.268c0.03-0.021,0.063-0.037,0.097-0.042   c0.079-0.014,0.161,0.017,0.242,0.082c0,0,0,0,0.002,0c0-0.007,0-0.013,0-0.02c0.028-0.271,0.388-2.63,2.66-2.42   c0,0,0.783,0.287,1.812,0.343c0.466,0.158,0.675,0.139,1.215-0.064c0.258-0.042,0.519-0.1,0.778-0.193   c0.193-0.004,0.384-0.005,0.559,0.001c0.752,0.028,1.266,0.417,1.803,0.667c-0.019-0.248-0.21-0.501-0.199-0.667   c0.085,0.024,0.163,0.062,0.238,0.102c0.387,0.413,0.764,1.105,1.062,2.237c0.002,0.004,0.002,0.01,0.002,0.015   c0,0,0-0.001,0.001-0.002c0,0,0.002,0,0.002,0.001l0.003-0.005c0.079-0.062,0.159-0.09,0.235-0.077   c0.02,0.003,0.038,0.01,0.057,0.019c0.249,0.116,0.354,0.694,0.236,1.354c-0.09,0.507-0.287,0.923-0.498,1.102   c-0.084,0.071-0.17,0.104-0.252,0.09c-0.047-0.009-0.089-0.031-0.126-0.066c-0.459,1.429-1.336,2.854-2.44,3.719   c-0.659,0.516-1.4,0.832-2.183,0.832c-0.766,0-1.491-0.303-2.141-0.799c-1.125-0.861-2.017-2.303-2.481-3.751   c-0.039,0.035-0.081,0.058-0.126,0.066c-0.096,0.017-0.197-0.031-0.294-0.127c-0.194-0.196-0.374-0.589-0.458-1.064   c-0.005-0.032-0.009-0.061-0.013-0.092C73.116,39.509,73.131,39.187,73.152,38.869z"></path></g></svg>