<svg xmlns="http://www.w3.org/2000/svg" xmlns:xlink="http://www.w3.org/1999/xlink" version="1.1" x="0px" y="0px" viewBox="0 0 23.506 23.507" style="enable-background:new 0 0 23.506 23.507;" xml:space="preserve"><g><path d="M23.42,3.622l-2.574,2.574l-2.898-0.637l-0.637-2.899l2.574-2.574c-1.424-0.282-2.955,0.127-4.059,1.23   c-1.385,1.384-1.662,3.436-0.867,5.108L6.424,14.96c-1.67-0.795-3.725-0.517-5.107,0.866c-1.103,1.103-1.512,2.636-1.23,4.059   l2.574-2.574l2.898,0.637l0.637,2.899L3.621,23.42c1.424,0.282,2.955-0.127,4.059-1.231c1.385-1.383,1.662-3.436,0.867-5.108   l8.533-8.535c1.672,0.795,3.726,0.517,5.109-0.865C23.293,6.578,23.701,5.045,23.42,3.622z"></path><polygon points="16.754,13.753 16.754,16.753 13.754,16.753 13.754,18.753 16.754,18.753 16.754,21.753 18.754,21.753    18.754,18.753 21.754,18.753 21.754,16.753 18.754,16.753 18.754,13.753  "></polygon></g></svg>