<svg fill="#FFFFFF" xmlns="http://www.w3.org/2000/svg" xmlns:xlink="http://www.w3.org/1999/xlink" version="1.1" x="0px" y="0px" viewBox="0 0 100 100" enable-background="new 0 0 100 100" xml:space="preserve"><path d="M93.586,78.556L75.795,15.958c-0.422-1.48-2.011-2.408-3.555-1.981l-13.755,3.909c-1.86,0.708-2.423,1.739-1.98,3.555  l17.791,62.599c0.351,1.23,1.49,2.089,2.771,2.089c0.261,0,0.521-0.036,0.782-0.108l13.756-3.91  c0.735-0.209,1.347-0.694,1.722-1.367c0.001,0,0.001,0,0.001-0.001C93.702,80.069,93.794,79.294,93.586,78.556z M71.259,27.246  l-4.962,1.411c-0.448,0.124-0.96-0.152-1.089-0.608l-1.411-4.962c-0.11-0.352-0.032-0.837,0.608-1.089c0,0,5.12-1.444,5.203-1.444  c0.392,0,0.74,0.265,0.848,0.642l1.41,4.961C72,26.624,71.727,27.113,71.259,27.246z M72.609,66.873  c-0.185-0.65,0.108-1.285,0.758-1.47l10.736-3.051c0.652-0.18,1.328,0.192,1.514,0.844c0.185,0.65-0.193,1.328-0.844,1.514  c0,0-10.854,3.092-10.965,3.092C73.275,67.801,72.762,67.412,72.609,66.873z M74.328,72.592c-0.185-0.65,0.108-1.285,0.758-1.47  l10.736-3.051c0.652-0.18,1.328,0.192,1.514,0.844c0.185,0.65-0.193,1.328-0.844,1.514c0,0-10.854,3.092-10.965,3.092  C74.994,73.52,74.481,73.131,74.328,72.592z M88.117,75.678c0,0-10.854,3.092-10.965,3.092c-0.533,0-1.046-0.389-1.199-0.928  c-0.185-0.65,0.108-1.285,0.758-1.47l10.736-3.051c0.652-0.18,1.328,0.192,1.514,0.844C89.145,74.814,88.767,75.492,88.117,75.678z   M49.998,14.635H35.681c-1.586,0-2.876,1.29-2.876,2.877v64.973c0,1.587,1.29,2.877,2.876,2.877h14.316  c1.586,0,2.876-1.29,2.876-2.877V17.512C52.874,15.925,51.584,14.635,49.998,14.635z M39.293,20.904  c0-0.487,0.396-0.884,0.883-0.884h5.328c0.487,0,0.884,0.396,0.884,0.884v5.328c0,0.487-0.396,0.884-0.884,0.884h-5.328  c-0.486,0-0.883-0.396-0.883-0.884V20.904z M47.345,78.387h-9.637c-0.677,0-1.225-0.548-1.225-1.225s0.548-1.225,1.225-1.225h9.637  c0.677,0,1.225,0.548,1.225,1.225S48.022,78.387,47.345,78.387z M47.345,72.88h-9.637c-0.677,0-1.225-0.548-1.225-1.225  s0.548-1.225,1.225-1.225h9.637c0.677,0,1.225,0.548,1.225,1.225S48.022,72.88,47.345,72.88z M47.345,67.374h-9.637  c-0.677,0-1.225-0.548-1.225-1.225s0.548-1.225,1.225-1.225h9.637c0.677,0,1.225,0.548,1.225,1.225S48.022,67.374,47.345,67.374z   M23.498,14.635H9.181c-1.586,0-2.876,1.29-2.876,2.877v64.973c0,1.587,1.29,2.877,2.876,2.877h14.316  c1.586,0,2.876-1.29,2.876-2.877V17.512C26.374,15.925,25.084,14.635,23.498,14.635z M12.793,20.904  c0-0.487,0.396-0.884,0.883-0.884h5.328c0.487,0,0.884,0.396,0.884,0.884v5.328c0,0.487-0.396,0.884-0.884,0.884h-5.328  c-0.486,0-0.883-0.396-0.883-0.884V20.904z M20.845,78.387h-9.637c-0.677,0-1.225-0.548-1.225-1.225s0.548-1.225,1.225-1.225h9.637  c0.677,0,1.225,0.548,1.225,1.225S21.522,78.387,20.845,78.387z M20.845,72.88h-9.637c-0.677,0-1.225-0.548-1.225-1.225  s0.548-1.225,1.225-1.225h9.637c0.677,0,1.225,0.548,1.225,1.225S21.522,72.88,20.845,72.88z M20.845,67.374h-9.637  c-0.677,0-1.225-0.548-1.225-1.225s0.548-1.225,1.225-1.225h9.637c0.677,0,1.225,0.548,1.225,1.225S21.522,67.374,20.845,67.374z"></path></svg>