<svg xmlns="http://www.w3.org/2000/svg" xmlns:xlink="http://www.w3.org/1999/xlink" version="1.1" x="0px" y="0px" viewBox="0 0 26 22" style="enable-background:new 0 0 26 22;" xml:space="preserve"><g><path d="M8,0H0v22h8V0z M4,20c-1.104,0-2-0.896-2-2c0-1.104,0.896-2,2-2c1.104,0,2,0.896,2,2C6,19.104,5.104,20,4,20z M6,8H2V7h4V8   z M6,6H2V5h4V6z M6,4H2V3h4V4z"></path><path d="M17,0H9v22h8V0z M13,20c-1.104,0-2-0.896-2-2c0-1.104,0.896-2,2-2c1.104,0,2,0.896,2,2C15,19.104,14.104,20,13,20z M15,8   h-4V7h4V8z M15,6h-4V5h4V6z M15,4h-4V3h4V4z"></path><path d="M26,0h-8v22h8V0z M22,20c-1.104,0-2-0.896-2-2c0-1.104,0.896-2,2-2c1.104,0,2,0.896,2,2C24,19.104,23.104,20,22,20z M24,8   h-4V7h4V8z M24,6h-4V5h4V6z M24,4h-4V3h4V4z"></path></g></svg>