<svg fill="#FFFFFF" xmlns="http://www.w3.org/2000/svg" xmlns:xlink="http://www.w3.org/1999/xlink" version="1.1" x="0px" y="0px" viewBox="0 0 164.742 235.662" style="enable-background:new 0 0 164.742 235.662;" xml:space="preserve"><g><path d="M47.212,82.697c11.684-5.189,8.658-32.062,3.469-43.746c-5.19-11.683-18.869-16.945-30.551-11.754   C8.446,32.386,3.185,46.066,8.372,57.748C13.564,69.429,35.532,87.889,47.212,82.697z M35.368,39.295   c3.654-1.523,8.867,2.646,11.644,9.311c2.777,6.664,2.066,13.302-1.588,14.824c-3.652,1.521-8.869-2.648-11.645-9.31   C31.005,47.456,31.714,40.816,35.368,39.295z"></path><path d="M17.815,107.591c-1.43-1.638-2.123-3.7-1.978-5.833c0.145-2.131,1.112-4.078,2.726-5.483c1.457-1.27,3.322-1.97,5.254-1.97   c2.301,0,4.493,0.99,6.011,2.72c0.101,0.108,0.199,0.213,0.333,0.348c0.452,0.461,0.949,0.931,1.481,1.401   c1.272,1.131,3.376,2.838,6.174,4.555c0.396,0.243,0.803,0.454,1.204,0.683c0.692-7.895-2.732-15.904-9.289-17.537   c-7.732-1.929-18.939,2.271-23.5,15.531c-6.162,18.271-7.487,30.163-5.145,50.282c2.363,12.157,9.702,15.216,16.887,15.837   c1.488,5.583,2.809,12.882,2.792,21.179c-0.004,9.832-1.792,21.043-7.249,32.871c-2.2,4.763-0.122,10.408,4.643,12.608   c1.289,0.595,2.643,0.877,3.976,0.877c3.591,0,7.027-2.046,8.632-5.52c6.739-14.584,9.005-28.687,8.999-40.837   c-0.027-15.751-3.703-28.24-6.358-35.235c-1.353-10.932,0.408-23.079,2.429-33.694c-2.424-1.119-4.566-2.291-6.384-3.407   C22.715,112.831,18.841,108.745,17.815,107.591z"></path><path d="M94.243,108.851c-1.406-3.002-4.979-4.293-7.979-2.885c-9.509,4.452-17.796,6.021-24.954,6.027   c-10.565-0.002-18.832-3.465-24.539-6.959c-2.844-1.743-5.024-3.49-6.456-4.763c-0.717-0.636-1.244-1.154-1.577-1.492   c-0.166-0.17-0.282-0.294-0.35-0.366c-0.033-0.037-0.053-0.059-0.061-0.069l-0.001,0.001c-2.181-2.483-5.959-2.736-8.45-0.563   c-2.499,2.178-2.758,5.968-0.578,8.465h-0.003c0.286,0.321,4.101,4.655,11.203,9.017c7.084,4.35,17.563,8.73,30.811,8.729   c0.013,0,0.027,0,0.041,0c8.937,0,19.059-2.022,30.009-7.163C94.359,115.423,95.651,111.85,94.243,108.851z"></path><ellipse transform="matrix(0.9739 -0.2268 0.2268 0.9739 -2.0833 26.8681)" cx="115.879" cy="22.5" rx="22.495" ry="22.494"></ellipse><path d="M150.482,135.911c0.018-0.046,0.034-0.083,0.052-0.128c5.854-1.821,11.023-6.216,13.008-16.431   c2.586-22.218,1.123-35.349-5.682-55.522c-5.035-14.643-17.41-19.277-25.947-17.15c-2.33,0.582-4.301,1.896-5.881,3.696   c-0.723,0.692-1.32,1.519-1.746,2.453c-1.86,3.219-2.813,7.302-2.736,11.469c-1.208,4.321-3.009,9.667-5.584,14.967   c-2.771,5.747-6.426,11.391-10.932,15.709c-4.427,4.23-9.508,7.222-15.898,8.446c2.961,0.124,5.653,1.885,6.918,4.582   c0.908,1.933,1.008,4.104,0.282,6.115c-0.726,2.008-2.192,3.616-4.127,4.522c-0.539,0.253-1.08,0.496-1.619,0.737   c0.28-0.019,0.561-0.048,0.843-0.097c10.435-1.798,18.912-6.999,25.301-13.366c4.004-3.994,7.276-8.416,9.981-12.913   c1.47,9.547,2.318,19.658,1.074,28.934c-0.079,1.341-0.112,2.56-0.101,3.671c-2.929,7.049-9.163,24.884-9.188,49.559   c-0.002,15.22,2.421,33.025,9.519,52.176c1.867,5.041,6.642,8.161,11.722,8.161c1.442,0,2.91-0.252,4.341-0.782   c6.474-2.398,9.778-9.59,7.381-16.064c-5.983-16.162-7.959-30.897-7.961-43.491c-0.002-12.956,2.115-23.63,4.189-30.952   C148.729,140.558,149.752,137.74,150.482,135.911z M153.388,65.74c6.412,9.387,9.807,19.873,9.819,30.329   c0.03,11.153-3.937,22.684-11.471,33.339c-1.868,2.653-4.927,4.241-8.182,4.241c-2.066,0-4.054-0.63-5.749-1.823   c-2.185-1.539-3.642-3.835-4.099-6.467c-0.458-2.633,0.138-5.284,1.677-7.467c5.232-7.473,7.792-14.616,7.821-21.83   c0.01-7.856-3.269-14.441-6.023-18.579c-3.168-4.787-6.472-7.611-6.503-7.64c-4.237-3.526-4.826-9.828-1.33-14.06   c1.907-2.312,4.719-3.636,7.716-3.636c2.315,0,4.575,0.813,6.363,2.289C144.689,55.501,149.009,59.351,153.388,65.74z"></path><path d="M130.891,57.055c-2.805,3.398-2.332,8.423,1.05,11.238l-0.001,0.001c0.086,0.063,3.605,3.093,6.908,8.081   c3.331,5.011,6.367,11.791,6.356,19.695c-0.026,6.496-1.917,14.02-8.186,22.973c-2.544,3.611-1.677,8.604,1.936,11.147   c1.399,0.985,3.007,1.459,4.598,1.459c2.515,0,4.991-1.182,6.548-3.396c7.935-11.221,11.13-22.335,11.104-32.183   c-0.015-12.441-4.847-22.434-9.468-29.199c-4.655-6.793-9.198-10.565-9.585-10.892C138.746,53.166,133.704,53.648,130.891,57.055z"></path></g></svg>