<svg fill="#FFFFFF" xmlns="http://www.w3.org/2000/svg" xmlns:xlink="http://www.w3.org/1999/xlink" version="1.1" x="0px" y="0px" viewBox="0 0 100 100" enable-background="new 0 0 100 100" xml:space="preserve"><g><g><path d="M70,25.2C70,25.2,70,25.1,70,25.2C70.7,14.1,62.4,4.7,51.4,4s-20.5,7.7-21.1,18.6c0,0,0,0,0,0.1l-15-0.9l-4.4,69.9    L80.6,96L85,26.1L70,25.2z M32.2,22.8c0.6-9.9,9.1-17.4,19-16.8s17.4,9.1,16.8,19c0,0,0,0,0,0.1L32.2,22.8    C32.2,22.8,32.2,22.8,32.2,22.8z"></path><polygon points="86.1,26.2 81.7,96.1 89.2,88.5   "></polygon></g><path d="M56.5,4.3c11,0.7,19.3,10.2,18.6,21.1c0,0,0,0,0,0.1l-2-0.1c0,0,0,0,0-0.1c0.6-9.9-6.9-18.4-16.8-19s-18.4,6.9-19,16.8   c0,0,0,0,0,0.1l-2-0.1c0,0,0,0,0-0.1C36,12,45.5,3.6,56.5,4.3z"></path></g></svg>