<svg xmlns="http://www.w3.org/2000/svg" xmlns:xlink="http://www.w3.org/1999/xlink" version="1.2" baseProfile="tiny" x="0px" y="0px" viewBox="0 0 100 100" xml:space="preserve"><path d="M92.5,47.5c0-7.894-4.089-14.846-10.257-18.863C83.973,26.192,85,23.216,85,20c0-8.271-6.729-15-15-15s-15,6.729-15,15  c0,3.216,1.027,6.192,2.757,8.637C51.589,32.654,47.5,39.606,47.5,47.5v5h45V47.5z M70,10c5.514,0,10,4.486,10,10s-4.486,10-10,10  s-10-4.486-10-10S64.486,10,70,10z M52.5,47.5c0-6.525,3.596-12.217,8.904-15.226C63.841,33.986,66.802,35,70,35  s6.159-1.014,8.596-2.726C83.904,35.283,87.5,40.975,87.5,47.5H52.5z"></path><path d="M43.592,91.902C47.066,93.929,51.028,95,55.051,95c6.074,0,11.784-2.365,16.08-6.66c4.107-4.107,6.369-9.569,6.369-15.378  v-3.811l-22.028-8.26l-5.989,5.989c-6.298-4.579-11.785-10.065-16.363-16.363l5.989-5.989L30.849,22.5h-3.811  c-5.809,0-11.271,2.262-15.378,6.369v0C7.365,33.165,5,38.875,5,44.949c0,4.022,1.071,7.985,3.098,11.458  C16.653,71.073,28.927,83.347,43.592,91.902z M16.964,34.172L16.964,34.172c2.367-2.367,5.42-3.798,8.711-4.108l4.716,12.575  l-6.967,6.966l1.706,2.558c6.027,9.04,13.667,16.68,22.707,22.707l2.558,1.706l6.966-6.967l12.575,4.716  c-0.31,3.291-1.742,6.345-4.108,8.711c-2.879,2.878-6.707,4.464-10.777,4.464c-2.696,0-5.351-0.718-7.679-2.076  C33.821,77.52,22.48,66.179,14.576,52.628C13.218,50.3,12.5,47.645,12.5,44.949C12.5,40.879,14.085,37.051,16.964,34.172z"></path></svg>