<svg xmlns="http://www.w3.org/2000/svg" xmlns:xlink="http://www.w3.org/1999/xlink" version="1.1" x="0px" y="0px" viewBox="0 0 48 48" enable-background="new 0 0 48 48" xml:space="preserve"><g><path d="M4,0v48h40V0H4z M12,1c0.553,0,1,0.447,1,1s-0.447,1-1,1s-1-0.447-1-1S11.447,1,12,1z M9,1c0.553,0,1,0.447,1,1   S9.553,3,9,3S8,2.553,8,2S8.447,1,9,1z M6,1c0.553,0,1,0.447,1,1S6.553,3,6,3S5,2.553,5,2S5.447,1,6,1z M43,47H5V4h38V47z"></path><rect x="21" y="34" width="9" height="2"></rect><rect x="21" y="40" width="13" height="1"></rect><rect x="21" y="38" width="15" height="1"></rect><rect x="21" y="42" width="15" height="1"></rect><rect x="21" y="21" width="9" height="2"></rect><rect x="21" y="27" width="13" height="1"></rect><rect x="21" y="25" width="15" height="1"></rect><rect x="21" y="29" width="15" height="1"></rect><rect x="21" y="8" width="9" height="2"></rect><rect x="21" y="14" width="13" height="1"></rect><rect x="21" y="12" width="15" height="1"></rect><rect x="21" y="16" width="15" height="1"></rect><path d="M14.5,17c2.485,0,4.5-2.015,4.5-4.5S16.985,8,14.5,8S10,10.015,10,12.5S12.015,17,14.5,17z M14.5,9   c1.934,0,3.5,1.567,3.5,3.5S16.434,16,14.5,16S11,14.433,11,12.5S12.566,9,14.5,9z"></path><polygon points="15,10 14,10 14,12 12,12 12,13 15,13  "></polygon><path d="M14.5,30c2.485,0,4.5-2.015,4.5-4.5S16.985,21,14.5,21S10,23.015,10,25.5S12.015,30,14.5,30z M14.5,22   c1.934,0,3.5,1.567,3.5,3.5S16.434,29,14.5,29S11,27.433,11,25.5S12.566,22,14.5,22z"></path><polygon points="15,23 14,23 14,25 12,25 12,26 15,26  "></polygon><path d="M14.5,43c2.485,0,4.5-2.015,4.5-4.5S16.985,34,14.5,34S10,36.015,10,38.5S12.015,43,14.5,43z M14.5,35   c1.934,0,3.5,1.567,3.5,3.5S16.434,42,14.5,42S11,40.433,11,38.5S12.566,35,14.5,35z"></path><polygon points="15,36 14,36 14,38 12,38 12,39 15,39  "></polygon></g></svg>