<svg fill="#FFFFFF" xmlns="http://www.w3.org/2000/svg" xmlns:xlink="http://www.w3.org/1999/xlink" version="1.1" x="0px" y="0px" viewBox="0 0 100 100" enable-background="new 0 0 100 100" xml:space="preserve"><g><path d="M16.853,86.154h75.059v-2.788c-2.967-4.158-3.554-9.708,0-14.697v-2.788h-8.795c11.726,0,11.726-20.273,0-20.273h3.012   v-2.182c-2.557-3.254-3.064-7.597,0-11.502V29.74H21.422c-10.109,0-10.108,15.868,0,15.868H8.058v2.788   c3.554,4.99,2.967,10.539,0,14.697v2.788h8.795C5.127,65.881,5.127,86.155,16.853,86.154z M19.273,43.149   c-0.333-0.126-0.638-0.273-0.926-0.434h-0.045c-0.226-0.129-0.443-0.275-0.648-0.434h0.014c-4.249-3.144-2.293-10.358,3.289-10.358   h64.708c-0.226,0.308-0.433,0.617-0.62,0.926v0H21.075c-0.541,0.14-1.039,0.368-1.491,0.661h65.037   c-0.077,0.144-0.15,0.289-0.219,0.434H19.009c-0.287,0.247-0.55,0.521-0.786,0.819h65.84c-0.053,0.144-0.1,0.289-0.144,0.434   H17.908c-0.174,0.262-0.33,0.535-0.466,0.819h66.269c-0.028,0.145-0.053,0.289-0.075,0.434H17.252   c-0.106,0.268-0.194,0.542-0.265,0.819h66.574c-0.006,0.146-0.01,0.29-0.009,0.435H16.891c-0.051,0.272-0.085,0.546-0.101,0.819   h66.808c0.014,0.145,0.034,0.289,0.056,0.433H16.78c0.003,0.277,0.026,0.551,0.068,0.819h66.973   c0.038,0.145,0.078,0.29,0.123,0.434H16.936c0.069,0.282,0.162,0.556,0.28,0.819h67.027c0.061,0.146,0.126,0.291,0.194,0.434h-67   c0.173,0.295,0.382,0.569,0.628,0.819h66.811c0.088,0.146,0.179,0.292,0.274,0.434H18.557   C18.775,42.877,19.012,43.022,19.273,43.149z M9.587,62.185c0.111-0.182,0.216-0.367,0.318-0.555h77.499   c0.284-0.319,0.527-0.669,0.727-1.046H10.413c0.08-0.184,0.155-0.369,0.225-0.555h77.751c0.136-0.336,0.244-0.685,0.325-1.046   H10.984c0.052-0.184,0.099-0.368,0.143-0.554h77.688c0.049-0.343,0.076-0.693,0.079-1.047H11.323   c0.027-0.184,0.049-0.37,0.066-0.555h77.494c-0.019-0.348-0.058-0.698-0.117-1.045H11.442c0-0.185-0.003-0.37-0.01-0.555h77.223   c-0.083-0.355-0.185-0.705-0.308-1.047H11.341c-0.024-0.184-0.053-0.369-0.087-0.555h76.872c-0.157-0.362-0.338-0.711-0.54-1.045   H11.015c-0.051-0.186-0.107-0.37-0.167-0.555h76.373c-0.274-0.381-0.579-0.732-0.912-1.046H10.454   c-0.08-0.185-0.165-0.37-0.255-0.554h75.442c-0.524-0.375-1.101-0.666-1.729-0.844H9.711c-0.217-0.395-0.456-0.79-0.719-1.184   h75.059c6.475,0,8.744,9.216,3.816,13.234h0.016c-0.239,0.204-0.49,0.39-0.753,0.555h-0.051c-0.335,0.206-0.69,0.395-1.077,0.556   c0.302-0.162,0.579-0.349,0.831-0.556H9.587z M15.92,68.669h75.059c-0.263,0.394-0.502,0.789-0.719,1.184H16.059   c-0.628,0.178-1.205,0.469-1.729,0.844h75.442c-0.09,0.184-0.175,0.369-0.255,0.554H13.662c-0.333,0.315-0.638,0.666-0.912,1.046   h76.373c-0.06,0.185-0.116,0.369-0.167,0.555H12.384c-0.201,0.334-0.383,0.683-0.54,1.045h76.872   c-0.034,0.185-0.063,0.37-0.087,0.555H11.623c-0.123,0.342-0.226,0.693-0.308,1.047h77.223c-0.007,0.185-0.011,0.37-0.01,0.555   H11.205c-0.059,0.348-0.098,0.697-0.117,1.046h77.494c0.018,0.185,0.04,0.371,0.066,0.555H11.077   c0.004,0.354,0.03,0.703,0.079,1.047h77.688c0.043,0.186,0.09,0.37,0.143,0.554H11.258c0.08,0.361,0.188,0.711,0.325,1.046h77.75   c0.07,0.186,0.145,0.371,0.225,0.555H11.839c0.2,0.376,0.443,0.726,0.727,1.045h77.499c0.102,0.188,0.207,0.372,0.318,0.555H13.138   c0.252,0.207,0.529,0.393,0.831,0.556c-0.387-0.161-0.742-0.35-1.077-0.556h-0.051c-0.263-0.165-0.514-0.35-0.753-0.555h0.016   C7.176,77.885,9.445,68.669,15.92,68.669z"></path><path d="M72.039,13.845H22.077v2.182c2.366,3.905,1.975,8.248,0,11.503v2.182h49.962C79.845,29.713,79.846,13.845,72.039,13.845z    M23.151,26.853h51.587c0.189-0.25,0.351-0.524,0.485-0.819H23.49c0.053-0.144,0.102-0.289,0.15-0.435h51.753   c0.091-0.263,0.163-0.536,0.216-0.819h-51.74c0.034-0.144,0.067-0.289,0.096-0.435h51.712c0.033-0.268,0.05-0.542,0.053-0.818   H24.095c0.017-0.144,0.033-0.289,0.043-0.434h51.584c-0.012-0.273-0.038-0.547-0.078-0.819h-51.47c0-0.144-0.002-0.289-0.007-0.434   h51.404c-0.055-0.277-0.123-0.551-0.205-0.819H24.107c-0.016-0.145-0.035-0.289-0.058-0.434h51.17   c-0.105-0.284-0.225-0.557-0.359-0.819H23.89c-0.034-0.146-0.07-0.29-0.111-0.435h50.837c-0.182-0.298-0.385-0.572-0.607-0.818   H23.517c-0.054-0.146-0.11-0.29-0.169-0.435h50.216c-0.348-0.293-0.732-0.521-1.15-0.66H23.022   c-0.144-0.309-0.303-0.618-0.479-0.927h49.963c4.31,0,5.82,7.215,2.538,10.359h0.013c-0.159,0.16-0.326,0.305-0.501,0.433h-0.036   c-0.223,0.161-0.459,0.309-0.716,0.434c0.201-0.127,0.385-0.273,0.553-0.434H22.94C23.014,27.143,23.084,26.999,23.151,26.853z"></path></g></svg>