<svg fill="#FFFFFF" xmlns="http://www.w3.org/2000/svg" xmlns:xlink="http://www.w3.org/1999/xlink" version="1.1" x="0px" y="0px" viewBox="0 0 64 64" style="enable-background:new 0 0 64 64;" xml:space="preserve"><g><g><g><path d="M42,43.6c0.5,1,1.2,1.9,2.1,2.8c1,0.9,2.2,1.3,3.5,1.3c0,0,0,0,0,0l0.2,0c1.3,0,2.5-0.5,3.4-1.3c1-0.9,1.7-1.8,2.1-2.8     c1-2.1,1.5-4.2,1.5-6.2l0-0.2c0-0.2,0-0.5,0-0.7c-0.2-2.4-1.6-4.2-4-5.1c-1-0.4-2.1-0.6-3.2-0.6c-1.2,0-2.2,0.2-3.2,0.6     c-2.4,0.9-3.8,2.6-4,5.1c0,0.2,0,0.5,0,0.7l0,0.2C40.5,39.4,41,41.5,42,43.6z M47.9,46.5L47.9,46.5L47.9,46.5L47.9,46.5z"></path><path d="M61.2,52.9c-0.5-0.4-1.1-0.7-1.8-0.9c0,0-4.9-1.8-4.9-1.8c-1-0.4-2.1-0.5-3,0.2l-0.2,0.2c-0.3,0.3-0.5,0.6-0.6,0.8     c-0.1,0.1-0.1,0.2-0.2,0.2l-2.8,3.9l-0.4-0.5c-1-1.3-1.9-2.7-2.9-4c-0.1-0.1-0.1-0.2-0.2-0.3c-0.4-0.4-0.7-0.7-1.2-0.8l-0.4-0.1     L41.1,50l-5,1.9c-0.7,0.2-1.4,0.6-1.9,1c-1.7,1.3-1.6,2.9-1.6,3l0,3.9c0.1,0.5,0.2,0.9,0.3,1.3c0.6,1.5,1.9,2,2.9,2h23.8     c0.9,0,2.3-0.5,2.9-2c0.2-0.4,0.3-0.8,0.3-1.4l0-3.7C62.9,55.8,63,54.2,61.2,52.9z"></path></g></g><path d="M53.2,12.9c-2.3-2.4-5.3-3.9-8.9-4.5c-0.1,0-0.2,0-0.3-0.1c0.3-0.2,0.6-0.5,1-0.7L45,7.5c0.2-0.2,0.6-0.5,1.1-0.8   c0.4-0.3,0.8-0.6,1-0.8c0.3-0.2,0.4-0.5,0.5-0.8c0-0.3,0-0.7-0.3-0.9c-0.4-0.5-1.3-0.6-1.8-0.2c-0.2,0.2-0.6,0.5-1.1,0.8   c-0.4,0.3-0.8,0.6-1,0.8l-0.1,0.1c-0.8,0.6-1.6,1.2-2.4,1.8c-0.7,0.5-1,1.1-1.1,1.7c-0.1,0.4,0,1.1,0.6,1.9   c0.4,0.5,0.8,1.1,1.2,1.6c0.7,1,1.7,2.3,2.4,3.1c0.4,0.5,1.3,0.6,1.8,0.2c0.5-0.4,0.6-1.3,0.2-1.8c-0.6-0.8-1.6-2.1-2.3-3   c-0.1-0.1-0.1-0.2-0.2-0.2c0.1,0,0.2,0,0.3,0.1c3,0.5,5.6,1.8,7.5,3.8c2.8,3,4.3,7.5,4.3,13.4c0,0.7,0.6,1.3,1.3,1.3   s1.3-0.6,1.3-1.3C58.1,21.4,56.5,16.3,53.2,12.9z"></path><path d="M24,51.7c-0.7-1-1.7-2.3-2.4-3.1c-0.4-0.5-1.3-0.6-1.8-0.2c-0.5,0.4-0.6,1.3-0.2,1.8c0.6,0.8,1.6,2.1,2.3,3   c0.1,0.1,0.1,0.2,0.2,0.2c-0.1,0-0.2,0-0.4-0.1c-3-0.5-5.6-1.8-7.5-3.8c-2.8-3-4.3-7.5-4.3-13.4c0-0.7-0.6-1.3-1.3-1.3   c-0.7,0-1.3,0.6-1.3,1.3c0,6.6,1.7,11.7,5,15.2c2.3,2.4,5.3,3.9,8.9,4.5c0.1,0,0.2,0,0.3,0.1c-0.3,0.2-0.6,0.5-1,0.7l-0.1,0.1   c-0.2,0.2-0.6,0.5-1.1,0.8l-0.1,0.1c-0.4,0.3-0.7,0.5-1,0.7c-0.3,0.2-0.4,0.5-0.5,0.8c0,0.3,0,0.7,0.3,0.9c0.2,0.3,0.6,0.5,1,0.5   c0.3,0,0.6-0.1,0.8-0.3c0.2-0.2,0.6-0.5,1-0.8c0.4-0.3,0.8-0.6,1.1-0.8l0.1-0.1c0.8-0.6,1.6-1.2,2.4-1.8c0.7-0.5,1-1.1,1.1-1.7   c0.1-0.4,0-1.1-0.6-1.9C24.8,52.7,24.4,52.2,24,51.7z"></path><path d="M34.7,10C29.5,7,24.2,4.1,19,1.1c-0.5-0.3-1-0.3-1.6,0c-1.3,0.7-2.6,1.4-3.8,2.2C9.7,5.5,5.7,7.8,1.8,10   c-0.4,0.3-0.7,0.6-0.6,1.1c0,0.3,0,0.6,0,0.9c0,0.7,0.3,1,1,1h2.4v0.1c0,0.6,0.5,1,1,1h0.5c0,0.1,0,0.1,0,0.2   c0,0.9-0.1,1.8-0.2,2.7l-0.1,1.5c-0.1,2-0.2,4-0.4,6c0,0.4-0.1,0.9-0.1,1.3l0,0.2H5.1c-1.1,0-2,0.9-2,2c0,0.6,0.2,1.1,0.6,1.4   S4.5,30,5.1,30h26.3c1.1,0,2-0.9,2-2c0-0.6-0.2-1.1-0.6-1.4c-0.4-0.4-0.9-0.6-1.4-0.6H31c-0.1-1.7-0.2-3.4-0.3-5   c0-0.7-0.1-1.4-0.1-2c-0.1-1.5-0.2-3-0.3-4.4c0-0.2,0-0.3,0-0.4h0.4c0.6,0,1-0.4,1-1V13h2.5c0.7,0,1-0.3,1-1c0-0.3,0-0.7,0-1   C35.3,10.5,35.1,10.2,34.7,10z M23.7,21.4c-0.2,1.7-1.3,2.9-3.1,3.5C20.3,25,20,25,19.7,25.1l-0.5,0.1v1.3h-1.8v-1.2l-0.2-0.1   c-3.3-0.8-4.8-2.4-4.6-5.1h3.1l0,0.3c0,0.1,0,0.1,0,0.2c0.1,1.2,0.9,1.9,2.1,2c0.2,0,0.4,0,0.7,0c1,0,1.6-0.5,1.9-1.3   c0.3-1,0-2-0.7-2.4c-0.4-0.3-0.8-0.4-1.3-0.6l-0.1-0.1c-0.2-0.1-0.4-0.2-0.5-0.3c-0.3-0.2-0.6-0.3-0.9-0.4c-0.7-0.3-1.4-0.6-2-1.1   c-1.2-0.9-1.8-2.3-1.7-3.8c0.1-1.6,1-2.9,2.4-3.6c0.4-0.2,0.9-0.4,1.4-0.5c0.2-0.1,0.4-0.1,0.5-0.2l0.2-0.1V7h1.7v1.5l0.3,0.1   c1.7,0.4,2.7,1.1,3.4,2.2c0.4,0.8,0.7,1.8,0.6,2.7h-3.1c0-0.1,0-0.2-0.1-0.3l0,0c0-0.3-0.1-0.5-0.2-0.8c-0.3-0.9-1-1.3-2-1.3   c-1,0-1.6,0.4-1.9,1.2c-0.3,1-0.1,2,0.6,2.5c0.5,0.3,1,0.5,1.5,0.8c0.2,0.1,0.4,0.2,0.6,0.3c0.3,0.1,0.6,0.3,0.9,0.4   c0.6,0.3,1.2,0.5,1.7,0.9C23.4,17.9,24,19.4,23.7,21.4z"></path></g></svg>