<svg fill="#FFFFFF" xmlns="http://www.w3.org/2000/svg" xmlns:xlink="http://www.w3.org/1999/xlink" version="1.1" x="0px" y="0px" viewBox="0 0 100 100" enable-background="new 0 0 100 100" xml:space="preserve"><path d="M64.835,73.48l0.026-0.006c0,0,0.065,4.499-0.659,6.324c0,0-11.079,7.194-29.635,7.194l0.01-0.419l-0.036,0.419  c-18.556,0-29.635-7.194-29.635-7.194c-0.725-1.825-0.659-6.324-0.659-6.324c-0.228-3.238,0.046-9.778,5.717-11.219  c7.609-1.933,13.921-4.88,13.921-4.88c1.247-1.717,1.47-5.312,1.47-5.312c-2.381-2.56-3.437-5.765-3.881-8.476  c-0.158,0.116-0.339,0.193-0.539,0.188c-0.715-0.015-1.673-1.061-2.706-5.025c-1.3-4.99-0.08-5.974,1.1-5.965  c0.272,0.002,0.316-0.003,0.553,0.068l0.003-0.109c0,0-3.498-11.662,4.916-16.79c0,0-1.478-1.197-1.364-2.921  c0,0,3.857,0.437,7.554,0.445c1.68,0.004,3.327-0.082,4.563-0.337c0.494-0.102,0.994-0.143,1.49-0.13  c3.472,0.088,6.798,2.791,7.384,5.4c0,0,0.051-0.004,0.144-0.004c1.097-0.002,7.991,0.525,4.683,14.383c0,0-0.003,0.019-0.008,0.052  c0.16-0.034,0.328-0.056,0.497-0.058c1.184-0.015,2.414,0.961,1.11,5.965c-1.042,3.998-2.007,5.028-2.724,5.025  c-0.239-0.001-0.45-0.116-0.627-0.274c-0.436,2.733-1.491,5.982-3.903,8.571l0.128-0.008c0,0,0.197,3.183,1.259,4.99  c0.046,0.023,6.55,3.276,14.132,5.203C64.793,63.696,65.064,70.244,64.835,73.48z M95.761,65.158  c0.197-2.788-0.036-8.428-4.925-9.669c-6.532-1.659-12.135-4.462-12.174-4.482c-0.915-1.556-1.084-4.299-1.084-4.299l-0.11,0.007  c2.078-2.23,2.987-5.029,3.363-7.383c0.153,0.136,0.335,0.236,0.54,0.236c0.617,0.002,1.449-0.885,2.346-4.329  c1.123-4.311,0.063-5.151-0.957-5.139c-0.146,0.002-0.291,0.021-0.428,0.05c0.005-0.029,0.007-0.045,0.007-0.045  c2.85-11.938-3.089-12.392-4.034-12.39c-0.08,0-0.124,0.004-0.124,0.004c-0.504-2.248-3.369-4.577-6.36-4.652  c-0.427-0.011-0.857,0.024-1.283,0.112c-1.064,0.22-2.483,0.293-3.93,0.29c-3.184-0.007-6.507-0.384-6.507-0.384  c-0.098,1.485,1.175,2.516,1.175,2.516c-7.248,4.417-4.235,14.463-4.235,14.463l-0.003,0.094c-0.204-0.061-0.242-0.057-0.477-0.059  c-1.017-0.008-2.068,0.84-0.948,5.139c0.89,3.415,1.715,4.316,2.331,4.329c0.172,0.004,0.328-0.062,0.465-0.162  c0.382,2.336,1.292,5.096,3.343,7.302c0,0-0.192,3.097-1.266,4.576c0,0-5.088,2.376-11.354,4.038  c2.499,1.077,6.487,2.643,10.8,3.739c3.577,0.908,6.131,3.357,7.386,7.082c0.363,1.076,0.586,2.179,0.716,3.24l0.067-0.015  l0.011,0.786c0.093,1.113,0.089,2.158,0.044,3.049l0.003,0.223c0.009,0.598,0.01,1.907-0.099,3.351  c0.528,0.014,1.062,0.022,1.605,0.022l0.031-0.361l-0.009,0.361c15.985,0,25.529-6.198,25.529-6.198  c0.624-1.573,0.568-5.448,0.568-5.448L95.761,65.158z"></path></svg>