<svg xmlns="http://www.w3.org/2000/svg" xmlns:xlink="http://www.w3.org/1999/xlink" version="1.1" x="0px" y="0px" viewBox="0 0 512 512" enable-background="new 0 0 512 512" xml:space="preserve"><g><path d="M427.2,150.3V61.7H324.6l0.1-0.1L256,2l-68.9,59.7H84.8v88.7L3.3,221v289h505.4V221L427.2,150.3z M158.4,348.1L19.6,482.6   V242.4L158.4,348.1z M174.2,355.5l162.9-0.6l143.3,138.9H31.6L174.2,355.5z M352.9,347.4l139.5-106.2v241.4L352.9,347.4z M256,23.6   l44,38.1h-88L256,23.6z M101.1,265.5V78h309.7v187.5h16.3v-93.5l60.4,52.4l-150,114.2l-164,0.6l-150-114.2l61.2-53v93.5H101.1z"></path><path d="M168.5,292.4c8.7,9,19.3,16.2,31.6,21.6c12.3,5.4,26.1,8.1,41.3,8.1c23.7,0,45.6-5,65.7-15.1c2.7-1.3,4-3.3,4-5.8   c0-2.6-0.7-4.4-2-5.7c-1.3-1.2-2.7-1.9-4.3-1.9c-1.5,0-5.5,1.2-11.8,3.7c-6.4,2.5-13.9,4.8-22.6,7.1c-7,1.9-16.7,2.8-29,2.8   c-26,0-47-8.8-63.2-26.5c-7.2-7.8-12.7-16.6-16.4-26.6c-3.7-10-5.5-21.1-5.5-33.4s2.8-24.9,8.4-37.7c5.6-12.8,13.2-24,22.9-33.7   c9.7-9.7,20.9-17.4,33.7-23c12.8-5.7,26.4-8.5,40.8-8.5c24.7,0,45.8,7,63.5,21.1c8.9,7,16.1,15.7,21.5,26.2   c5.4,10.4,8.1,23.3,8.1,38.7c0,15.4-3.1,28.3-9.4,38.7c-6.3,10.4-15.4,15.6-27.3,15.6c-5.1,0-8.8-1.9-11-5.5   c-2.2-3.7-3.3-7.9-3.3-12.5c0-4.7,0.7-11,2-18.9l9.4-54.1c0.2-0.9,0.3-1.6,0.3-2V162c0-1.7-1-3.6-3-5.6c-2-2-4.4-3-7.1-3   c-2.8,0-5.1,0.8-7.1,2.4c-2,1.6-3.2,3.8-3.6,6.4l-0.8,4.8c-10.2-9.7-22.4-14.5-36.4-14.5c-18.2,0-33.7,6-46.4,17.9   c-6.3,5.9-11.3,13.1-15.2,21.8c-3.9,8.6-5.8,19.4-5.8,32.3c0,12.9,4.1,23.9,12.2,33c8.9,9.5,21,14.2,36.1,14.2   c19.5,0,35.2-7.1,47-21.3c0.6,2.5,1.5,5,2.8,7.7c5.1,8.9,14.8,13.4,29,13.4c17.6,0,31.3-7.5,41-22.5c8-12.9,11.9-28.8,11.9-47.8   c0-14.6-2.9-27.9-8.7-40c-5.8-12-13.6-22.4-23.5-31c-9.9-8.6-21.4-15.4-34.6-20.2c-13.2-4.8-27.6-7.2-43.1-7.2   c-15.6,0-30.6,3.3-45.2,9.8c-14.6,6.5-27.4,15.4-38.3,26.5c-10.9,11.1-19.6,24-26,38.6c-6.4,14.6-9.7,29.2-9.7,43.8   c0,14.6,2.3,27.8,7,39.7C153.1,273,159.8,283.4,168.5,292.4z M286.6,212.3c-1.3,8-3.4,14.5-6.3,19.6c-7.4,13.5-19.2,20.2-35.3,20.2   c-9.7,0-17.4-2.6-23.1-7.7c-6.4-5.9-9.7-14.4-9.7-25.6c0-14,4.7-25.4,14.2-34.1c8.7-8,19.5-12,32.4-12c13.3,0,24,4.4,32.2,13.1   L286.6,212.3z"></path><rect x="247.8" y="412.2" width="16.3" height="16.3"></rect><rect x="280.5" y="412.2" width="16.3" height="16.3"></rect><rect x="215.2" y="412.2" width="16.3" height="16.3"></rect></g></svg>