<svg fill="#FFFFFF" xmlns="http://www.w3.org/2000/svg" xmlns:xlink="http://www.w3.org/1999/xlink" version="1.1" x="0px" y="0px" viewBox="0 0 64 64" enable-background="new 0 0 64 64" xml:space="preserve"><g><path d="M34.571,21.772h-0.108c-0.839,2.29-2.362,3.435-4.567,3.435c-1.654,0-2.988-0.599-4.001-1.798   c-1.013-1.199-1.52-2.859-1.52-4.981c0-2.745,0.701-4.978,2.104-6.698c1.403-1.72,3.093-2.58,5.071-2.58   c1.786,0,2.907,0.701,3.363,2.104h0.072l0.18-1.78h4.046c-0.539,5.107-0.809,8.446-0.809,10.016c0,1.678,0.455,2.517,1.367,2.517   c0.959,0,1.75-0.635,2.374-1.906c0.623-1.271,0.935-2.931,0.935-4.981c0-2.805-0.893-5.104-2.679-6.896   c-1.786-1.792-4.28-2.688-7.48-2.688c-3.429,0-6.279,1.196-8.55,3.587c-2.272,2.391-3.408,5.308-3.408,8.748   c0,3.333,1.004,5.958,3.012,7.876c2.008,1.918,4.78,2.877,8.317,2.877c2.697,0,5.167-0.515,7.409-1.546v3.435   c-2.05,0.875-4.687,1.313-7.912,1.313c-4.424,0-8.023-1.268-10.798-3.803c-2.775-2.535-4.163-5.943-4.163-10.223   c0-4.363,1.48-8.032,4.442-11.005c2.961-2.973,6.773-4.46,11.436-4.46c4.316,0,7.807,1.154,10.474,3.461   c2.667,2.308,4.001,5.35,4.001,9.126c0,3.105-0.816,5.595-2.446,7.472c-1.631,1.876-3.65,2.814-6.06,2.814   c-1.187,0-2.152-0.318-2.895-0.953C35.033,23.618,34.631,22.791,34.571,21.772z M32.18,12.277c-1.079,0-1.957,0.615-2.634,1.843   c-0.677,1.229-1.016,2.652-1.016,4.271c0,1.151,0.231,2.047,0.692,2.688c0.461,0.642,1.058,0.962,1.789,0.962   c1.127,0,2.014-0.605,2.661-1.816c0.647-1.211,0.971-2.829,0.971-4.855c0-0.959-0.225-1.714-0.674-2.266   C33.519,12.553,32.923,12.277,32.18,12.277z"></path><path d="M62.129,23.431l0.001-0.001l-0.002-0.004l-0.001-0.003c-0.235-0.786-0.609-1.512-1.095-2.15l-0.003-0.006l-0.002-0.004   l-0.013-0.017l-0.009-0.011l-0.075-0.092c-0.032-0.04-0.064-0.08-0.097-0.119l-0.008-0.009l-0.011-0.015l-0.004-0.004l-0.002-0.002   l-0.006-0.006c-0.435-0.512-0.945-0.957-1.512-1.321l-0.006-0.005l-0.001,0.001c-1.048-0.67-2.292-1.06-3.626-1.06h-5.542   c-0.37,1.758-1.021,3.336-1.949,4.722h6.561L32.179,41.456L9.315,23.324h4.963c-0.436-1.467-0.683-3.042-0.743-4.722H8.343   c-1.339,0-2.586,0.393-3.637,1.068l-0.001-0.001l-0.004,0.004c-0.589,0.379-1.117,0.846-1.562,1.384l-0.005,0.004l-0.138,0.174   L2.99,21.243L2.98,21.254v0.002L2.978,21.26c-0.494,0.646-0.874,1.382-1.11,2.181l0,0.001l-0.002,0.002l0.001,0.001   C1.688,24.05,1.59,24.691,1.59,25.354v29.56c0,3.723,3.029,6.752,6.752,6.752h47.314c3.723,0,6.752-3.029,6.752-6.752v-29.56   C62.41,24.686,62.311,24.041,62.129,23.431z M6.312,53.669V26.969l14.89,11.809L6.312,53.669z M9.714,56.945l15.212-15.213   l5.795,4.596c0.431,0.342,0.948,0.512,1.468,0.512c0.523,0,1.048-0.174,1.479-0.521l6.026-4.846l15.473,15.473H9.714z    M57.688,52.787L43.396,38.495l14.292-11.494V52.787z"></path></g></svg>