<svg fill="#FFFFFF" xmlns="http://www.w3.org/2000/svg" xmlns:xlink="http://www.w3.org/1999/xlink" version="1.1" x="0px" y="0px" viewBox="0 0 100 100" enable-background="new 0 0 100 100" xml:space="preserve"><path d="M77,32.333H63v-3.377C63,25.667,60.333,23,57.044,23H42.956C39.667,23,37,25.667,37,28.956v3.377H23c-2.209,0-4,1.791-4,4  V73c0,2.209,1.791,4,4,4h54c2.209,0,4-1.791,4-4V36.333C81,34.124,79.209,32.333,77,32.333z M56.902,47.186  c0,4.773-3.09,8.339-6.902,8.339s-6.902-3.536-6.902-8.339c0-3.543,2.671-6.459,6.109-6.853h1.586  C54.231,40.727,56.902,43.643,56.902,47.186z M41,28.956C41,27.877,41.878,27,42.956,27h14.088C58.122,27,59,27.877,59,28.956v3.377  H41V28.956z M65.748,69c-19.763,0-11.237,0-31.496,0c-0.547,0-0.946-0.508-0.833-1.044c1.098-5.221,4.819-9.178,9.796-11.055  c0.386-0.146,0.824,0.022,1.031,0.379c2.264,3.922,1.967,3.406,3.046,5.275l1.655-2.867l-0.073-0.126l-0.789-1.366  c-0.15-0.26,0.037-0.584,0.337-0.584c1.142,0,2.013,0,3.155,0c0.3,0,0.487,0.324,0.337,0.584l-0.789,1.366l-0.073,0.126l1.655,2.867  c1.119-1.938,0.36-0.623,3.046-5.275c0.206-0.357,0.644-0.525,1.031-0.379c4.977,1.877,8.698,5.833,9.796,11.055  C66.694,68.492,66.295,69,65.748,69z"></path></svg>