<svg fill="#FFFFFF" xmlns="http://www.w3.org/2000/svg" xmlns:xlink="http://www.w3.org/1999/xlink" version="1.1" x="0px" y="0px" viewBox="0 0 100 100" enable-background="new 0 0 100 100" xml:space="preserve"><symbol viewBox="-27.299 -39.024 54.598 78.047"><path fill="none" d="M11.157,34.02c-1.275-1.85-3.408-3.026-5.733-3.026c-2.13,0-4.118,0.985-5.424,2.607   c-1.306-1.622-3.294-2.607-5.423-2.607c-2.325,0-4.457,1.176-5.734,3.026c-1.275-1.85-3.408-3.026-5.733-3.026   c-1.913,0-3.648,0.776-4.908,2.029v-66.474c1.26,1.253,2.995,2.029,4.908,2.029c2.325,0,4.458-1.176,5.733-3.026   c1.277,1.85,3.409,3.026,5.734,3.026c2.129,0,4.117-0.986,5.423-2.607c1.306,1.622,3.294,2.607,5.424,2.607   c2.325,0,4.458-1.176,5.733-3.026c1.277,1.85,3.409,3.026,5.734,3.026c1.913,0,3.647-0.776,4.907-2.028v66.473   c-1.26-1.253-2.994-2.028-4.907-2.028C14.567,30.995,12.435,32.17,11.157,34.02z"></path><path fill="#FFFFFF" stroke="#FFFFFF" stroke-width="3" stroke-miterlimit="10" d="M-20.463-37.524   c0.391,1.615,1.839,2.822,3.573,2.822c1.733,0,3.181-1.207,3.572-2.822h4.323c0.391,1.615,1.839,2.822,3.573,2.822   s3.182-1.207,3.573-2.822h3.701c0.391,1.615,1.839,2.822,3.573,2.822s3.182-1.207,3.573-2.822h4.322   c0.391,1.615,1.839,2.822,3.573,2.822s3.182-1.207,3.573-2.822h5.335v75.047h-5.266c-0.219-1.825-1.759-3.25-3.641-3.25   s-3.423,1.425-3.641,3.25H9.065c-0.219-1.825-1.759-3.25-3.641-3.25s-3.423,1.425-3.641,3.25h-3.564   c-0.219-1.825-1.759-3.25-3.641-3.25s-3.423,1.425-3.641,3.25h-4.186c-0.219-1.825-1.758-3.25-3.641-3.25   c-1.883,0-3.423,1.425-3.641,3.25h-5.267v-75.047H-20.463z"></path></symbol><symbol viewBox="-30.282 -48.056 60.563 94.113"><path fill="#FFFFFF" stroke="#FFFFFF" stroke-width="6" stroke-miterlimit="10" d="M16.006,43.056   c-3.233-4.883-8.77-8.108-15.065-8.108s-11.832,3.225-15.065,8.108h-10.584v-88.113h10.584c3.233,4.883,8.77,8.108,15.065,8.108   s11.832-3.224,15.065-8.108H26.59v88.113H16.006z"></path><line fill="none" stroke="#FFFFFF" stroke-width="5" stroke-linecap="round" stroke-linejoin="round" stroke-miterlimit="10" stroke-dasharray="7,8" x1="27.781" y1="-20.755" x2="-27.782" y2="-20.755"></line></symbol><symbol viewBox="-24.712 -42.834 54.356 85.667"><path fill="#FFFFFF" stroke="#FFFFFF" stroke-width="5" stroke-miterlimit="10" d="M17.181,40.333h-4.475   c-0.466-2.355-2.539-4.131-5.031-4.131c-2.491,0-4.565,1.776-5.03,4.131h-4.883c-0.466-2.355-2.539-4.131-5.031-4.131   c-2.491,0-4.565,1.776-5.03,4.131h-4.883c-0.466-2.355-2.539-4.131-5.03-4.131v-72.023c2.622,0,4.76-1.974,5.069-4.512h4.806   c0.309,2.539,2.447,4.512,5.069,4.512c2.622,0,4.76-1.974,5.069-4.512h4.806c0.309,2.539,2.447,4.512,5.069,4.512   c2.622,0,4.76-1.974,5.069-4.512h4.398c0.309,2.539,2.447,4.512,5.069,4.512v72.023C19.72,36.202,17.647,37.978,17.181,40.333z"></path><line fill="none" stroke="#FFFFFF" stroke-width="4" stroke-linecap="round" stroke-linejoin="round" stroke-miterlimit="10" stroke-dasharray="7,6" x1="-22.644" y1="-17.395" x2="27.644" y2="-17.395"></line></symbol><symbol viewBox="-23.971 -42.094 47.944 84.188"><g><path fill="#FFFFFF" stroke="#FFFFFF" stroke-width="3.521" stroke-miterlimit="10" d="M17.182,40.333h-4.475    c-0.466-2.355-2.539-4.131-5.031-4.131c-2.491,0-4.565,1.776-5.03,4.131h-4.883c-0.466-2.355-2.539-4.131-5.031-4.131    c-2.491,0-4.565,1.776-5.03,4.131h-4.883c-0.466-2.355-2.539-4.131-5.03-4.131v-72.023c2.622,0,4.76-1.974,5.069-4.512h4.806    c0.309,2.539,2.447,4.512,5.069,4.512c2.622,0,4.76-1.974,5.069-4.512h4.806c0.309,2.539,2.447,4.512,5.069,4.512    c2.622,0,4.76-1.974,5.069-4.512h4.398c0.309,2.539,2.447,4.512,5.069,4.512v72.023C19.721,36.202,17.648,37.978,17.182,40.333z"></path></g><polygon fill="#FFFFFF" stroke="#FFFFFF" stroke-width="3.8113" stroke-miterlimit="10" points="5.14,17.02 11.952,13.853    8.431,7.217 7.524,-0.241 0.124,1.057 -7.248,-0.385 -8.301,7.053 -11.951,13.62 -5.201,16.919 -0.084,22.42  "></polygon></symbol><symbol id="a" viewBox="-21.087 -31.266 42.17 72.87"><path fill="#FFFFFF" stroke="#FFFFFF" stroke-width="5" stroke-miterlimit="10" d="M6.373,39.104h5.21c0-3.87,3.13-7,7-7v-53.87   c-3.87,0-7-3.14-7-7h-5.21"></path><path fill="#FFFFFF" stroke="#FFFFFF" stroke-width="5" stroke-miterlimit="10" d="M-6.377-28.766h-5.21c0,3.86-3.13,7-7,7v53.87   c3.87,0,7,3.13,7,7h5.21"></path><line fill="none" stroke="#FFFFFF" stroke-width="5" stroke-miterlimit="10" x1="2.373" y1="39.104" x2="-2.377" y2="39.104"></line><line fill="none" stroke="#FFFFFF" stroke-width="5" stroke-miterlimit="10" x1="2.373" y1="-28.766" x2="-2.377" y2="-28.766"></line><g><path stroke="#FFFFFF" stroke-width="0.9" stroke-miterlimit="10" d="M-9.901-10.118c0-0.994-0.806-1.8-1.8-1.8    s-1.8,0.806-1.8,1.8s0.806,1.8,1.8,1.8S-9.901-9.124-9.901-10.118z"></path><path stroke="#FFFFFF" stroke-width="0.9" stroke-miterlimit="10" d="M-2.101-10.118c0-0.994-0.806-1.8-1.8-1.8    s-1.8,0.806-1.8,1.8s0.806,1.8,1.8,1.8S-2.101-9.124-2.101-10.118z"></path><path stroke="#FFFFFF" stroke-width="0.9" stroke-miterlimit="10" d="M5.699-10.118c0-0.994-0.806-1.8-1.8-1.8s-1.8,0.806-1.8,1.8    s0.806,1.8,1.8,1.8S5.699-9.124,5.699-10.118z"></path><path stroke="#FFFFFF" stroke-width="0.9" stroke-miterlimit="10" d="M13.499-10.118c0-0.994-0.806-1.8-1.8-1.8    s-1.8,0.806-1.8,1.8s0.806,1.8,1.8,1.8S13.499-9.124,13.499-10.118z"></path></g></symbol><symbol viewBox="-21.086 -31.266 42.17 72.87"><use xlink:href="#a" width="42.17" height="72.87" x="-21.087" y="-31.266" transform="matrix(1 0 0 1 6.996482e-004 -2.671033e-004)" overflow="visible"></use><line fill="none" stroke="#FFFFFF" stroke-width="4" stroke-miterlimit="10" x1="9.224" y1="13.75" x2="-9.223" y2="13.75"></line></symbol><g display="none"><path display="inline" fill="#FFFFFF" d="M468.792,114.743H-769.006c-2.084,0-3.789-1.705-3.789-3.789v-1187.164   c0-2.084,1.705-3.789,3.789-3.789H468.792c2.084,0,3.789,1.705,3.789,3.789V110.954   C472.582,113.038,470.877,114.743,468.792,114.743z"></path></g><g><g><path d="M86.5,50.321c-2.009-2.009-5.015-2.385-7.429-1.184l-1.729-1.729c5.653-7.09,5.208-17.476-1.353-24.036    c-1.098-1.098-2.322-2.018-3.624-2.788v-2.497c0-4.777-3.885-8.662-8.661-8.662H12.416C8.327,9.425,5,12.752,5,16.842v48.79v3.545    v5.116c0,4.089,3.327,7.415,7.416,7.415h6.804v6.566c0,0.832,0.449,1.6,1.175,2.007c0.725,0.406,1.615,0.391,2.326-0.045    l8.08-4.94l8.079,4.94c0.368,0.226,0.784,0.338,1.201,0.338c0.387,0,0.776-0.097,1.126-0.293c0.725-0.408,1.175-1.175,1.175-2.007    v-6.566h22.679c4.029,0,7.305-3.276,7.305-7.305v-5.115v-3.656v-13.91c0.727-0.429,1.431-0.902,2.098-1.435l1.728,1.728    c-1.202,2.414-0.825,5.419,1.184,7.429l6.613,6.613c1.257,1.257,2.909,1.886,4.562,1.886s3.304-0.629,4.562-1.886    c2.516-2.516,2.516-6.607,0-9.123L86.5,50.321z M37.781,84.17l-5.778-3.533c-0.738-0.452-1.663-0.452-2.401,0l-5.779,3.533V72.842    h13.959V84.17z M67.765,69.288v5.115c0,1.491-1.213,2.704-2.704,2.704H42.382v-4.265h2.213c1.271,0,2.301-1.029,2.301-2.301    c0-1.271-1.029-2.301-2.301-2.301H17.008c-1.271,0-2.301,1.029-2.301,2.301c0,1.271,1.029,2.301,2.301,2.301h2.213v4.265h-6.804    c-1.553,0-2.815-1.263-2.815-2.814v-5.116v-3.545c0-1.552,1.263-2.814,2.815-2.814H64.95c1.553,0,2.815,1.263,2.815,2.814V69.288z     M67.765,58.775c-0.869-0.358-1.819-0.558-2.815-0.558H12.416c-0.997,0-1.946,0.2-2.815,0.558V16.842    c0-1.553,1.263-2.815,2.815-2.815h51.289c2.239,0,4.06,1.822,4.06,4.061v0.588c-1.472-0.381-2.996-0.597-4.556-0.597    c-4.041,0-7.87,1.333-11.016,3.764H22.981c-1.271,0-2.301,1.029-2.301,2.301v12.578c0,1.271,1.029,2.301,2.301,2.301h22.407    c0.579,3.631,2.247,7.12,5.039,9.913c3.414,3.414,7.954,5.295,12.782,5.295c1.561,0,3.084-0.216,4.556-0.597V58.775z     M25.281,34.42v-7.977h22.693c-1.559,2.446-2.483,5.184-2.75,7.977H25.281z M63.209,50.158c-3.741,0-7.258-1.457-9.903-4.103    c-2.645-2.645-4.101-6.162-4.101-9.903c0-3.74,1.456-7.257,4.101-9.902c2.645-2.645,6.162-4.103,9.903-4.103    s7.258,1.457,9.903,4.103c2.645,2.645,4.101,6.162,4.101,9.902c0,3.741-1.456,7.258-4.101,9.903    C70.467,48.701,66.95,50.158,63.209,50.158z M90.235,63.179c-0.929,0.929-2.438,0.929-3.366,0l-6.613-6.613    c-0.928-0.928-0.928-2.439,0-3.366c0.464-0.464,1.073-0.696,1.683-0.696c0.61,0,1.219,0.231,1.683,0.696l6.613,6.613    C91.163,60.74,91.163,62.251,90.235,63.179z"></path></g></g></svg>