<svg xmlns="http://www.w3.org/2000/svg" xmlns:xlink="http://www.w3.org/1999/xlink" viewBox="0 0 132 201" version="1.1" x="0px" y="0px"><title>Combined Shape</title><desc>Created with Sketch.</desc><g stroke="none" stroke-width="1" fill="none" fill-rule="evenodd"><g transform="translate(-66.000000, -23.000000)" stroke="#FFFFFF" fill="#000000"><path d="M170.879495,211.127019 L170.903833,211.106596 L110.913419,139.612804 C111.538015,139.632767 112.165112,139.642825 112.794559,139.642825 C142.06117,139.642825 166.249286,117.899199 170.085728,89.6851247 L196.519964,89.6851247 L196.519964,71.1822727 L169.63925,71.1822727 C167.600983,60.2232484 162.471753,50.3505394 155.190266,42.502852 L196.519964,42.502852 L196.519964,24 L67,24 L67,42.502852 L121.31246,42.502852 C135.788642,45.70013 147.26838,56.8758313 150.903989,71.1822727 L67,71.1822727 L67,89.6851247 L151.127122,89.6851247 C147.134991,107.169068 131.488275,120.214831 112.794559,120.214831 C103.528889,120.214831 95.0117938,117.009803 88.2914259,111.6479 L87.7924465,112.058302 L87.6500052,111.888547 L73.4759982,123.781951 L73.5015072,123.812352 L73.2573319,124.013182 C73.811641,124.532825 74.3761951,125.041671 74.9506586,125.539383 L156.709412,222.975671 L156.706435,222.97821 L156.711542,222.97821 L156.729826,223 L156.755795,222.97821 L182.730686,222.97821 L170.879495,211.127019 Z"></path></g></g></svg>