<svg fill="#FFFFFF" xmlns="http://www.w3.org/2000/svg" xmlns:xlink="http://www.w3.org/1999/xlink" version="1.1" x="0px" y="0px" viewBox="0 0 100 100" style="enable-background:new 0 0 100 100;" xml:space="preserve"><g><path d="M90.6,60.7l-14.4,9.5H57.8v-4.9H77c0.5,0,1-0.2,1.5-0.5l15-10.9c1.1-0.8,1.4-2.4,0.6-3.5c-0.8-1.1-2.4-1.4-3.5-0.6   L76.2,60.3H57.8v-4.9H77c0.6,0,1.1-0.2,1.5-0.5l15-11.9c1.1-0.9,1.3-2.4,0.4-3.5c-0.9-1.1-2.4-1.3-3.5-0.4L76.1,50.4H57.8v-4.9H77   c0.6,0,1.2-0.2,1.7-0.7l15-13.9c0.8-0.7,1-1.8,0.6-2.7S93,26.6,92,26.6H73.8c0,0,0-0.1,0-0.1c-0.4-1-1.3-1.6-2.3-1.6H44.7   c-0.6,0-1.2,0.2-1.7,0.7l-1.1,1.1H23c-0.6,0-1.2,0.2-1.7,0.7l-15,13.9c-0.8,0.7-1,1.8-0.6,2.7S7,45.4,8,45.4h18v4.9H8   c-1.4,0-2.5,1.1-2.5,2.5s1.1,2.5,2.5,2.5h18v4.9H8c-1.4,0-2.5,1.1-2.5,2.5s1.1,2.5,2.5,2.5h18v4.9H8c-1.4,0-2.5,1.1-2.5,2.5   s1.1,2.5,2.5,2.5h69c0.5,0,1-0.1,1.4-0.4l15-9.9c1.2-0.8,1.5-2.3,0.7-3.5C93.3,60.3,91.8,60,90.6,60.7z M70.6,31.6h15L76,40.4H61   L70.6,31.6z M14.4,40.4l9.6-8.9h12.5l-9.6,8.9H14.4z M50.5,49H46c0.2,0.4,0.4,0.9,0.5,1.4h4v3.5h-4c-0.7,2.8-3.2,4.8-6,4.9h-0.8   l7.6,7.9l-2.4,2.5L31.6,55.3h8.8c1,0,2-0.6,2.5-1.4h-9.3v-3.5h9.3c-0.5-0.9-1.4-1.4-2.5-1.4h-6.8v-3.5h17V49z"></path></g></svg>