<svg fill="#FFFFFF" xmlns="http://www.w3.org/2000/svg" xmlns:xlink="http://www.w3.org/1999/xlink" version="1.1" x="0px" y="0px" viewBox="0 0 100 100" enable-background="new 0 0 100 100" xml:space="preserve"><path d="M254.194,78.723l-14.686-30.896c-0.306-0.644-0.953-1.053-1.665-1.053s-1.361,0.409-1.666,1.053l-3.003,6.315l-19.32-40.648  c-0.354-0.744-1.104-1.219-1.928-1.219c-0.823,0-1.573,0.475-1.927,1.219l-15.879,33.408l-6.506-13.688  c-0.354-0.743-1.104-1.217-1.928-1.217c-0.824,0-1.573,0.474-1.928,1.217l-6.004,12.631c-0.045,0.072-0.096,0.14-0.132,0.217  l-15.405,32.439c-0.201,0.426-0.254,0.897-0.161,1.345l11.637-7.109c0.04-0.024,0.099-0.047,0.148-0.07l6.682-4.077  c0.394-0.24,1.228-0.394,2.144-0.394c0.918,0,1.752,0.153,2.146,0.394l7.24,4.418l9.287-5.668c4.514,2.721,6.866,5.592,6.464,8.064  c-0.376,2.315-3.424,9.276-21.18,12.596h41.529l0.354-0.331c2.618-2.989,3.657-6.08,3.089-9.259c-0.63-3.531-3.168-6.648-6.302-9.32  l10.221,6.246l3.341-2.033c0.34-0.209,1.061-0.338,1.854-0.338s1.514,0.133,1.854,0.34l11.704,7.145  c0.114-0.238,0.183-0.503,0.183-0.785C254.451,79.32,254.357,78.998,254.194,78.723z M186.269,47h-2.131l-1.826-0.979l3.376-7.011  l3.279,6.763L186.269,47z M211.927,19.381L223.6,43.938l-8.967-0.235c-0.386-0.012-0.77,0.116-1.074,0.357l-3.877,3.072l-7.73-6.764  L211.927,19.381z M211.691,66.623c-0.227,0.356-0.61,0.551-1.003,0.551c-0.218,0-0.437-0.059-0.634-0.184  c-0.779-0.494-1.581-0.961-2.381-1.389c-0.577-0.309-0.796-1.027-0.487-1.604c0.309-0.578,1.027-0.795,1.604-0.488  c0.852,0.455,1.703,0.951,2.533,1.478C211.877,65.338,212.041,66.07,211.691,66.623z M220.447,81.361  c-0.881,1.77-2.47,3.421-4.725,4.907c-0.202,0.133-0.429,0.196-0.652,0.196c-0.385,0-0.763-0.188-0.991-0.533  c-0.36-0.547-0.208-1.282,0.338-1.643c1.901-1.253,3.216-2.593,3.907-3.982c0.291-0.586,1.003-0.826,1.589-0.534  S220.738,80.775,220.447,81.361z M219.874,75.865c-0.155,0.067-0.316,0.1-0.476,0.1c-0.456,0-0.892-0.266-1.086-0.711  c-0.65-1.486-1.817-3.032-3.47-4.596c-0.476-0.449-0.496-1.199-0.046-1.676c0.45-0.476,1.201-0.496,1.676-0.046  c1.884,1.783,3.233,3.589,4.012,5.367C220.747,74.903,220.474,75.603,219.874,75.865z"></path><circle cx="67.29" cy="28.664" r="10.624"></circle><path d="M92.692,54.75c-0.441-0.739-1.28-1.864-1.862-2.5l-9.965-10.874c-0.582-0.636-1.073-0.783-1.092-0.766  c-0.019,0.017-0.738-0.61-1.6-0.61H56.323c-0.861,0-1.631,0.639-1.709,0.635c-0.079-0.003-0.648,0.305-1.268,0.905l-7.165,6.852  c-0.619,0.6-1.134,1.036-1.145,1.025c-0.009-0.011-0.028-0.053-0.042-0.067c-0.013-0.014-0.541-0.564-1.145-1.18L32.446,36.547  c-0.604-0.615-1.601-0.627-2.216-0.023l-1.632,1.601L8.379,16.947c-0.449-0.47-1.192-0.487-1.661-0.039  c-0.47,0.448-0.486,1.192-0.039,1.661L26.92,39.77l-1.161,1.141c-0.615,0.603-0.625,1.601-0.021,2.216l11.369,11.582  c0.604,0.614,1.58,1.632,2.17,2.26l1.124,1.197c0.589,0.627,1.648,1.653,2.352,2.151c0,0,0.776,0.684,2.035,0.684  c0.037,0,0.074,0,0.111,0c1.22,0,1.954-0.58,1.954-0.58c0.725-0.467,1.822-1.393,2.441-1.992l3.864-3.771  c0.619-0.601,1.1-0.399,1.069,0.462l-0.981,27.395C53.215,83.376,53.896,84,54.757,84h25.065c0.861,0,1.541-0.631,1.51-1.493  l-0.258-7.196c-0.03-0.861-0.559-1.055-1.173-0.451l-1.512,1.494c-0.614,0.604-1.611,0.599-2.216-0.016L60.86,60.751  c-0.604-0.614-0.595-1.609,0.021-2.213l10.638-10.45c0.614-0.603,1.612-0.595,2.216,0.021l5.509,5.608  c0.604,0.615,1.098,1.09,1.097,1.058c-0.002-0.034,0.312,0.281,0.695,0.701c0.384,0.418,0.688,0.769,0.678,0.777  c-0.012,0.011-0.031,0.029-0.046,0.042s-0.579,0.513-1.226,1.084l-6.396,5.65c-0.646,0.57-0.694,1.554-0.107,2.186l4.263,4.592  c0.586,0.632,1.594,0.682,2.24,0.111l6.357-5.615c0.646-0.571,1.701-1.505,2.347-2.078l1.228-1.09  c0.644-0.571,1.595-1.604,2.11-2.294c0,0,0.569-0.761,0.635-2.018C93.182,55.564,92.692,54.75,92.692,54.75z"></path></svg>