<svg fill="#FFFFFF" xmlns="http://www.w3.org/2000/svg" xmlns:xlink="http://www.w3.org/1999/xlink" version="1.1" x="0px" y="0px" viewBox="0 0 100 100" enable-background="new 0 0 100 100" xml:space="preserve"><g><path d="M76.1,76.4c-0.2,0.2-0.5,0.4-0.8,0.6c-1.5,1.1-3,1.9-4.8,2.4c-9.7,2.8-24.1,4-24.1,4l-0.8,0.1c-0.6,0.1-1.2-0.3-1.4-1   c-0.1-0.7,0.3-1.4,1-1.5l21.3-3.5c2.3-0.4,4.1-2.8,3.6-5.4c-0.4-2.6-2.8-4.3-5.2-3.9l-19.1,1c-1.3,0.1-3.4-0.1-4.7-0.4   c-12.5-2.9-19.2,1-22.8,2.9c-0.9-1.4-2.5-2.2-4.3-1.9L6,71c-2.7,0.4-4.6,2.9-4.3,5.6l2.6,18.8c0.4,2.7,2.9,4.6,5.6,4.3l8.2-1.1   c1.7-0.2,3.1-1.4,3.6-3l36.2-0.8c4,0.2,7.8-0.6,11.2-2.7l1-0.6l26.2-18.4c1.3-0.9,2.1-2.4,2.1-3.9c-0.1-1.9-1.3-3.9-3.9-4   c-1.9,0-5.5,2.4-6.5,3C84.3,70.4,79.3,73.7,76.1,76.4z M12.6,95c-1.5,0.1-2.9-1.1-3-2.6c-0.1-1.5,1.1-2.9,2.6-3   c1.5-0.1,2.9,1.1,3,2.6S14.1,94.9,12.6,95z M74,69.4c2.8-1.8,8.2-5,11.2-6.5c1.5-0.7,3-0.8,4.5,0.1c-1.1,0.5-2.1,1.1-3,1.6   c-3.1,1.9-8.6,5.5-11.2,7.7c-0.3,0.2-0.5,0.5-0.8,0.7c0-0.5,0-1-0.1-1.6c-0.1-0.7-0.3-1.3-0.5-1.9C73.9,69.5,73.9,69.5,74,69.4z    M77.6,61.2c1.5-0.7,3-0.8,4.4,0.1c-2.1,1.2-6.3,3-8.3,4.3l-1.3,0.9c-0.1,0.1-0.2,0.2-0.4,0.3c-0.7-0.7-1.4-1.3-2.3-1.8   C71.7,63.8,75.8,62.1,77.6,61.2z M45.3,42.4c-1.9-3.7-0.3-8.3,3.4-10.1c3.7-1.9,8.3-0.3,10.1,3.4c1.9,3.7,0.3,8.3-3.4,10.1   C51.7,47.7,47.1,46.1,45.3,42.4z M34.3,28.8l-3.6-1.2c-0.9-0.3-1.8,0.2-2.1,1.1L27,33c-0.3,0.9,0.2,1.8,1.1,2.1l3.6,1.2   c-0.3,2.6-0.2,5.3,0.5,8l-3.4,1.7c-0.8,0.4-1.2,1.4-0.8,2.3l2,4.1c0.4,0.8,1.4,1.2,2.3,0.8l3.4-1.7c1.7,2.2,3.7,4,6,5.3l-1.2,3.6   c-0.3,0.9,0.2,1.8,1.1,2.1l4.4,1.5c0.9,0.3,1.8-0.2,2.1-1.1l1.2-3.6c2.6,0.3,5.3,0.2,8-0.5l1.7,3.4c0.4,0.8,1.4,1.2,2.3,0.8l4.1-2   c0.8-0.4,1.2-1.4,0.8-2.3l-1.7-3.4c2.2-1.7,4-3.7,5.3-6l3.6,1.2c0.9,0.3,1.8-0.2,2.1-1.1l1.5-4.4c0.3-0.9-0.2-1.8-1.1-2.1l-3.6-1.2   c0.3-2.6,0.2-5.3-0.5-8l3.4-1.7c0.8-0.4,1.2-1.4,0.8-2.3l-2-4.1c-0.4-0.8-1.4-1.2-2.3-0.8l-3.4,1.7c-1.7-2.2-3.7-4-6-5.3l1.2-3.6   c0.3-0.9-0.2-1.8-1.1-2.1L58.1,14c-0.9-0.3-1.8,0.2-2.1,1.1l-1.2,3.6c-2.6-0.3-5.3-0.2-8,0.5L45,15.8c-0.4-0.8-1.4-1.2-2.3-0.8   l-4.1,2c-0.8,0.4-1.2,1.4-0.8,2.3l1.7,3.4C37.4,24.5,35.6,26.5,34.3,28.8z M46.8,28.3c5.9-2.9,13.1-0.5,16,5.4   c2.9,5.9,0.5,13.1-5.4,16c-5.9,2.9-13.1,0.5-16-5.4C38.4,38.4,40.9,31.3,46.8,28.3z M10.5,12.4c-0.6,0-1.1,0.6-1.1,1.2l0.1,1.9   c0,0.6,0.6,1.1,1.2,1.1l1.8-0.1c0.4,1.4,1,2.6,1.8,3.7l-1.2,1.3c-0.4,0.5-0.4,1.2,0.1,1.6l1.4,1.3c0.5,0.4,1.2,0.4,1.6-0.1l1.2-1.3   c1.2,0.7,2.5,1.2,3.9,1.3l0.1,1.8c0,0.6,0.6,1.1,1.2,1.1l1.9-0.1c0.6,0,1.1-0.6,1.1-1.2l-0.1-1.8c1.4-0.4,2.6-1,3.7-1.8l1.3,1.2   c0.5,0.4,1.2,0.4,1.6-0.1l1.3-1.4c0.4-0.5,0.4-1.2-0.1-1.6l-1.3-1.2c0.7-1.2,1.2-2.5,1.3-3.9l1.8-0.1c0.6,0,1.1-0.6,1.1-1.2   l-0.1-1.9c0-0.6-0.6-1.1-1.2-1.1L33.2,11c-0.4-1.4-1-2.6-1.8-3.7l1.2-1.3c0.4-0.5,0.4-1.2-0.1-1.6L31,3c-0.5-0.4-1.2-0.4-1.6,0.1   l-1.2,1.3c-1.2-0.7-2.5-1.2-3.9-1.3l-0.1-1.8c0-0.6-0.6-1.1-1.2-1.1L21,0.4c-0.6,0-1.1,0.6-1.1,1.2l0.1,1.8c-1.4,0.4-2.6,1-3.7,1.8   L15,4.1c-0.5-0.4-1.2-0.4-1.6,0.1l-1.3,1.4c-0.4,0.5-0.4,1.2,0.1,1.6l1.3,1.2c-0.7,1.2-1.2,2.5-1.3,3.9L10.5,12.4z M22.5,8.6   c2.8-0.2,5.2,2,5.4,4.8c0.2,2.8-2,5.2-4.8,5.4c-2.8,0.2-5.2-2-5.4-4.8C17.6,11.2,19.7,8.8,22.5,8.6z"></path></g></svg>