<svg fill="#FFFFFF" xmlns="http://www.w3.org/2000/svg" xmlns:xlink="http://www.w3.org/1999/xlink" version="1.1" x="0px" y="0px" viewBox="0 0 100 100" enable-background="new 0 0 100 100" xml:space="preserve"><g><g><rect x="35.768" y="74.254" fill="#FFFFFF" width="29.75" height="1"></rect></g></g><g><g><rect x="35.768" y="67.254" fill="#FFFFFF" width="29.75" height="1"></rect></g></g><g><g><rect x="35.768" y="60.254" fill="#FFFFFF" width="29.75" height="1"></rect></g></g><g><g><path fill="#FFFFFF" d="M71.54,14.045H28.46l-5.72,5.719v60.48l5.72,5.711h43.08l5.72-5.711v-60.48L71.54,14.045z M71.65,15.565    l4.109,4.109l-5.109,1.051L71.65,15.565z M76.26,79.824l-5.13,5.131H28.87l-5.13-5.131v-59.65l5.13-5.129h41.86l-1.351,6.969    l6.88-1.43V79.824z"></path></g></g><g><g><polygon fill="#FFFFFF" points="57.46,30.819 57.46,31.819 54.13,31.819 54.13,34.409 51.261,37.37 44.33,37.37 51.391,47.85     50.561,48.399 42.45,36.37 50.841,36.37 53.13,34.008 53.13,31.819 42.86,31.819 42.86,30.819 53.13,30.819 53.13,28.249     50.92,26.11 42.86,26.11 42.86,25.11 57.41,25.11 57.41,26.11 52.36,26.11 54.13,27.819 54.13,30.819   "></polygon></g></g></svg>