<svg fill="#002451" xmlns="http://www.w3.org/2000/svg" xmlns:xlink="http://www.w3.org/1999/xlink" version="1.1" x="0px" y="0px" viewBox="0 0 189.094 297.653" style="enable-background:new 0 0 189.094 297.653;" xml:space="preserve"><g><path d="M52.846,89.337c1.598-2.141,3.932-3.533,6.576-3.917c0.479-0.069,0.967-0.104,1.449-0.104c4.924,0,9.174,3.68,9.885,8.558   l2.902,19.941c4.438-3.067,7.793-7.731,9.113-13.399c2.818-12.1-4.707-24.191-16.807-27.008   c-12.1-2.818-24.193,4.707-27.012,16.805c-2.666,11.454,3.938,22.898,14.914,26.476l-2.9-19.933   C50.58,94.112,51.248,91.478,52.846,89.337z"></path><path d="M15.34,198.25c2.545,8.387,5.723,22.192,5.699,38.757c-0.002,13.219-1.978,28.172-7.764,43.803   c-2.396,6.472,0.906,13.665,7.383,16.061c1.432,0.53,2.898,0.782,4.342,0.782c5.078,0.001,9.854-3.12,11.723-8.163   c6.953-18.782,9.32-36.776,9.318-52.482c-0.033-25.046-5.912-44.312-9.09-52.936c-1.971-14.73,1.313-31.564,4.016-44.888   l-13.965-1.827c-2.648-0.346-5.004-1.705-6.633-3.819c-1.627-2.12-2.334-4.743-1.986-7.393c0.65-4.961,4.908-8.704,9.904-8.704   c0.434,0,0.875,0.03,1.309,0.087l12.641,1.653c-1.506-5.096-4.74-9.188-9.408-10.352c-8.537-2.129-20.912,2.508-25.947,17.15   c-6.805,20.174-8.268,33.305-5.682,55.52C3.311,192.37,9.028,196.65,15.34,198.25z"></path><path d="M20.366,126.406c-0.574,4.38,2.516,8.396,6.898,8.969H27.26l37.963,4.964c0.35,0.046,0.697,0.068,1.045,0.068   c2.127,0,4.174-0.847,5.691-2.385c1.764-1.79,2.58-4.283,2.217-6.767l-5.398-37.093c-0.637-4.372-4.697-7.399-9.068-6.763   c-4.373,0.636-7.4,4.695-6.764,9.069l3.877,26.636l-27.486-3.594C24.955,118.937,20.94,122.023,20.366,126.406z"></path><path d="M45.354,25.096c-0.01,3.655,4.998,8.203,7.361,9.415c0.094,0.047,0.189,0.087,0.283,0.133   c0.551,1.581,1.565,2.838,2.934,3.822c-0.111,0.257-0.18,0.538-0.199,0.843c-0.057,0.94,0.24,1.779,0.777,2.531   c-2.211,1.109-3.488,2.558-1.555,4.294c4.525,4.063,14.231,4.509,19.955,4.568c1.547,0.016,6.141-0.154,9.713-1.223   c1.533,5.758-4.105,7.296-9.912,6.635c-0.916-3.239-7.35-4.192-10.773-4.033c-0.291,0.014-2.547,0.526-1.981,1.122   c2.365,2.481,5.992,3.862,9.766,4.376c-0.014,0.507-0.115,1.064-0.346,1.691c-0.609,1.658-2.553,3.876-4.549,3.382   c-2.572-0.636-1.643-1.138,0.232-1.38c1.209-0.156,2.557-1.412,0.518-1.148c-2.365,0.306-2.936,0.011-5.102,1.015   c-0.268,0.123-0.771,0.396-0.52,0.729c2.992,3.973,8.676,1.832,11.318-1.457c0.777-0.968,1.225-1.832,1.424-2.605   c2.434,0.045,4.809-0.243,6.822-0.822c4.383-1.26,6.383-4.968,5.645-8.559c1.412-0.82,2.273-1.926,2.02-3.419   c-0.098-0.58-0.396-1.115-0.814-1.608c4.428-1.29,8.516-3.098,11.688-5.137c1.398-0.898,2.668-2.017,3.646-3.283   c2.328-0.528,4.457-1.322,6.139-2.522c6.279-4.48-1.746-14.43-5.186-18.444C98.336,6.633,89.098,0.705,79.241,0.044   C73.762-0.323,68.565,1.61,64.711,5.145c-1.359-0.14-2.723-0.249-4.09-0.293c-5.517-0.18-11.422,0.62-16.146,3.647   c-4.189,2.684-6.242,8.629-3.422,12.982C42.082,23.069,43.594,24.233,45.354,25.096z M71.002,55.402   c-1.797-0.491-3.451-1.165-4.729-1.957C68.16,53.681,70.012,54.238,71.002,55.402z M101.657,33.838   c-3.178,0.51-6.777,0.917-10.449,0.981c2.539-0.687,5.037-1.5,7.453-2.482c1.391-0.565,2.805-1.22,4.143-1.998   C102.723,31.514,102.299,32.708,101.657,33.838z M86.674,41.942c-0.85-0.569-1.783-1.052-2.598-1.45   c0.965-0.144,1.893-0.293,2.785-0.444C86.93,40.693,86.877,41.33,86.674,41.942z M55.239,33.379   c-0.402-1.557-0.104-3.472,1.088-5.808c0.598,0.051,1.182,0.096,1.729,0.135c0.678,0.049,1.359,0.077,2.043,0.106   c-0.826,0.702-1.57,1.495-2.191,2.408c-0.822,1.205-1.133,2.534-1.09,3.869C56.28,33.876,55.752,33.641,55.239,33.379z    M99.715,25.016c1.752,1.049,2.668,2.353,2.98,3.749c-0.021,0.018-0.037,0.034-0.059,0.051c-3.406,2.7-7.949,4.021-12.076,5.115   c-0.914,0.242-1.84,0.463-2.771,0.673c-0.678-0.806-1.461-1.587-2.303-2.327c5.979-0.919,10.99-3.4,10.938-8.489   c0.627,0.137,1.248,0.288,1.865,0.452C98.776,24.486,99.252,24.74,99.715,25.016z M82.776,22.667   c0.529,0.187,1.049,0.394,1.557,0.634c0.67,0.319,1.613-0.168,0.285,0.353c-1.574,0.618-3.254,1.007-4.9,1.365   c-1.568,0.34-3.154,0.593-4.744,0.811c-1.477-0.616-2.977-1.19-4.496-1.719c2.705-0.614,5.396-0.91,7.359-1.112   C79.459,22.831,81.112,22.724,82.776,22.667z M91.67,28.329c-1.584,2.057-4.111,3.015-6.848,3.382   c-2.875-2.384-6.197-4.273-7.926-5.051c-0.021-0.009-0.041-0.018-0.063-0.027c1.201-0.218,2.395-0.454,3.57-0.728   c2.43-0.565,4.834-1.241,7.094-2.312c0.141-0.067,0.893-0.488,0.518-0.729c-0.096-0.06-0.197-0.111-0.293-0.17   c1.871,0.081,3.734,0.254,5.578,0.526C93.407,25.022,92.817,26.841,91.67,28.329z M64.991,25.965   c0.328-0.163,0.662-0.319,1.006-0.463c0.047,0.338,0.123,0.69,0.252,1.065c-0.221,0.009-0.441,0.018-0.668,0.025   C65.375,26.388,65.18,26.179,64.991,25.965z M69.057,25.672c0.146,0.051,0.293,0.099,0.438,0.151   c0.418,0.149,0.824,0.313,1.234,0.471c-0.451,0.037-0.902,0.073-1.355,0.104C69.241,26.146,69.133,25.903,69.057,25.672z    M64.362,25.199c-0.324-0.43-0.621-0.878-0.889-1.344c0.795,0.233,1.586,0.478,2.375,0.732   C65.346,24.776,64.85,24.98,64.362,25.199z M70.834,28.376c-0.266-0.286-0.492-0.559-0.701-0.825   c0.955-0.089,1.908-0.195,2.857-0.319c2.793,1.246,5.4,2.758,7.783,4.652c-1.873-0.067-3.682-0.299-5.205-0.545   c-0.506-0.082-0.998-0.183-1.482-0.294C72.901,30.292,71.803,29.414,70.834,28.376z M81.703,32.655   c0.625,0.536,1.23,1.105,1.822,1.701c-2.197-0.34-4.313-0.889-6.275-1.689C78.703,32.733,80.207,32.731,81.703,32.655z    M85.069,21.4c-0.738-0.282-1.498-0.521-2.281-0.718c2.326,0.128,4.732,0.384,7.098,0.834C88.289,21.422,86.68,21.386,85.069,21.4z    M78.981,21.72c-2.607,0.261-5.191,0.681-7.705,1.275c-0.676,0.16-1.367,0.333-2.063,0.522c0.729-1.243,2.598-1.988,4.695-2.417   C75.698,21.211,77.422,21.433,78.981,21.72z M66.592,22.873c-1.01-0.295-2.023-0.577-3.039-0.832   c1.662-0.499,3.469-0.792,5.312-0.927C67.879,21.577,67.1,22.158,66.592,22.873z M61.76,26.587   c-0.025,0.017-0.053,0.033-0.078,0.05c-1.527-0.021-3.098-0.098-4.666-0.263c0.768-1.123,1.777-2.033,2.957-2.765   C60.446,24.666,61.034,25.671,61.76,26.587z M59.92,31.718c0.309-1.55,1.111-2.813,2.23-3.85c0.26,0.003,0.521,0.009,0.781,0.009   c1.307,1.286,2.883,2.357,4.717,3.111c0.744,0.306,1.703,0.587,2.803,0.83c3.551,2.391,8.463,3.295,12.727,3.676   c-3.82,0.609-7.727,0.922-11.605,0.882c-0.258-0.045-0.516-0.094-0.773-0.135c-1-0.159-3.953-0.51-6.982-0.452   c-0.959-0.139-1.912-0.296-2.854-0.487c-0.352-0.071-0.703-0.152-1.053-0.237C59.703,34.04,59.678,32.931,59.92,31.718z    M60.899,37.593c0.598-0.146,1.264-0.246,1.928-0.311c2.344,0.253,4.723,0.321,7.051,0.291c2.496,0.367,5.287,1.002,7.887,1.944   c-0.935,0.047-1.879,0.082-2.82,0.102c-3.125-0.621-6.361-0.743-9.133-0.4c-1.59-0.207-3.074-0.502-4.406-0.896   C61.223,38.087,61.055,37.845,60.899,37.593z M83.672,43.242c-1.137-0.864-2.461-1.592-3.902-2.185   c0.406-0.046,0.811-0.092,1.211-0.142c1.238,0.647,2.354,1.391,3.289,2.235C84.071,43.181,83.871,43.213,83.672,43.242z    M75.076,41.481c1.787,0.501,3.508,1.198,5,2.136c-2.818,0.183-5.613,0.115-8.238-0.167c-2.227-0.239-4.639-0.925-6.719-2.06   C68.239,41.725,71.666,41.704,75.076,41.481z M60.727,41.464c0.473,0.395,0.965,0.743,1.469,1.03   c5.318,3.028,12.512,3.475,19.559,2.384c0.223,0.199,0.443,0.401,0.646,0.617c-4.32,1.438-10.455,0.766-14.26-0.145   c-2.813-0.673-5.561-1.93-7.797-3.776C60.471,41.537,60.598,41.5,60.727,41.464z M81.487,39.271   c-1.813-0.79-3.701-1.43-5.619-1.948c3.104-0.204,6.221-0.581,9.309-1.144c0.604,0.799,1.098,1.676,1.398,2.575   C84.987,38.946,83.27,39.125,81.487,39.271z M90.578,20.193c-2.184-0.38-10.941-1.329-17.399-0.289   c-2.125,0.103-4.191,0.34-6.078,0.633c-1.416,0.22-3.021,0.573-4.637,1.087c-1.057-3.117-0.959-6.808,0.609-10.857   c0.633-1.637,1.402-3.013,2.273-4.178c3.623,0.593,7.188,1.56,10.508,2.656c6.012,1.985,13.496,5.282,16.662,11.163   c0.023,0.042,0.035,0.085,0.057,0.127C91.852,20.409,91.172,20.296,90.578,20.193z M54.766,26.076   c-2.219-0.374-4.357-0.983-6.273-1.91c0.016-0.643,0.172-1.239,0.541-1.737c1.531-2.073,7.998-0.172,9.959,0.259   c0.156,0.034,0.311,0.078,0.467,0.114C57.664,23.64,56.01,24.714,54.766,26.076z M51.891,31.058   c-0.967-0.911-2.314-2.779-2.99-4.665c1.619,0.436,3.301,0.721,4.918,0.92c-0.76,1.176-1.246,2.516-1.299,4.063   c-0.004,0.079,0.008,0.148,0.008,0.226C52.313,31.424,52.094,31.25,51.891,31.058z M57.174,36.224   c0.006,0.017,0.01,0.034,0.014,0.052c-0.029-0.024-0.059-0.048-0.088-0.072C57.125,36.21,57.149,36.217,57.174,36.224z    M58.903,40.032c0.176,0.066,0.367,0.121,0.549,0.182c0.107,0.124,0.225,0.239,0.338,0.358c-0.133,0.041-0.264,0.083-0.395,0.125   C59.182,40.461,59.018,40.239,58.903,40.032z M75.104,49.425c-3.49-0.123-6.973-0.733-10.367-1.527   c-2.535-0.592-5.445-1.325-7.426-3.103c-0.799-0.717-0.604-1.365,0.133-1.931c3.172,2.815,9.877,4.083,12.539,4.386   c3.455,0.394,8.787,0.456,13.148-0.894c0.447,0.602,0.814,1.262,1.102,1.978C81.334,49.373,76.43,49.472,75.104,49.425z    M85.744,45.297c0.084-0.044,0.166-0.091,0.248-0.137c0.037,0.061,0.086,0.116,0.123,0.177c0.217,0.369,0.311,0.705,0.303,1.011   C86.227,45.99,85.996,45.64,85.744,45.297z M97.166,38.546c-2.34,1.504-4.986,2.638-7.775,3.461   c0.027-0.045,0.063-0.083,0.088-0.129c0.441-0.782,0.617-1.587,0.588-2.402c1.762-0.333,3.244-0.642,4.328-0.87   c1.164-0.246,2.537-1.574,0.518-1.148c-1.045,0.22-2.807,0.535-5.02,0.856c-0.223-0.839-0.639-1.678-1.191-2.502   c3.525,0.142,7.783,0.222,11.789-0.275C99.522,36.736,98.35,37.786,97.166,38.546z M97.436,10.56   c3.85,3.26,7.178,7.253,9.518,11.725c1.041,1.99,1.926,4.065,2.289,6.289c0.484,2.96-1.973,4.102-4.453,4.691   c0.742-1.488,1.053-3.117,0.723-4.81c0.654-0.559,1.26-1.169,1.793-1.843c0.113-0.143,0.207-0.266,0.045-0.415   c-1.656-1.534-3.813-2.502-6.123-3.143c-1.564-0.814-3.406-1.39-5.215-1.822c-0.104-0.355-0.215-0.714-0.359-1.09   c-1.998-5.169-8.424-8.427-13.172-10.428C77.346,7.55,71.934,6.06,66.414,5.332C74.44-3.068,89.426,3.779,97.436,10.56z    M51.932,6.604c3.744-0.784,7.682-0.77,11.586-0.276c-1.322,1.442-2.445,3.096-3.307,4.929c-1.535,3.263-1.83,6.688-1.1,9.807   c-0.068-0.013-0.139-0.029-0.207-0.042c-3.799-0.715-9.435-1.466-12.506,1.584c-0.07,0.068-0.127,0.14-0.189,0.211   c-0.705-0.51-1.365-1.076-1.955-1.725C38.742,15.032,46.123,7.821,51.932,6.604z"></path><polygon points="141.752,221.761 146.752,221.761 146.752,211.662 160.871,211.662 160.871,196.518 146.752,196.518    146.752,189.342 170.092,189.342 170.094,238.587 175.096,238.587 175.094,184.342 141.752,184.342 141.752,196.518    127.637,196.518 127.637,211.662 141.752,211.662  "></polygon><path d="M182.172,288.902V249.08h-38.809v-5.171h-6.396c-0.279-1.632-0.699-3.216-1.26-4.733l5.531-3.194l-4.506-7.807   l-5.539,3.197c-1.045-1.258-2.205-2.417-3.463-3.464l3.197-5.538l-7.805-4.508l-3.195,5.532c-1.518-0.561-3.102-0.982-4.734-1.26   v-6.396h-9.016v6.396c-1.633,0.278-3.217,0.699-4.734,1.26l-3.193-5.531l-7.807,4.507l3.197,5.538   c-1.258,1.047-2.418,2.207-3.465,3.464l-5.537-3.197l-4.508,7.805l5.533,3.194c-0.563,1.518-0.982,3.102-1.262,4.735h-6.395v5.171   H61.817v39.821h-9.586v7h136.863v-7H182.172z M101.108,248.416c0-5.289,4.289-9.576,9.578-9.576s9.578,4.287,9.578,9.576   c0,0.224-0.019,0.444-0.033,0.664h-19.09C101.125,248.86,101.108,248.641,101.108,248.416z"></path><polygon points="102.817,201.094 95.963,176.521 88.92,183.338 81.584,165.876 77.801,167.791 88.125,188.355 94.026,181.788    101.932,201.492  "></polygon><polygon points="110.432,200.606 115.733,179.686 107.692,181.732 109.647,165.829 106.065,165.644 105.002,185.083    112.094,182.741 109.617,200.528  "></polygon><polygon points="79.92,199.79 68.141,189.298 65.981,192.096 81.123,203.847 83.205,196.794 96.219,208.766 96.739,208.154    82.772,192.139  "></polygon></g></svg>