<svg fill="#FFFFFF" xmlns:dc="http://purl.org/dc/elements/1.1/" xmlns:cc="http://creativecommons.org/ns#" xmlns:rdf="http://www.w3.org/1999/02/22-rdf-syntax-ns#" xmlns:svg="http://www.w3.org/2000/svg" xmlns="http://www.w3.org/2000/svg" xmlns:sodipodi="http://sodipodi.sourceforge.net/DTD/sodipodi-0.dtd" xmlns:inkscape="http://www.inkscape.org/namespaces/inkscape" viewBox="0 0 1052.5 811.03666" version="1.1" x="0px" y="0px"><g transform="translate(1412.3054,-8564.5107)"><path style="" d="m -1119.2917,9373.9055 c -16.0306,-3.4879 -31.6225,-14.4524 -39.687,-27.9086 -6.6114,-11.0313 -8.879,-19.2324 -8.879,-32.1115 0,-12.8792 2.2676,-21.0802 8.879,-32.1116 8.0645,-13.4562 23.6564,-24.4206 39.687,-27.9086 7.1451,-1.5546 5.8477,-1.6622 -21.18,-1.7555 l -28.7913,-0.099 -12.1462,-24.7013 c -6.6804,-13.5857 -12.1462,-25.117 -12.1462,-25.625 0,-0.5081 146.5313,-0.9237 325.62499,-0.9237 l 325.6251,0 0,-21.8727 0,-21.8728 -336.9112,-0.3148 -336.91119,-0.3147 -98.0888,-200.2693 c -53.9489,-110.1481 -98.0889,-201.1325 -98.0889,-202.1875 0,-1.7029 8.364,-1.9183 74.492,-1.9183 l 74.4921,0 0.732,-2.8125 c 0.4026,-1.5468 3.26,-7.875 6.3496,-14.0625 4.6072,-9.2265 7.6583,-13.2824 16.9634,-22.55 19.091,-19.0139 39.1063,-27.3405 65.7209,-27.3405 26.6146,0 46.63,8.3266 65.7209,27.3405 9.3052,9.2676 12.3563,13.3235 16.9634,22.55 3.0897,6.1875 5.947,12.5157 6.3496,14.0625 0.7282,2.7975 0.8609,2.8122 24.9116,2.7453 l 24.1795,-0.067 -6.8769,-2.2015 c -14.1525,-4.5304 -25.0638,-11.4009 -36.9231,-23.2494 -18.9966,-18.9791 -27.3405,-39.0189 -27.3405,-65.6647 0,-26.64 8.3407,-46.6753 27.3405,-65.6751 18.9997,-18.9997 39.035,-27.3404 65.675,-27.3404 26.64009,0 46.67529,8.3407 65.67509,27.3404 18.9998,18.9998 27.3405,39.0351 27.3405,65.6751 0,26.6458 -8.3439,46.6856 -27.3405,65.6647 -11.8593,11.8485 -22.7707,18.719 -36.9231,23.2495 l -6.877,2.2014 36.9897,0.067 36.9896,0.067 1.5711,-5.3125 c 5.9491,-20.1157 25.2808,-43.1784 44.5204,-53.1126 15.4583,-7.9817 27.1416,-10.8404 44.3042,-10.8404 17.1627,0 28.846,2.8587 44.3043,10.8404 19.2396,9.9342 38.5713,32.9969 44.5204,53.1126 l 1.5711,5.3125 29.4896,-0.067 29.4897,-0.067 -6.877,-2.2014 c -14.1524,-4.5305 -25.0638,-11.401 -36.9231,-23.2495 -18.9966,-18.9791 -27.3405,-39.0189 -27.3405,-65.6647 0,-26.64 8.3407,-46.6753 27.3405,-65.6751 18.9998,-18.9997 39.035,-27.3404 65.6751,-27.3404 26.64,0 46.6753,8.3407 65.675,27.3404 18.9998,18.9998 27.3405,39.0351 27.3405,65.6751 0,26.6458 -8.3439,46.6856 -27.3405,65.6647 -11.8593,11.8485 -22.7706,18.719 -36.9231,23.2495 -6.8534,2.1939 -6.7282,2.2016 36.5606,2.2686 l 43.4375,0.067 0,-93.75 0,-93.75 93.75,0 93.75,0 0,31.25 0,31.25 -61.875,0 -61.875,0 0,312.5 0,312.5001 -28.4375,0.099 c -26.7334,0.093 -27.9814,0.1987 -20.8262,1.7555 16.0306,3.488 31.6225,14.4524 39.687,27.9086 6.6114,11.0314 8.879,19.2324 8.879,32.1116 0,24.3545 -12.8603,44.6673 -34.9273,55.1678 -34.2297,16.2879 -74.2212,-0.8641 -86.3689,-37.0428 -3.1335,-9.3322 -3.1335,-26.9178 0,-36.25 7.1309,-21.2375 24.7798,-37.2221 46.2575,-41.8952 6.4016,-1.3929 -35.9977,-1.6561 -266.7636,-1.6561 -230.76599,0 -273.16529,0.2632 -266.76369,1.6561 16.0306,3.488 31.6224,14.4524 39.687,27.9086 6.6113,11.0314 8.8789,19.2324 8.8789,32.1116 0,7.6236 -0.7441,13.4661 -2.3084,18.125 -7.2267,21.5228 -24.8268,37.2857 -46.8414,41.952 -10.0452,2.1293 -15.9006,2.1164 -25.8888,-0.057 z" fill="#FFFFFF"></path></g></svg>