<svg fill="#002451" xmlns="http://www.w3.org/2000/svg" xmlns:xlink="http://www.w3.org/1999/xlink" xmlns:sketch="http://www.bohemiancoding.com/sketch/ns" viewBox="0 0 30 30" version="1.1" x="0px" y="0px"><title>shopping_021-basket-shop-buy-goods</title><desc>Created with Sketch.</desc><g stroke="none" stroke-width="1" fill="none" fill-rule="evenodd" sketch:type="MSPage"><g sketch:type="MSArtboardGroup" transform="translate(-405.000000, -90.000000)" fill="#002451"><g sketch:type="MSLayerGroup" transform="translate(408.000000, 95.000000)"><path d="M0,7.5 L0,9.5 C0,9.77614237 0.223857625,10 0.5,10 L24.5,10 C24.7761424,10 25,9.77614237 25,9.5 L25,7.5 C25,7.22385763 24.7761424,7 24.5,7 L0.5,7 C0.223857625,7 0,7.22385763 0,7.5 Z" sketch:type="MSShapeGroup"></path><path d="M1.14644661,16.1464466 C0.951184464,16.3417088 0.951184464,16.6582912 1.14644661,16.8535534 C1.34170876,17.0488155 1.65829124,17.0488155 1.85355339,16.8535534 L8.85355339,9.85355339 C9.04881554,9.65829124 9.04881554,9.34170876 8.85355339,9.14644661 C8.65829124,8.95118446 8.34170876,8.95118446 8.14644661,9.14644661 L1.14644661,16.1464466 Z" sketch:type="MSShapeGroup"></path><path d="M23.8535534,16.1464466 C24.0488155,16.3417088 24.0488155,16.6582912 23.8535534,16.8535534 C23.6582912,17.0488155 23.3417088,17.0488155 23.1464466,16.8535534 L16.1464466,9.85355339 C15.9511845,9.65829124 15.9511845,9.34170876 16.1464466,9.14644661 C16.3417088,8.95118446 16.6582912,8.95118446 16.8535534,9.14644661 L23.8535534,16.1464466 Z" sketch:type="MSShapeGroup"></path><path d="M4.01492875,21.6212678 C4.07057463,21.8438513 4.27056618,22 4.5,22 L20.5,22 C20.7293624,22 20.929311,21.8439465 20.9850248,21.6214536 L23.9899076,9.62145355 C24.0569845,9.35358176 23.8942082,9.08205217 23.6263364,9.01497522 C23.3584646,8.94789828 23.086935,9.11067466 23.019858,9.37854645 L20.1065674,20.9999998 L4.89453123,20.9999998 L1.98507125,9.37873219 C1.91809689,9.11083473 1.64662964,8.94795439 1.37873219,9.01492875 C1.11083473,9.08190311 0.947954386,9.35337036 1.01492875,9.62126781 L4.01492875,21.6212678 Z" sketch:type="MSShapeGroup"></path><path d="M9.82061007,4.80007283 L5.09301719,3.17223206 L3.42365083,8.02042402 L2.36603015,8.02042402 L4.3102827,2.37390462 C4.40018586,2.11280688 4.68472832,1.97402625 4.94582606,2.06392941 L7.69906287,3.01194487 L11.0299629,0.216987894 C11.2415002,0.0394869967 11.556878,0.0670789787 11.7343789,0.278616311 L14.7248989,3.84257921 L16.4686669,0.822284309 C16.6067381,0.583137997 16.9125333,0.501200419 17.1516796,0.639271607 L22.3478321,3.63927161 C22.5869784,3.77734279 22.668916,4.083138 22.5308448,4.32228431 L20.9730731,7.02042402 L19.8183725,7.02042402 L21.4148194,4.25529701 L17.0846923,1.75529701 L15.4089392,4.65778668 L15.5911046,4.87488297 C15.7686055,5.0864203 15.7410135,5.4017981 15.5294762,5.579299 L13.8120102,7.02042402 L9.05608185,7.02042402 L9.82061007,4.80007283 Z" sketch:type="MSShapeGroup"></path></g></g></g></svg>