<svg fill="#FFFFFF" xmlns="http://www.w3.org/2000/svg" data-name="Layer 1" viewBox="0 0 100 100" x="0px" y="0px"><title>Artboard 20</title><path d="M53.43,28.73V75H60a2.06,2.06,0,0,1,0,4.13H51.37A2.06,2.06,0,0,1,49.3,77.1V53.86H42.73a2.06,2.06,0,1,1,0-4.13H49.3V26.67a2.06,2.06,0,0,1,2.06-2.06H60a2.06,2.06,0,0,1,0,4.13ZM40.7,67a3.9,3.9,0,0,0-1.41-3,63.57,63.57,0,0,0-10.59-6.92L25.87,72.59H40.7ZM13.41,49.45a9,9,0,0,0,1.12,3.06v2.72l5.89,4.29-2.21,2.82,1.49,2.39-1.16,7.87h5l-1.16-7.87,1.49-2.39-2.21-2.82,5.89-4.28V52.47a8.79,8.79,0,0,0,1.12-3c.43,0,1-.63,1.6-2.77.83-2.93-.05-3.36-.8-3.29a7.72,7.72,0,0,0,.32-1.2c1.26-7.58-2.47-7.85-2.47-7.85a5.74,5.74,0,0,0-2.25-2.09,7.58,7.58,0,0,0-4.62-1,6.71,6.71,0,0,0-1.84.35h0a8.11,8.11,0,0,0-2,1,10.83,10.83,0,0,0-2.08,1.72,8.39,8.39,0,0,0-2.25,3.95,8.57,8.57,0,0,0,0,3.86h0a7.7,7.7,0,0,0,.32,1.2c-.75-.07-1.63.36-.8,3.29C12.42,48.81,13,49.41,13.41,49.45Zm0,7.67A63.57,63.57,0,0,0,2.81,64,3.9,3.9,0,0,0,1.4,67v5.54H16.23ZM87.34,78.31a.31.31,0,0,1-.18-.28V74.78a7.81,7.81,0,0,0,1-2.66c.37,0,.86-.55,1.39-2.42.7-2.46,0-2.9-.63-2.87,1.58-7.22-2.48-7.24-2.48-7.24a4.09,4.09,0,0,0-4.49-2.67,27.39,27.39,0,0,1-6.13-.05,2,2,0,0,0,.69,1.48c-3.63,2.21-2.79,7.08-2.47,8.48-.62,0-1.26.47-.58,2.87.53,1.86,1,2.39,1.39,2.42a7.81,7.81,0,0,0,1,2.66V78a.31.31,0,0,1-.18.28,55.41,55.41,0,0,0-10,6.44,3.39,3.39,0,0,0-1.23,2.62v4.82H98.6V87.37a3.39,3.39,0,0,0-1.23-2.62A55.42,55.42,0,0,0,87.34,78.31Zm0-49a.31.31,0,0,1-.18-.28V25.73a7.81,7.81,0,0,0,1-2.66c.37,0,.86-.55,1.39-2.42.7-2.46,0-2.9-.63-2.87,1.58-7.22-2.48-7.24-2.48-7.24a4.09,4.09,0,0,0-4.49-2.67,27.39,27.39,0,0,1-6.13-.05,2,2,0,0,0,.69,1.48c-3.63,2.21-2.79,7.08-2.47,8.48-.62,0-1.26.47-.58,2.87.53,1.86,1,2.39,1.39,2.42a7.81,7.81,0,0,0,1,2.66V29a.31.31,0,0,1-.18.28,55.41,55.41,0,0,0-10,6.44,3.39,3.39,0,0,0-1.23,2.62v4.82H98.6V38.32a3.39,3.39,0,0,0-1.23-2.62A55.42,55.42,0,0,0,87.34,29.26Z"></path></svg>