<svg fill="#FFFFFF" xmlns="http://www.w3.org/2000/svg" xmlns:xlink="http://www.w3.org/1999/xlink" version="1.1" x="0px" y="0px" viewBox="0 0 100 100" enable-background="new 0 0 100 100" xml:space="preserve"><g><path d="M49.861,36.061c9.127,0,16.528-7.403,16.528-16.53C66.39,10.401,58.988,3,49.861,3c-9.131,0-16.533,7.401-16.533,16.53   C33.329,28.658,40.73,36.061,49.861,36.061z"></path><path d="M95.431,85.258C95.334,85.383,95.437,85.25,95.431,85.258L95.431,85.258z"></path><path d="M95.688,76.766L74.473,42.332c-1.634-2.649-4.148-3.515-7.526-3.523l-0.117-0.015H32.962l-0.116,0.015   c-3.377,0.009-5.894,0.874-7.525,3.523L4.108,76.766c-0.812,1.306-1.195,2.87-1.091,4.404c0.102,1.49,0.662,2.904,1.564,4.088   c2.089,2.668,5.987,3.674,9.058,2.137l11.878-5.641v14.337h48.758V81.754l11.88,5.641c3.07,1.537,6.97,0.531,9.059-2.137   c0.901-1.184,1.462-2.598,1.564-4.088C96.882,79.636,96.498,78.071,95.688,76.766z M74.275,65.271l-0.157-0.074   c-1.126-0.536-2.321-0.762-3.487-0.714c-2.677,0.107-5.202,1.658-6.431,4.246c-1.764,3.714-0.182,8.154,3.532,9.917l1.75,0.832   l-19.407,6.666l-0.179,0.062l-0.177-0.062l-19.409-6.666l1.75-0.832c3.714-1.763,5.295-6.203,3.532-9.917   c-1.229-2.588-3.754-4.139-6.43-4.246c-1.166-0.048-2.36,0.178-3.488,0.714l-0.157,0.074V47.983l24.378,8.374v0.001h0.001h0.002   v-0.001l24.377-8.374V65.271z"></path></g></svg>