<svg xmlns="http://www.w3.org/2000/svg" xmlns:xlink="http://www.w3.org/1999/xlink" version="1.1" x="0px" y="0px" viewBox="0 0 65 65" enable-background="new 0 0 65 65" xml:space="preserve"><g><path d="M61.5,3.7h-58c-2.1,0-3.8,1.7-3.8,3.7v47.4c0,2.1,1.7,3.8,3.8,3.8h35.1v1.8h1.5v-4.7l-3.4-2.3c-0.2-0.2-0.4-0.4-0.4-0.7   v-1.9V42v-0.3c1.3,0.3,2.2,1.5,2.2,2.9v0.3v5.8h1.5v-3.5c0.3,0.2,0.7,0.2,1.1,0.2c0.7,0,1.4-0.3,1.9-0.8c0.5,0.5,1.1,0.8,1.9,0.8   c0.7,0,1.4-0.3,1.9-0.8c0.5,0.5,1.1,0.8,1.9,0.8c0.7,0,1.4-0.3,1.9-0.8c0.5,0.5,1.1,0.8,1.9,0.8c0.4,0,0.8-0.1,1.1-0.3v5.7   c0,0.3-0.1,0.6-0.2,0.8l-0.6,1.4c-0.3,0.6-0.4,1.2-0.4,1.8v4.4h1.5v-2.7h7.7c2.1,0,3.8-1.7,3.8-3.8V7.5C65.3,5.4,63.6,3.7,61.5,3.7   z M3.5,5.2h58c1.2,0,2.3,1,2.3,2.3v4.2H1.3V7.5C1.3,6.2,2.3,5.2,3.5,5.2z M34.8,49.3H24l-0.2,0.4c-1.2,2.2-3.5,3.6-6.1,3.6   c-2.3,0-4.5-1.2-5.7-3.1h3.3l3.3-3.9l-3.3-3.9h-3.2c1.3-1.8,3.4-2.9,5.6-2.9c2.5,0,4.9,1.4,6.1,3.6l0.2,0.4h10.8V49.3z M41.1,45.9   c-0.6,0-1.1-0.5-1.1-1.1v-0.3v-4.8c0-0.6,0.5-1.1,1.1-1.1c0.6,0,1.2,0.5,1.2,1.2v4.9C42.3,45.4,41.8,45.9,41.1,45.9z M44.9,45.9   c-0.6,0-1.1-0.5-1.1-1.1v-0.1v-4.9v-0.1c0-0.6,0.5-1.1,1.1-1.1c0.6,0,1.1,0.5,1.1,1.1v5C46,45.4,45.5,45.9,44.9,45.9z M48.7,45.9   c-0.6,0-1.1-0.5-1.1-1.1v-5c0-0.6,0.5-1.1,1.1-1.1s1.1,0.5,1.1,1.1v2.1v2.9C49.8,45.4,49.3,45.9,48.7,45.9z M52.4,45.9   c-0.6,0-1.1-0.5-1.1-1.1v-2.9c0-0.6,0.5-1.1,1.1-1.1c0.6,0,1.1,0.5,1.1,1.1v2.7v0.1C53.5,45.4,53,45.9,52.4,45.9z M61.5,57.1h-7.7   v-0.2c0-0.4,0.1-0.8,0.3-1.1l0.6-1.4c0.2-0.5,0.3-1,0.3-1.5v-8v-0.1v-2.7c0-1.4-1.2-2.6-2.6-2.6c-0.4,0-0.8,0.1-1.1,0.3   c-0.1-1.3-1.2-2.3-2.6-2.3c-0.7,0-1.4,0.3-1.9,0.8c-0.5-0.5-1.1-0.8-1.9-0.8c-0.7,0-1.4,0.3-1.9,0.8c-0.5-0.5-1.2-0.8-1.9-0.8   c-1.4,0-2.6,1.2-2.6,2.6v1.4c-0.8-0.7-1.8-1.2-3-1.2h-0.8V42h-9.9c-1.5-2.5-4.2-4-7.2-4c-3.2,0-6.2,1.9-7.6,4.8l-0.5,1.1h4.9l2,2.4   l-2,2.4h-5l0.5,1.1c1.3,3,4.4,5,7.7,5c2.9,0,5.7-1.5,7.2-4h9.9v1.9c0,0.8,0.4,1.5,1,2l2.7,1.9v0.6H3.5c-1.2,0-2.3-1-2.3-2.3V13.2   h62.5v41.7C63.8,56.1,62.7,57.1,61.5,57.1z"></path><rect x="58.7" y="7.7" width="1.5" height="1.5"></rect><rect x="51.1" y="7.7" width="1.5" height="1.5"></rect><rect x="54.9" y="7.7" width="1.5" height="1.5"></rect><rect x="5.7" y="7.7" width="40.3" height="1.5"></rect><path d="M29.5,31.8h31.6V17.3H29.5V31.8z M31,18.8h28.6v11.6H31V18.8z"></path><path d="M3.8,31.8h22.7V17.3H3.8V31.8z M16.6,24.6l8.4-5.2v10.4L16.6,24.6z M23.2,30.3H7.2l8-4.9L23.2,30.3z M15.2,23.7l-8-4.9   h15.9L15.2,23.7z M13.8,24.6l-8.4,5.2V19.4L13.8,24.6z"></path></g></svg>