<svg xmlns="http://www.w3.org/2000/svg" xmlns:xlink="http://www.w3.org/1999/xlink" version="1.1" x="0px" y="0px" viewBox="0 0 100 100" enable-background="new 0 0 100 100" xml:space="preserve"><g><path d="M62.337,28.697h1.003c0.537,5.797,4.105,10.438,8.421,10.438c4.317,0,7.884-4.641,8.423-10.438h1.004   c0.584,0,0.975-0.456,0.975-1.04v-1.919c0-0.584-0.391-1.155-0.975-1.155h-0.233c-0.354-2.991-1.714-5.571-3.658-7.286   l-2.359,6.929l0.819-7.981c-0.983-0.554-2.066-0.885-3.205-0.984c-0.26-0.034-0.522-0.055-0.79-0.055   c-0.542,0-1.069,0.084-1.581,0.223c-0.693,0.162-1.362,0.409-1.992,0.745l0.83,8.077l-2.396-7.058   c-2.011,1.711-3.425,4.213-3.787,7.391h-0.497c-0.585,0-1.118,0.571-1.118,1.155v1.919C61.219,28.241,61.752,28.697,62.337,28.697z    M78.059,28.697c-0.479,4.675-3.116,8.321-6.298,8.321c-3.18,0-5.817-3.646-6.298-8.321H78.059z"></path><rect x="61.593" y="53.754" width="2.245" height="2.243"></rect><rect x="80.292" y="53.754" width="2.245" height="2.243"></rect><path d="M59.537,52.071h24.869v9.162h7.293v-6.191c0-5.813-3.18-10.82-8.041-13.242v8.963H79.17V40.411   c-0.373-0.069-0.922-0.12-1.404-0.146c-1.627,1.256-3.684,2.01-5.941,2.01s-4.287-0.754-5.914-2.01   c-0.398,0.022-0.764,0.069-1.139,0.121v10.377h-4.301v-9.096c-5.049,2.371-8.602,7.46-8.602,13.375v6.191h7.666L59.537,52.071   L59.537,52.071z"></path><path d="M49.251,62.917V59.81c0-0.553-0.313-1.008-0.865-1.008h-0.444v-1.407c0-0.552-0.503-1.022-1.055-1.022h-0.815v-8.977   h-3.552v8.977h-0.879c-0.552,0-1.178,0.471-1.178,1.022v1.407h-0.488c-0.552,0-1.008,0.455-1.008,1.008v3.107h-8.415v-9.77   c0-1.46-0.631-2.769-1.64-3.668l7.277-10.188c0.344-0.482,0.379-1.094,0.144-1.595l4.421-0.917l0.828,0.866   c-0.228,0.274-0.371,0.626-0.371,1.011v2.332v0.666v4.498c0,0.138,0.125,0.31,0.263,0.31h2.165c0.139,0,0.19-0.172,0.19-0.31v-2.87   h0.748v2.87c0,0.138,0.257,0.31,0.395,0.31h2.165c0.139,0,0.245-0.172,0.245-0.31v-4.498v-0.666v-2.333   c0-0.863-0.69-1.564-1.55-1.58l-3.875-4.028l-0.343-1.659c-0.087-0.42-0.498-0.689-0.917-0.602l-10.611,2.2l-1.445-1.032   c-0.712-0.508-1.7-0.388-2.208,0.323L15.071,48.145h-2.912c-2.714,0-4.98,2.29-4.98,5.003v9.77H5.497v21.877h89.007V62.917H49.251z    M44.375,38.38c0.881,0,1.596,0.715,1.596,1.595c0,0.883-0.715,1.596-1.596,1.596c-0.881,0-1.596-0.713-1.596-1.596   C42.779,39.095,43.494,38.38,44.375,38.38z M38.894,32.115c0.978,0,1.769,0.792,1.769,1.77s-0.792,1.77-1.769,1.77   c-0.978,0-1.771-0.792-1.771-1.77S37.916,32.115,38.894,32.115z M18.904,59.56c-2.188,0-3.963-1.774-3.963-3.962   c0-2.189,1.774-3.964,3.963-3.964c2.189,0,3.963,1.774,3.963,3.964C22.867,57.785,21.093,59.56,18.904,59.56z M26.831,38.21   c0-1.411,1.144-2.556,2.555-2.556c1.411,0,2.555,1.145,2.555,2.556s-1.144,2.555-2.555,2.555   C27.975,40.765,26.831,39.621,26.831,38.21z"></path></g></svg>