<svg fill="#002451" xmlns="http://www.w3.org/2000/svg" xmlns:xlink="http://www.w3.org/1999/xlink" version="1.1" x="0px" y="0px" viewBox="0 0 24 20" style="enable-background:new 0 0 24 20;" xml:space="preserve"><title>6 -Industry Stock- (Solid)</title><desc>Created with Sketch.</desc><path d="M23,12V6c0-0.6-0.4-1-1-1h-5V1c0-0.6-0.4-1-1-1H6C5.4,0,5,0.4,5,1v7H1C0.4,8,0,8.4,0,9v10c0,0.6,0.4,1,1,1h10h8h4  c0.6,0,1-0.4,1-1v-6C24,12.4,23.6,12,23,12z M11,8H7V2h8v3h-1c-0.6,0-1,0.4-1,1v4h-1V9C12,8.4,11.6,8,11,8z M18,13v5h-6v-6h2h4V13z   M22,18h-2v-4h2V18z"></path></svg>