<svg fill="#FFFFFF" xmlns:dc="http://purl.org/dc/elements/1.1/" xmlns:cc="http://creativecommons.org/ns#" xmlns:rdf="http://www.w3.org/1999/02/22-rdf-syntax-ns#" xmlns:svg="http://www.w3.org/2000/svg" xmlns="http://www.w3.org/2000/svg" xmlns:sodipodi="http://sodipodi.sourceforge.net/DTD/sodipodi-0.dtd" xmlns:inkscape="http://www.inkscape.org/namespaces/inkscape" viewBox="0 0 32 32.000001" version="1.1" x="0px" y="0px"><g transform="translate(0,-1020.3622)"><path style="color:#000000;font-style:normal;font-variant:normal;font-weight:normal;font-stretch:normal;font-size:medium;line-height:normal;font-family:sans-serif;text-indent:0;text-align:start;text-decoration:none;text-decoration-line:none;text-decoration-style:solid;text-decoration-color:#000000;letter-spacing:normal;word-spacing:normal;text-transform:none;direction:ltr;block-progression:tb;writing-mode:lr-tb;baseline-shift:baseline;text-anchor:start;white-space:normal;clip-rule:nonzero;display:inline;overflow:visible;visibility:visible;opacity:1;isolation:auto;mix-blend-mode:normal;color-interpolation:sRGB;color-interpolation-filters:linearRGB;solid-color:#000000;solid-opacity:1;fill:#FFFFFF;fill-opacity:1;fill-rule:nonzero;stroke:none;stroke-width:1;stroke-linecap:round;stroke-linejoin:round;stroke-miterlimit:4;stroke-dasharray:none;stroke-dashoffset:1.5;stroke-opacity:1;color-rendering:auto;image-rendering:auto;shape-rendering:auto;text-rendering:auto;enable-background:accumulate" d="M 4.5 2 A 0.50005 0.50005 0 0 0 4 2.5 L 4 29.501953 A 0.50005 0.50005 0 0 0 4.5 30.001953 L 8.6875 30.001953 L 13.998047 30.001953 L 23.5 30.001953 A 0.50005 0.50005 0 0 0 24 29.501953 L 24 26.5 A 0.50005 0.50005 0 1 0 23 26.5 L 23 29.001953 L 13.998047 29.001953 L 8.6875 29.001953 L 5 29.001953 L 5 3 L 19 3 L 19 6.5019531 A 0.50005 0.50005 0 0 0 19.5 7.0019531 L 23 7.0019531 L 23 9.4941406 L 23 9.5898438 A 0.50005 0.50005 0 1 0 24 9.5898438 L 24 9.4941406 L 24 6.5332031 A 0.50005 0.50005 0 0 0 24 6.5097656 A 0.50005 0.50005 0 0 0 23.853516 6.1484375 L 19.853516 2.1484375 A 0.50005 0.50005 0 0 0 19.492188 2.0019531 A 0.50005 0.50005 0 0 0 19.427734 2.0058594 A 0.50005 0.50005 0 0 0 19.34375 2 L 4.5 2 z M 20 3.7089844 L 22.292969 6.0019531 L 20 6.0019531 L 20 3.7089844 z M 7.4492188 5.0019531 A 0.50064427 0.50064427 0 0 0 7.5 6.0019531 L 8.5 6.0019531 A 0.50005 0.50005 0 1 0 8.5 5.0019531 L 7.5 5.0019531 A 0.50005 0.50005 0 0 0 7.4492188 5.0019531 z M 10.464844 5.0019531 A 0.50064426 0.50064426 0 1 0 10.515625 6.0019531 L 14.492188 6.0019531 A 0.50005 0.50005 0 1 0 14.492188 5.0019531 L 10.515625 5.0019531 A 0.50005 0.50005 0 0 0 10.464844 5.0019531 z M 7.4492188 7.0019531 A 0.50064427 0.50064427 0 0 0 7.5 8.0019531 L 8.5 8.0019531 A 0.50005 0.50005 0 1 0 8.5 7.0019531 L 7.5 7.0019531 A 0.50005 0.50005 0 0 0 7.4492188 7.0019531 z M 10.464844 7.0019531 A 0.50064426 0.50064426 0 1 0 10.515625 8.0019531 L 14.492188 8.0019531 A 0.50005 0.50005 0 1 0 14.492188 7.0019531 L 10.515625 7.0019531 A 0.50005 0.50005 0 0 0 10.464844 7.0019531 z M 25.458984 8.4003906 A 0.50005 0.50005 0 0 0 25.509766 9.4003906 L 25.779297 9.4003906 L 22.375 12.914062 L 18.679688 11.478516 A 0.50005 0.50005 0 0 0 18.208984 11.537109 L 13.210938 15.09375 A 0.50005 0.50005 0 1 0 13.789062 15.908203 L 18.568359 12.509766 L 22.322266 13.966797 A 0.50005 0.50005 0 0 0 22.863281 13.849609 L 26.503906 10.091797 L 26.503906 10.394531 A 0.50005 0.50005 0 1 0 27.503906 10.394531 L 27.503906 8.9003906 A 0.50005 0.50005 0 0 0 27.003906 8.4003906 L 25.509766 8.4003906 A 0.50005 0.50005 0 0 0 25.458984 8.4003906 z M 11.492188 8.9941406 A 0.50004997 0.50004997 0 0 0 11 9.5 L 11 22.5 A 0.50004997 0.50004997 0 0 0 11.5 23 L 28.5 23 A 0.50004997 0.50004997 0 1 0 28.5 22 L 28 22 L 28 12.5 A 0.50005 0.50005 0 0 0 27.5 12 L 25.5 12 A 0.50005 0.50005 0 0 0 25 12.5 L 25 22 L 24 22 L 24 15.5 A 0.50004997 0.50004997 0 0 0 23.5 15 L 21.5 15 A 0.50004997 0.50004997 0 0 0 21 15.5 L 21 22 L 20 22 L 20 14.498047 A 0.50005 0.50005 0 0 0 19.5 13.998047 L 17.5 13.998047 A 0.50005 0.50005 0 0 0 17 14.498047 L 17 22 L 16 22 L 16 17.5 A 0.50005 0.50005 0 0 0 15.5 17 L 13.5 17 A 0.50005 0.50005 0 0 0 13 17.5 L 13 22 L 12 22 L 12 9.5 A 0.50004997 0.50004997 0 0 0 11.492188 8.9941406 z M 26 13 L 27 13 L 27 21.986328 L 26 21.986328 L 26 13 z M 18 14.998047 L 19 14.998047 L 19 21.986328 L 18 21.986328 L 18 14.998047 z M 22 16 L 23 16 L 23 21.986328 L 22 21.986328 L 22 16 z M 14 18 L 15 18 L 15 21.986328 L 14 21.986328 L 14 18 z M 14.451172 24.001953 A 0.50059574 0.50059574 0 0 0 14.5 25.001953 L 25.496094 25.001953 A 0.50005 0.50005 0 1 0 25.496094 24.001953 L 14.5 24.001953 A 0.50005 0.50005 0 0 0 14.451172 24.001953 z " transform="translate(0,1020.3622)"></path></g></svg>