<svg fill="#002451" xmlns="http://www.w3.org/2000/svg" xmlns:xlink="http://www.w3.org/1999/xlink" version="1.1" x="0px" y="0px" viewBox="0 0 346.689 348.398" style="enable-background:new 0 0 346.689 348.398;" xml:space="preserve"><g><path d="M138.598,175.128l9.932,42.604h12.836l-8.755-37.56C148.248,179.13,143.496,177.537,138.598,175.128z"></path><path d="M146.628,154.508l-15.21-65.252l-12.176,2.838l11.285,48.414C135.191,146.53,140.525,151.16,146.628,154.508z"></path><path d="M183.911,74.756L166.484,0L48.322,27.545l17.426,74.756L183.911,74.756z"></path><polygon points="190.03,258.766 180.392,326.435 205.105,326.435 195.468,258.766  "></polygon><polygon points="163.384,227.91 163.384,223.066 0,223.066 0,227.732 0,237.066 5.167,237.066 5.167,326.435 17.167,326.435    17.167,341.732 29.167,341.732 29.167,326.435 149.35,326.435  "></polygon><polygon points="223.477,223.066 223.477,237.48 236.146,326.435 272.168,326.435 272.168,341.732 284.168,341.732    284.168,326.435 296.168,326.435 296.168,237.066 301.334,237.066 301.334,227.732 301.334,223.066  "></polygon><path d="M206.447,187.599l7.449-25.002c-0.376-0.059-0.757-0.1-1.148-0.1h-38.636c-0.392,0-0.774,0.037-1.149,0.095l7.451,25.008   H206.447z"></path><path d="M241.453,150.4c-3.02,5.466-7.066,8.32-11.568,10.162c-2.631,1.063-5.389,1.651-7.88,1.96l-8.075,27.106v69.137h-15.432   l11.254,79.011c0.963,6.762,7.227,11.459,13.986,10.496c6.758-0.963,11.459-7.221,10.496-13.983l-13.758-96.591v-58.982   c6.09-0.347,14.482-1.799,22.516-7.015c4.732-3.09,9.219-7.588,12.506-13.639c3.303-6.045,5.396-13.534,5.902-22.547   c0.066-1.191-0.139-2.333-0.549-3.374l2.762-1.157l1.923-0.806l-0.582-1.384l-3.824-9.122l18.206-4.857l-13.082-31.202   l-49.979,29.504l6.982,16.658l12.516-3.339l5.781,13.793l0.208-0.087l3.252-1.363C244.334,143.723,243.034,147.494,241.453,150.4z    M243.163,136.303l-0.739-1.763l-3.725-8.885l19.505-5.203l2.795,6.666l0.608,1.452l-2.391,1.003   c-1.354-1.432-3.232-2.374-5.354-2.493c-4.41-0.25-8.189,3.125-8.438,7.535c-0.016,0.265-0.043,0.507-0.062,0.766L243.163,136.303z   "></path><path d="M172.931,189.622l-7.96-26.716c-5.098-0.335-12.045-1.636-19.315-5.504c-8.789-4.705-18.299-13.059-26.123-29.154   c-1.926-3.978-6.71-5.641-10.687-3.715c-3.977,1.924-5.641,6.707-3.717,10.685c9.076,18.833,21.281,30.116,33.021,36.314   c10.916,5.794,21.207,7.274,28.234,7.454v49.142l-15.121,106.162c-0.963,6.763,3.738,13.021,10.496,13.983   c6.76,0.963,13.023-3.734,13.986-10.496l11.254-79.011h-14.068V189.622z"></path><circle cx="193.43" cy="134.297" r="22.5"></circle><rect x="279.978" y="81.913" transform="matrix(0.9222 -0.3866 0.3866 0.9222 -8.1853 126.4129)" width="60.333" height="3.281"></rect><rect x="268.723" y="61.963" transform="matrix(0.7484 -0.6633 0.6633 0.7484 33.024 214.255)" width="60.333" height="3.282"></rect><rect x="286.315" y="103.925" transform="matrix(0.9976 -0.0693 0.0693 0.9976 -6.5582 22.1989)" width="60.334" height="3.282"></rect><rect x="16.313" y="183.399" width="33.333" height="33.333"></rect><rect x="56.23" y="183.399" width="33.333" height="33.333"></rect><rect x="96.147" y="183.399" width="33.332" height="33.333"></rect><rect x="235.146" y="204.399" width="52.834" height="12.333"></rect><rect x="235.146" y="186.399" width="52.834" height="12.333"></rect></g></svg>