<svg fill="#FFFFFF" xmlns="http://www.w3.org/2000/svg" xmlns:xlink="http://www.w3.org/1999/xlink" version="1.1" x="0px" y="0px" viewBox="0 0 326.9 238.184" style="enable-background:new 0 0 326.9 238.184;" xml:space="preserve"><g><path d="M0,134.621h47.141l43.813,43.814L44.049,225.34l8.161,8.161l46.905-46.905l46.905,46.905l8.161-8.161l-46.905-46.905   l43.813-43.814h47.141v-14.62H0V134.621z M99.115,170.272l-35.651-35.651h71.303L99.115,170.272z"></path><path d="M316.326,60.235c-4.805-3.126-9.97-5.043-14.065-6.349c-4.086-1.282-7.078-1.876-7.279-1.917   c-0.425-0.084-0.848-0.123-1.267-0.138c-0.454-0.083-0.919-0.133-1.397-0.133H291v39.306c3.845-2.09,6.79-3.92,9.046-5.468v-15.51   c1.301,0.473,2.638,1.012,3.914,1.615c2.471,1.143,4.658,2.556,5.798,3.7c1.191,1.229,1.131,1.6,1.142,1.721   c0,0.052-0.004,0.146-0.045,0.336c0,0.002-0.001,0.005-0.001,0.007c-0.097,0.599-1.017,2.55-3.976,5.312   c-0.582,0.542-1.233,1.113-1.982,1.714c-4.536,3.695-12.064,8.297-23.267,13.496c-4.007,1.862-5.745,6.622-3.883,10.628   c1.355,2.915,4.243,4.63,7.261,4.63c1.129,0,2.275-0.24,3.367-0.747c11.963-5.571,20.492-10.638,26.603-15.584   c1.054-0.862,2.04-1.725,2.966-2.593c4.265-3.998,7.141-8.114,8.395-12.878c0.04-0.138,0.083-0.274,0.115-0.416   c0.291-1.277,0.449-2.593,0.449-3.904c0.009-2.93-0.801-5.719-2.036-8.011C322.674,65.012,319.503,62.344,316.326,60.235z"></path><rect x="261" y="51.699" width="24" height="18.301"></rect><path d="M291,113.411V126h-36V51.699h-1.317c-0.47,0-0.928,0.049-1.375,0.129c-0.956,0.031-1.923,0.227-2.857,0.622l-0.001-0.001   h-0.002v0.001c0,0,0,0,0,0l0.001,0.001h-0.001V52.45c-0.688,0.279-11.203,4.364-27.896,4.36   c-11.345-0.004-25.547-1.866-41.671-8.091c-4.122-1.591-8.755,0.459-10.345,4.581c-1.593,4.122,0.459,8.754,4.581,10.345   c18.083,6.987,34.332,9.168,47.435,9.164c10.234-0.004,18.541-1.316,24.401-2.675V225.82c0,6.828,5.537,12.363,12.363,12.363   c6.828,0,12.365-5.535,12.365-12.363v-90.273h4.635v90.273c0,6.828,5.537,12.363,12.363,12.363c6.828,0,12.365-5.535,12.365-12.363   V108.881v-0.033C297.256,110.351,294.246,111.869,291,113.411z"></path><circle cx="273" cy="22.5" r="22.5"></circle><rect x="8" y="63.001" width="51" height="51"></rect><rect x="65" y="87.001" width="27" height="27"></rect><rect x="98" y="87.001" width="27" height="27"></rect><rect x="130" y="87.001" width="27" height="27"></rect><rect x="163" y="87.001" width="27" height="27"></rect></g></svg>