<svg fill="#FFFFFF" xmlns="http://www.w3.org/2000/svg" xmlns:xlink="http://www.w3.org/1999/xlink" version="1.1" x="0px" y="0px" viewBox="0 0 100 100" enable-background="new 0 0 100 100" xml:space="preserve"><path fill="#FFFFFF" d="M84.625,55.107C84.869,53.44,85,51.735,85,50s-0.131-3.44-0.375-5.107l-7.908-2.26  c-0.614-2.23-1.498-4.346-2.618-6.313l3.996-7.193c-2.043-2.745-4.477-5.18-7.222-7.222l-7.193,3.996  c-1.967-1.119-4.083-2.004-6.313-2.618l-2.26-7.908C53.44,15.131,51.735,15,50,15s-3.44,0.131-5.107,0.375l-2.26,7.908  c-2.23,0.614-4.346,1.498-6.313,2.618l-7.193-3.996c-2.745,2.043-5.18,4.477-7.222,7.222l3.996,7.193  c-1.119,1.967-2.004,4.083-2.618,6.313l-7.908,2.26C15.131,46.56,15,48.265,15,50s0.131,3.44,0.375,5.107l7.908,2.26  c0.614,2.23,1.498,4.346,2.618,6.313l-3.996,7.193c2.043,2.745,4.477,5.18,7.222,7.222l7.193-3.996  c1.967,1.119,4.083,2.004,6.314,2.618l2.26,7.908C46.56,84.869,48.265,85,50,85s3.44-0.131,5.107-0.375l2.26-7.908  c2.23-0.614,4.346-1.498,6.314-2.618l7.193,3.996c2.745-2.043,5.18-4.478,7.222-7.222l-3.996-7.193  c1.119-1.967,2.004-4.083,2.618-6.313L84.625,55.107z M50,65c-8.284,0-15-6.716-15-15c0-8.284,6.716-15,15-15s15,6.716,15,15  C65,58.284,58.284,65,50,65z"></path></svg>