<svg fill="#FFFFFF" xmlns="http://www.w3.org/2000/svg" data-name="Layer 1" viewBox="0 0 100 99" x="0px" y="0px"><title>calendar-icon</title><path d="M92.28,9H84V0H77V9H23V0H16V9H7.72A7.65,7.65,0,0,0,0,16.47V91.92C0,96.07,3.57,99,7.72,99H92.28c4.15,0,7.72-2.93,7.72-7.08V16.47A7.65,7.65,0,0,0,92.28,9ZM77,14h7v4H77ZM16,14h7v4H16Zm9,60.61A6.42,6.42,0,0,0,20.41,73h0L19,72.58V67H32V80H27V78.84A5.91,5.91,0,0,0,25,74.61ZM9.17,76.14l11.18-.06a2.54,2.54,0,0,1,1.9.8,2.69,2.69,0,0,1,.75,2V90.15ZM92,89.4c0,.53-.57.6-1.11.6H27V83h8V64H16v8.59l-8,0v-39c0-.53.57-.65,1.11-.65H90.89c.54,0,1.11.13,1.11.65ZM16,59H35V40H16Zm3-16H32V56H19ZM40,59H60V40H40Zm3-16H57V56H43ZM65,59H84V40H65Zm3-16H81V56H68ZM40,83H60V64H40Zm3-16H57V80H43Zm22-3V83H84V64ZM80.18,77.05a1.5,1.5,0,0,1-2.13,2.13l-3.6-3.6-3.6,3.6a1.5,1.5,0,0,1-2.13-2.13l3.6-3.6-3.6-3.6a1.5,1.5,0,0,1,2.13-2.13l3.6,3.6,3.6-3.6a1.5,1.5,0,0,1,2.13,2.13l-3.6,3.6Z"></path></svg>