<svg fill="#FFFFFF" xmlns="http://www.w3.org/2000/svg" xmlns:xlink="http://www.w3.org/1999/xlink" version="1.1" x="0px" y="0px" viewBox="0 0 103.736 228.386" style="enable-background:new 0 0 103.736 228.386;" xml:space="preserve"><g><ellipse transform="matrix(0.0721 -0.9974 0.9974 0.0721 52.9458 101.9016)" cx="81.239" cy="22.495" rx="22.494" ry="22.496"></ellipse><path d="M87.967,134.384c-8.499-4.944-15.474-11.492-20.526-19.214c-1.594-2.436-3.003-4.984-4.201-7.64   c-3.776-8.321-5.695-17.626-5.702-27.649c0.011-9.306,1.657-16.114,2.162-17.982c1.202-4.246,4.987-7.186,9.294-7.337   c0.116-0.004,0.23-0.015,0.347-0.015c0.918,0,1.835,0.126,2.725,0.378c3.808,1.079,6.466,4.244,7.113,7.906   c0.253,1.435,0.208,2.942-0.212,4.435l-0.037,0.129c-0.011,0.052-0.063,0.251-0.125,0.528c-0.123,0.533-0.31,1.419-0.503,2.57   c-0.348,2.1-0.763,5.438-0.763,9.386c-0.008,4.917,0.664,12.268,3.907,19.373c1.175,2.555,2.604,4.905,4.258,7.094   c-1.288-12.887-0.343-26.29,0.03-36.468c1.283-10.277-4.282-21.458-13.047-22.229c-1.371-0.12-2.812-0.041-4.273,0.201   c-4.365-1.547-8.773-2.126-12.817-2.104c-2.557,0.005-4.981,0.229-7.221,0.562c0.149-2.353-1.573-4.425-3.938-4.669   c0,0-33.329,3.521-33.579,5.946L0.024,108.167c-0.25,2.424,1.514,4.592,3.938,4.842l32.93,3.393c2.162,0.223,4.11-1.16,4.686-3.181   c2.578,2.649,5.949,5.361,10.139,7.191c0.335,1.287,0.69,2.604,1.067,3.952c2.986,8.215,7.55,12.025,12.529,13.561   c0.526,3.773,0.96,8.696,0.96,14.729c-0.004,13.996-2.319,33.897-11.358,58.988c-2.341,6.494,1.027,13.657,7.521,16   c1.4,0.505,2.831,0.744,4.237,0.744c5.121,0,9.925-3.17,11.763-8.265c10.021-27.793,12.841-50.692,12.837-67.468   c0.001-6.776-0.456-12.549-1.071-17.252c-0.669-0.217-1.323-0.484-1.937-0.839C88.163,134.505,88.067,134.442,87.967,134.384z    M45.139,108.257c-1.054-1.154-1.928-2.278-2.651-3.288l5.285-52.485c2.384-0.437,5.044-0.742,7.826-0.737   c1.19,0.007,2.396,0.071,3.609,0.191c-4.428,3.424-8.101,8.916-9.472,16.698c-2.871,16.847-3.04,28.682,0.115,43.833   C48.048,111.181,46.47,109.717,45.139,108.257z"></path><path d="M97.268,118.977c-4.653-2.705-8.269-5.705-11.118-8.888c-2.855-3.19-4.939-6.563-6.523-10.008   c-3.135-6.87-4.095-14.139-4.088-20.201c0-3.946,0.399-7.356,0.792-9.717c0.198-1.179,0.391-2.099,0.526-2.69   c0.069-0.297,0.122-0.512,0.155-0.639c0.014-0.052,0.024-0.089,0.029-0.111c1.199-4.248-1.271-8.668-5.519-9.872   c-4.251-1.202-8.673,1.268-9.878,5.518c-0.127,0.477-2.096,7.475-2.107,17.512c0.004,7.684,1.166,17.223,5.523,26.826   c1.113,2.466,2.453,4.927,4.03,7.343c4.5,6.895,10.97,13.411,19.836,18.578c0.115,0.066,0.224,0.138,0.34,0.204   c0.2,0.116,0.408,0.205,0.613,0.302c1.087,0.511,2.237,0.771,3.378,0.772c2.765,0,5.455-1.436,6.937-4.001   C102.405,126.078,101.095,121.186,97.268,118.977z"></path></g></svg>