<svg fill="#FFFFFF" xmlns="http://www.w3.org/2000/svg" xmlns:xlink="http://www.w3.org/1999/xlink" version="1.1" x="0px" y="0px" viewBox="0 0 100 100" enable-background="new 0 0 100 100" xml:space="preserve"><g><path fill="none" d="M65.975,53.204C65.975,53.205,65.975,53.205,65.975,53.204l0.926,0.001h2.704c1.145,0,2.076,0.933,2.076,2.079   L68.564,69.95h21.616c0.855,0,1.547-0.683,1.547-1.525l3.118-14.241c0-0.844-0.691-1.526-1.545-1.526H91.45h-0.683h-0.167h-4.138   h-5.5h-1.518h-1.641H76.34h-9.628H66.71h-0.687h-0.226c0.059,0.18,0.118,0.347,0.174,0.537   C65.972,53.197,65.972,53.2,65.975,53.204z M78.741,60.611c0.458,0,0.826,0.37,0.826,0.828c0,0.459-0.368,0.831-0.826,0.831   s-0.83-0.372-0.83-0.831C77.911,60.981,78.283,60.611,78.741,60.611z"></path><path fill="none" d="M30.398,53.204h2.696h0.931c0-0.004,0-0.007,0.001-0.01c0.056-0.19,0.116-0.357,0.174-0.537h-0.229h-0.683   h-0.167h-4.138h-5.5h-1.519h-1.64H18.86H9.232H9.23H8.544H6.701c-0.854,0-1.545,0.683-1.545,1.526l3.119,14.241   c0,0.843,0.692,1.525,1.545,1.525h21.616L28.32,55.284C28.32,54.137,29.25,53.204,30.398,53.204z M21.262,62.271   c-0.458,0-0.83-0.372-0.83-0.831c0-0.458,0.372-0.828,0.83-0.828c0.458,0,0.828,0.37,0.828,0.828   C22.089,61.898,21.72,62.271,21.262,62.271z"></path><path fill="none" d="M73.157,40.312c0.003,0.03,0.005,0.06,0.011,0.091c0.085,0.472,0.263,0.866,0.456,1.06   c0.097,0.096,0.196,0.144,0.292,0.127c0.046-0.008,0.088-0.031,0.126-0.065c0.463,1.443,1.354,2.88,2.475,3.739   c0.646,0.494,1.369,0.797,2.133,0.797c0.78,0,1.519-0.315,2.175-0.83c1.103-0.862,1.974-2.282,2.434-3.707   c0.037,0.035,0.078,0.057,0.125,0.065c0.082,0.015,0.167-0.018,0.252-0.089c0.208-0.177,0.405-0.592,0.496-1.098   c0.117-0.657,0.011-1.233-0.236-1.349c-0.019-0.009-0.036-0.016-0.058-0.019c-0.074-0.014-0.157,0.014-0.234,0.076L83.6,39.116   c0-0.001,0-0.001,0-0.001c-0.002,0-0.002,0.001-0.002,0.002c0-0.005,0-0.01-0.003-0.014c-0.295-1.129-0.67-1.818-1.056-2.229   c-0.077-0.042-0.154-0.077-0.24-0.102c-0.008,0.166,0.181,0.419,0.199,0.665c-0.534-0.25-1.047-0.637-1.794-0.665   c-0.177-0.007-0.365-0.005-0.56-0.001c-1.805,0.645-3.791-0.085-3.791-0.085c-2.265-0.209-2.623,2.143-2.651,2.412   c0,0.006-0.001,0.014-0.001,0.02c0,0,0,0-0.002,0c-0.078-0.064-0.161-0.095-0.239-0.081c-0.035,0.005-0.067,0.02-0.096,0.042   c-0.07,0.051-0.128,0.145-0.167,0.268C73.174,39.66,73.16,39.981,73.157,40.312z"></path><path fill="none" d="M15.677,40.312c0.004,0.03,0.006,0.06,0.013,0.091c0.083,0.472,0.261,0.866,0.455,1.06   c0.097,0.096,0.197,0.144,0.292,0.127c0.046-0.008,0.087-0.031,0.125-0.065c0.463,1.443,1.354,2.88,2.475,3.739   c0.647,0.494,1.369,0.797,2.133,0.797c0.78,0,1.519-0.315,2.174-0.83c1.103-0.862,1.975-2.282,2.433-3.707   c0.039,0.035,0.079,0.057,0.126,0.065c0.081,0.015,0.167-0.018,0.25-0.089c0.21-0.177,0.407-0.592,0.497-1.098   c0.118-0.657,0.01-1.233-0.236-1.349c-0.019-0.009-0.037-0.016-0.058-0.019c-0.075-0.014-0.157,0.014-0.233,0.076l-0.004,0.006   c0-0.001,0-0.001,0-0.001c-0.002,0-0.002,0.001-0.002,0.002c0-0.005,0-0.01-0.002-0.014c-0.295-1.129-0.67-1.818-1.056-2.229   c-0.077-0.042-0.154-0.077-0.24-0.102c-0.008,0.166,0.18,0.419,0.199,0.665c-0.535-0.25-1.047-0.637-1.795-0.665   c-0.175-0.007-0.364-0.005-0.559-0.001c-1.806,0.645-3.791-0.085-3.791-0.085c-2.265-0.209-2.624,2.143-2.652,2.412   c0,0.006-0.001,0.014-0.001,0.02c0,0,0,0-0.001,0c-0.079-0.064-0.162-0.095-0.24-0.081c-0.034,0.005-0.068,0.02-0.097,0.042   c-0.07,0.051-0.126,0.145-0.167,0.268C15.694,39.66,15.68,39.981,15.677,40.312z"></path><path fill="none" d="M42.555,37.083c0.006,0.041,0.009,0.08,0.017,0.121c0.111,0.63,0.349,1.154,0.607,1.414   c0.128,0.128,0.263,0.191,0.39,0.169c0.062-0.01,0.116-0.041,0.167-0.087c0.619,1.924,1.805,3.84,3.3,4.985   c0.863,0.66,1.826,1.063,2.844,1.063c1.04,0,2.024-0.421,2.898-1.106c1.471-1.149,2.633-3.043,3.244-4.942   c0.052,0.047,0.105,0.077,0.169,0.087c0.108,0.02,0.223-0.024,0.334-0.119c0.279-0.237,0.542-0.791,0.662-1.464   c0.157-0.877,0.015-1.646-0.313-1.8c-0.026-0.012-0.049-0.02-0.077-0.024c-0.101-0.018-0.209,0.019-0.312,0.102l-0.006,0.007   c0,0,0,0,0-0.001c-0.003,0.001-0.003,0.001-0.003,0.002c0-0.007,0-0.013-0.003-0.019c-0.394-1.505-0.894-2.425-1.407-2.974   c-0.104-0.055-0.206-0.103-0.32-0.136c-0.012,0.221,0.24,0.558,0.266,0.887c-0.714-0.334-1.396-0.85-2.393-0.887   c-0.234-0.008-0.486-0.006-0.746-0.001c-2.407,0.86-5.054-0.113-5.054-0.113c-3.02-0.279-3.499,2.857-3.536,3.216   c0,0.008-0.001,0.018-0.001,0.025c0,0,0,0-0.001,0c-0.106-0.085-0.216-0.126-0.32-0.108c-0.046,0.007-0.09,0.027-0.129,0.056   c-0.094,0.067-0.168,0.194-0.223,0.356C42.58,36.213,42.56,36.641,42.555,37.083z"></path><path fill="none" d="M68.272,70.204l0.056-0.254l3.146-14.372c0-1.125-0.922-2.035-2.059-2.035h-2.468h-0.911h-0.223h-3.026h-0.223   h-2.268h-7.334h-2.024h-2.186H46.8h-9.365h-0.222h-3.251h-0.001h-0.915h-2.459c-1.138,0-2.06,0.91-2.06,2.034l3.148,14.373   l0.056,0.254l0.086,0.394l0.292,1.334l0.577,2.635c0,1.123,0.922,2.034,2.06,2.034h30.509c1.14,0,2.063-0.911,2.063-2.034   l0.576-2.635l0.293-1.334L68.272,70.204z M50.001,66.36c-0.61,0-1.105-0.495-1.105-1.106s0.495-1.105,1.105-1.105   c0.611,0,1.104,0.494,1.104,1.105S50.612,66.36,50.001,66.36z"></path><circle cx="50.001" cy="65.254" r="1.106"></circle><path d="M67.331,77.463H32.67c-0.488,0-0.883,0.4-0.883,0.892c0,0.489,0.395,0.888,0.883,0.888h34.661   c0.488,0,0.883-0.399,0.883-0.888C68.214,77.863,67.816,77.463,67.331,77.463z"></path><path d="M40.74,25.751l-0.047,0.644c-0.25,0.042-0.44,0.26-0.44,0.522c0,0.236,0.154,0.437,0.367,0.504l-0.427,5.977l0.59,1.767   l0.59-1.767l-0.428-5.977c0.214-0.068,0.368-0.268,0.368-0.504c0-0.262-0.191-0.48-0.441-0.522l-0.042-0.592l1.021,0.592   l0.043,0.022l0.81,0.469l-0.221,2.823l0.137,0.051c-0.333,0.783-0.56,1.68-0.643,2.674c-0.148,0.605-0.236,1.234-0.236,1.885h0.015   c0,0.005-0.001,0.01-0.001,0.016c-0.009,0-0.019,0-0.029,0.003c-0.563,0.098-0.819,1.299-0.571,2.684   c0.226,1.272,0.8,2.255,1.33,2.33c0.672,1.811,1.738,3.57,3.057,4.857c0.745,0.729,1.57,1.305,2.453,1.655   c0.605,0.24,1.238,0.373,1.887,0.373s1.282-0.133,1.888-0.373c0.911-0.361,1.765-0.968,2.53-1.731   c1.288-1.284,2.327-3.016,2.984-4.796c0.508-0.149,1.042-1.1,1.256-2.313c0.237-1.319,0.015-2.468-0.493-2.66   c0.017-0.322,0.031-0.647,0.031-0.979c-0.006-1.705-0.38-3.143-1.041-4.316l-0.19-1.916l0.865-0.502l0.443-0.254l1.836-1.065   c0.117-0.115,0.117-0.3,0-0.416l-9.779-4.071c-0.116-0.114-0.301-0.114-0.416,0l-9.784,4.071c-0.114,0.114-0.114,0.301,0,0.416   L40.74,25.751z M42.961,35.379c0.104-0.019,0.214,0.023,0.32,0.108c0.001,0,0.001,0,0.001,0c0-0.008,0.001-0.017,0.001-0.025   c0.037-0.359,0.516-3.496,3.536-3.216c0,0,2.647,0.974,5.054,0.113c0.26-0.005,0.512-0.007,0.746,0.001   c0.996,0.037,1.679,0.553,2.393,0.887c-0.025-0.329-0.277-0.667-0.266-0.887c0.114,0.033,0.217,0.081,0.32,0.136   c0.514,0.548,1.014,1.468,1.407,2.974c0.003,0.005,0.003,0.012,0.003,0.019c0-0.001,0-0.001,0.003-0.002c0,0.001,0,0.001,0,0.001   l0.006-0.007c0.103-0.083,0.211-0.12,0.312-0.102c0.028,0.004,0.051,0.013,0.077,0.024c0.328,0.154,0.471,0.923,0.313,1.8   c-0.12,0.673-0.383,1.227-0.662,1.464c-0.111,0.094-0.226,0.139-0.334,0.119c-0.063-0.01-0.117-0.04-0.169-0.087   c-0.611,1.899-1.773,3.793-3.244,4.942c-0.874,0.686-1.858,1.106-2.898,1.106c-1.018,0-1.981-0.403-2.844-1.063   c-1.495-1.145-2.681-3.061-3.3-4.985c-0.051,0.046-0.105,0.077-0.167,0.087c-0.127,0.022-0.261-0.041-0.39-0.169   c-0.258-0.259-0.496-0.784-0.607-1.414c-0.008-0.042-0.011-0.081-0.017-0.121c0.004-0.441,0.024-0.87,0.054-1.291   c0.054-0.163,0.128-0.289,0.223-0.356C42.871,35.407,42.915,35.387,42.961,35.379z"></path><circle cx="78.741" cy="61.441" r="0.83"></circle><path d="M91.739,70.598H68.428l0.083-0.394h21.812c0.861,0,1.56-0.7,1.56-1.56L95,53.964c0-0.859-0.698-1.56-1.557-1.56h-2.028   h-0.694c0,0,0,0,0-0.001c-0.001-0.003-0.001-0.006-0.001-0.008c-1.371-4.714-3.904-4.876-4.449-5.003   c-1.071-0.251-2.37-0.145-3.063-0.36c-0.081,0.679-2.06,2.916-3.356,4.319l-0.56-2.166c0.421-0.249,0.514-0.798,0.514-1.255h-2.13   c0,0.453,0.091,0.997,0.505,1.249l-0.553,2.171c-1.298-1.402-3.273-3.639-3.355-4.318c-0.692,0.215-1.991,0.109-3.065,0.36   c-0.544,0.127-3.075,0.289-4.446,5.003c-0.001,0.002-0.001,0.005-0.001,0.008h-0.698h-0.346c-1.869-5.5-4.979-5.719-5.674-5.881   c-1.429-0.335-3.162-0.193-4.084-0.48c-0.108,0.906-2.747,3.888-4.475,5.759l-0.748-2.888c0.563-0.332,0.685-1.064,0.685-1.673   h-2.838c0,0.604,0.122,1.329,0.673,1.665l-0.737,2.895c-1.729-1.869-4.365-4.851-4.474-5.757c-0.924,0.288-2.656,0.146-4.086,0.48   c-0.695,0.162-3.804,0.38-5.673,5.882h-0.348h-0.694c0,0,0,0,0-0.001c-0.002-0.003-0.002-0.006-0.002-0.008   c-1.371-4.714-3.902-4.876-4.448-5.003c-1.071-0.251-2.371-0.145-3.063-0.36c-0.082,0.679-2.061,2.916-3.356,4.319l-0.562-2.166   c0.422-0.249,0.514-0.798,0.514-1.255h-2.129c0,0.453,0.091,0.997,0.505,1.249l-0.553,2.171c-1.297-1.402-3.274-3.639-3.355-4.318   c-0.692,0.215-1.992,0.109-3.065,0.36c-0.544,0.127-3.076,0.289-4.447,5.003c-0.001,0.002-0.001,0.005-0.001,0.008H8.581H6.559   C5.698,52.403,5,53.103,5,53.964l3.12,14.681c-0.001,0.859,0.697,1.56,1.56,1.56H31.49l0.083,0.394H8.263   c-0.366,0-0.661,0.301-0.661,0.669c0,0.366,0.295,0.665,0.661,0.665h23.594l0.622,2.927c-0.001,1.148,0.929,2.079,2.079,2.079   h30.886c1.148,0,2.079-0.931,2.079-2.079l0.621-2.927h23.596c0.365,0,0.66-0.3,0.66-0.665   C92.399,70.898,92.102,70.598,91.739,70.598z M66.023,52.657h0.687h0.002h9.628h1.465h1.641h1.518h5.5h4.138h0.167h0.683h1.851   c0.854,0,1.545,0.683,1.545,1.526l-3.118,14.241c0,0.843-0.691,1.525-1.547,1.525H68.564l3.116-14.666   c0-1.146-0.932-2.079-2.076-2.079H66.9h-0.926c0,0,0,0,0-0.001c-0.003-0.004-0.003-0.007-0.003-0.01   c-0.056-0.19-0.115-0.357-0.174-0.537H66.023z M9.82,69.95c-0.854,0-1.545-0.683-1.545-1.525L5.156,54.184   c0-0.844,0.691-1.526,1.545-1.526h1.844H9.23h0.001h9.628h1.465h1.64h1.519h5.5h4.138h0.167h0.683h0.229   c-0.058,0.18-0.118,0.347-0.174,0.537c-0.001,0.003-0.001,0.006-0.001,0.01h-0.931h-2.696c-1.148,0-2.079,0.933-2.079,2.08   l3.116,14.666H9.82z M67.894,71.932l-0.576,2.635c0,1.123-0.923,2.034-2.063,2.034H34.746c-1.138,0-2.06-0.911-2.06-2.034   l-0.577-2.635l-0.292-1.334l-0.086-0.394l-0.056-0.254l-3.148-14.373c0-1.124,0.922-2.034,2.06-2.034h2.459h0.915h0.001h3.251   h0.222H46.8h1.953h2.186h2.024h7.334h2.268h0.223h3.026h0.223h0.911h2.468c1.137,0,2.059,0.91,2.059,2.035L68.328,69.95   l-0.056,0.254l-0.086,0.394L67.894,71.932z"></path><path d="M71.795,31.813l-0.034,0.483c-0.188,0.031-0.332,0.195-0.332,0.391c0,0.177,0.117,0.328,0.276,0.378l-0.32,4.482   l0.442,1.325l0.441-1.325l-0.319-4.482c0.159-0.052,0.275-0.201,0.275-0.378c0-0.196-0.145-0.36-0.331-0.391l-0.032-0.445   l0.766,0.444l0.033,0.018l0.606,0.352L73.1,34.782l0.103,0.039c-0.25,0.586-0.419,1.259-0.48,2.004   c-0.111,0.454-0.178,0.926-0.178,1.414h0.012c0,0.004-0.001,0.008-0.001,0.012c-0.006,0-0.015,0-0.021,0.002   c-0.422,0.073-0.616,0.975-0.429,2.014c0.17,0.954,0.6,1.691,0.997,1.747c0.504,1.359,1.303,2.678,2.293,3.643   c0.558,0.547,1.178,0.979,1.84,1.241c0.454,0.18,0.929,0.28,1.415,0.28c0.487,0,0.961-0.101,1.415-0.28   c0.685-0.271,1.325-0.726,1.899-1.298c0.965-0.963,1.745-2.262,2.237-3.598c0.381-0.112,0.781-0.825,0.942-1.735   c0.179-0.989,0.01-1.851-0.37-1.995c0.012-0.241,0.023-0.485,0.023-0.734c-0.005-1.279-0.286-2.357-0.781-3.238l-0.142-1.437   l0.648-0.376l0.331-0.191l1.378-0.799c0.087-0.086,0.087-0.226,0-0.312l-7.335-3.053c-0.085-0.085-0.226-0.085-0.311,0   l-7.338,3.053c-0.086,0.086-0.086,0.226,0,0.312L71.795,31.813z M73.46,39.035c0.078-0.014,0.161,0.017,0.239,0.081   c0.002,0,0.002,0,0.002,0c0-0.006,0.001-0.013,0.001-0.02c0.028-0.269,0.387-2.622,2.651-2.412c0,0,1.986,0.73,3.791,0.085   c0.194-0.004,0.383-0.006,0.56,0.001c0.747,0.028,1.26,0.415,1.794,0.665c-0.019-0.246-0.207-0.5-0.199-0.665   c0.086,0.025,0.163,0.061,0.24,0.102c0.386,0.411,0.761,1.101,1.056,2.229c0.003,0.004,0.003,0.009,0.003,0.014   c0,0,0-0.001,0.002-0.002c0,0,0,0,0,0.001l0.003-0.006c0.077-0.062,0.16-0.089,0.234-0.076c0.021,0.003,0.039,0.01,0.058,0.019   c0.247,0.116,0.354,0.692,0.236,1.349c-0.091,0.506-0.288,0.921-0.496,1.098c-0.085,0.071-0.17,0.104-0.252,0.089   c-0.047-0.008-0.088-0.03-0.125-0.065c-0.46,1.424-1.331,2.844-2.434,3.707c-0.656,0.514-1.395,0.83-2.175,0.83   c-0.764,0-1.486-0.303-2.133-0.797c-1.121-0.859-2.012-2.296-2.475-3.739c-0.038,0.035-0.08,0.058-0.126,0.065   c-0.096,0.017-0.195-0.031-0.292-0.127c-0.193-0.194-0.371-0.588-0.456-1.06c-0.006-0.031-0.008-0.061-0.011-0.091   c0.003-0.331,0.017-0.652,0.04-0.968c0.039-0.123,0.097-0.217,0.167-0.268C73.393,39.055,73.425,39.04,73.46,39.035z"></path><circle cx="21.262" cy="61.441" r="0.83"></circle><path d="M14.315,31.813l-0.035,0.483c-0.188,0.031-0.33,0.195-0.33,0.391c0,0.177,0.115,0.328,0.274,0.378l-0.32,4.482l0.443,1.325   l0.442-1.325l-0.321-4.482c0.161-0.052,0.276-0.201,0.276-0.378c0-0.196-0.144-0.36-0.332-0.391l-0.031-0.445l0.765,0.444   l0.032,0.018l0.608,0.352l-0.167,2.117l0.103,0.039c-0.25,0.586-0.419,1.259-0.481,2.004c-0.112,0.454-0.177,0.926-0.177,1.414   h0.011c0,0.004-0.001,0.008-0.001,0.012c-0.006,0-0.014,0-0.021,0.002c-0.422,0.073-0.615,0.975-0.429,2.014   c0.169,0.954,0.6,1.691,0.997,1.747c0.505,1.359,1.304,2.678,2.293,3.643c0.559,0.547,1.178,0.979,1.84,1.241   c0.454,0.18,0.929,0.28,1.416,0.28s0.961-0.101,1.416-0.28c0.684-0.271,1.324-0.726,1.898-1.298   c0.966-0.963,1.745-2.262,2.238-3.598c0.381-0.112,0.782-0.825,0.942-1.735c0.178-0.989,0.011-1.851-0.371-1.995   c0.013-0.241,0.024-0.485,0.024-0.734c-0.004-1.279-0.285-2.357-0.781-3.238l-0.142-1.437l0.649-0.376l0.332-0.191l1.377-0.799   c0.087-0.086,0.087-0.226,0-0.312l-7.335-3.053c-0.086-0.085-0.226-0.085-0.312,0l-7.337,3.053c-0.086,0.086-0.086,0.226,0,0.312   L14.315,31.813z M15.981,39.035c0.078-0.014,0.161,0.017,0.24,0.081c0.001,0,0.001,0,0.001,0c0-0.006,0.001-0.013,0.001-0.02   c0.028-0.269,0.387-2.622,2.652-2.412c0,0,1.985,0.73,3.791,0.085c0.195-0.004,0.383-0.006,0.559,0.001   c0.748,0.028,1.26,0.415,1.795,0.665c-0.019-0.246-0.208-0.5-0.199-0.665c0.086,0.025,0.163,0.061,0.24,0.102   c0.386,0.411,0.761,1.101,1.056,2.229c0.002,0.004,0.002,0.009,0.002,0.014c0,0,0-0.001,0.002-0.002c0,0,0,0,0,0.001l0.004-0.006   c0.077-0.062,0.158-0.089,0.233-0.076c0.021,0.003,0.039,0.01,0.058,0.019c0.246,0.116,0.354,0.692,0.236,1.349   c-0.09,0.506-0.287,0.921-0.497,1.098c-0.083,0.071-0.169,0.104-0.25,0.089c-0.047-0.008-0.088-0.03-0.126-0.065   c-0.458,1.424-1.33,2.844-2.433,3.707c-0.655,0.514-1.394,0.83-2.174,0.83c-0.764,0-1.486-0.303-2.133-0.797   c-1.121-0.859-2.011-2.296-2.475-3.739c-0.039,0.035-0.08,0.058-0.125,0.065c-0.096,0.017-0.196-0.031-0.292-0.127   c-0.194-0.194-0.372-0.588-0.455-1.06c-0.006-0.031-0.008-0.061-0.013-0.091c0.003-0.331,0.018-0.652,0.041-0.968   c0.041-0.123,0.097-0.217,0.167-0.268C15.913,39.055,15.947,39.04,15.981,39.035z"></path></g></svg>