<svg fill="#FFFFFF" xmlns="http://www.w3.org/2000/svg" xmlns:xlink="http://www.w3.org/1999/xlink" version="1.1" x="0px" y="0px" viewBox="0 0 64 64" style="enable-background:new 0 0 64 64;" xml:space="preserve"><g><path d="M32.8,27.2c-2.1-0.2-3.7-2.1-3.5-4.2c0.1-0.9,0.5-1.7,1.1-2.4c0.2-0.2,0.2-0.5,0-0.7c-0.2-0.2-0.5-0.2-0.7,0   c-0.8,0.8-1.3,1.9-1.4,3c-0.3,2.7,1.7,5,4.4,5.3c0.2,0,0.3,0,0.5,0c2.5,0,4.6-1.9,4.8-4.4c0.3-2.7-1.7-5.1-4.4-5.3   c-0.3,0-0.5,0.2-0.5,0.4c0,0.3,0.2,0.5,0.5,0.5c2.1,0.2,3.7,2.1,3.5,4.2C36.8,25.9,34.9,27.4,32.8,27.2z"></path><path d="M28.7,29c1.1,0.9,2.4,1.4,3.8,1.5c0.9,0.1,1.8,0,2.7-0.2c2.8,3,6.1,5.1,9.8,6.3c0.3,1.3,1.4,2.4,2.8,2.5l2.2,0.2   c0.1,0,0.3,0,0.4,0c0.8,0,1.5-0.3,2.1-0.8c0.6-0.5,1.1-1.3,1.1-2.1c0-0.4,0-0.8-0.1-1.2c-0.3-1.3-1.5-2.3-2.8-2.4l-2.2-0.2   c-0.9-0.1-1.8,0.2-2.5,0.8c-2.9-0.9-5.5-2.5-7.9-4.8c1.2-1.1,1.9-2.6,2.2-4.3l0-0.3c0.1-0.7,0.1-1.5,0-2.2   c-0.1-1.2-0.5-2.4-1.2-3.8c-1.7-3.3-1.6-6.4-1.3-10.2C37.8,7,38,5.8,38.1,4.6l0.1-0.7c0.1-0.9,0.2-1.9,0.3-2.7   c0-0.3-0.2-0.5-0.5-0.5c-0.2,0-0.5,0.2-0.5,0.5c-0.1,0.8-0.2,1.7-0.3,2.7l-0.1,0.7c-0.2,1.3-0.3,2.5-0.4,3.4   c-0.3,3.8-0.4,7.2,1.4,10.7c0.7,1.3,1,2.4,1.1,3.4c0.1,0.6,0.1,1.3,0,2l0,0.3c-0.2,1.6-1,3-2.2,4l-0.4,0.3l0.4,0.4   c2.6,2.7,5.6,4.6,9,5.5l0.3,0.1l0.2-0.2c0.5-0.5,1.2-0.8,1.9-0.7l2.2,0.2c0.9,0.1,1.7,0.8,1.9,1.7c0.1,0.3,0.1,0.6,0.1,0.8   c-0.1,0.6-0.3,1.1-0.8,1.5c-0.5,0.4-1.1,0.6-1.7,0.5L47.9,38c-1-0.1-1.9-0.9-2-2l0-0.3l-0.3-0.1c-3.7-1.1-7-3.2-9.9-6.3l-0.2-0.2   l-0.3,0.1c-0.8,0.3-1.7,0.4-2.6,0.3c-1.2-0.1-2.3-0.6-3.3-1.3c-2.9-2.3-2.8-6.7-1.2-9.7c1.5-2.8,2.6-5.9,3.3-9.1   c0.2-0.9,0.3-1.9,0.5-2.8C32,6,32.1,5.5,32.2,4.9c0-0.1,0-0.3,0.1-0.5l0.5-3.1c0-0.3-0.1-0.5-0.4-0.6c-0.3,0-0.5,0.1-0.6,0.4   l-0.5,3.1c0,0.2-0.1,0.4-0.1,0.5c-0.1,0.6-0.2,1.1-0.3,1.7c-0.1,0.9-0.3,1.8-0.5,2.7c-0.7,3.2-1.8,6.1-3.2,8.9   C25.5,21.3,25.4,26.3,28.7,29z"></path><path d="M63.1,32.8c-0.1-0.3-0.2-0.6-0.4-0.9c-0.5-1-1.3-1.8-2-2.5c-0.8-0.8-1.4-1.5-1.6-2.4c-0.1-0.5,0-1.2,0.1-1.8l0.1-0.4   c0.1-0.5,0.1-0.9,0.2-1.4c0.1-1.5,0.1-3.1-0.1-4.6c-0.6-4.4-2.6-8.7-5.8-12.4c-2.2-2.6-5.9-4.1-9-5.1c-1-0.3-2-0.6-3-0.8   c-0.7-0.2-1.3,0.3-1.5,0.9C39.9,2,40.3,2.7,41,2.8c0.9,0.2,1.8,0.5,2.7,0.8c2.5,0.9,6.1,2.2,7.9,4.4c2.9,3.4,4.7,7.2,5.2,11.2   c0.2,1.4,0.2,2.7,0.1,4.1c0,0.4-0.1,0.8-0.1,1.2l-0.1,0.3c-0.1,0.8-0.3,1.7-0.1,2.7C57,29,58,30.1,59,31.1c0.6,0.6,1.2,1.2,1.5,1.9   c0.1,0.2,0.1,0.3,0.2,0.5c0.1,0.4,0,0.8-0.1,1.1c-0.1,0.2-0.2,0.3-0.3,0.3c-0.1,0-0.2,0-0.3,0c-0.5,0.1-1.5,0.2-1.9,1.2   c-0.4,0.8,0,1.6,0.2,2c0,0.1,0.1,0.1,0.1,0.2c0.1,0.2,0,0.4-0.1,0.5C58.1,38.9,58.1,39,58,39c-0.3,0-1.2,0.2-1.5,1   c-0.3,1,0.6,1.7,1.1,2.1c0,0,0,0,0,0c0,0,0,0,0,0c-0.2,0.1-0.4,0.3-0.6,0.5c-0.8,0.9-0.7,1.9-0.6,2.7c0,0.3,0,0.5,0,0.7   c-0.1,1-1.4,1.7-2.5,1.8c-0.9,0.1-1.9-0.1-3-0.3c-0.6-0.1-1.2-0.2-1.8-0.3c-2.5-0.3-4.6,0.4-5.7,1.9c-0.1,0.2-0.3,0.4-0.4,0.6   c-0.1,0.2-0.3,0.5-0.4,0.5c-0.3,0.2-1,0-1.3-0.1l-15.2-3.9c-0.1,0-0.2-0.1-0.3-0.1c-0.2-0.1-0.4-0.1-0.5-0.3   c-0.2-0.3-0.1-0.9-0.1-1.4c0-0.2,0-0.4,0-0.5c0-2.3-1-4.7-3-7.2c-0.1-0.2-0.3-0.4-0.5-0.6c-0.4-0.4-0.8-0.9-1.1-1.3   c-1-1.2-2-2.3-2.8-3.5l-2.2,1.1c1.7,4.7,1.4,10.1,1.1,14.8c-0.1,2.3-0.3,4.6-0.5,7l0,0.5c-0.1,0.9-0.2,1.7-0.2,2.6   c0,0.4-0.6,1.3-0.8,1.5c-0.6,0.3-1.3,0.8-2,1.3c-1.1,0.8-2.6,1.4-3.7,0.7C8.1,60,7.8,58,7.5,56.3l-0.1-0.4   c-0.3-2.1-0.8-4.2-1.2-6.2c-0.2-0.8-0.3-1.6-0.5-2.3c-1.2-5.9-2.5-12.1-2.5-18.5c0-3.3,0.4-5.9,1.2-8.1c0.1-0.1,0.1-0.3,0.2-0.4   c1-2.5,2.6-4.5,4.5-5.7c1.7-1,4-1.6,6.7-1.7c0.5,0,1.2,0,1.8-0.4c0.6-0.4,1-1,1.3-1.4c1.4-2.2,3.4-4.2,5.8-5.7   c0.6-0.4,0.8-1.1,0.4-1.7c-0.4-0.6-1.1-0.8-1.7-0.4c-2.7,1.7-5,3.9-6.6,6.6c-0.1,0.2-0.3,0.5-0.4,0.5c-0.1,0.1-0.4,0.1-0.7,0.1   c-3.2,0.1-5.8,0.8-7.9,2.1c-2.4,1.5-4.3,3.9-5.5,6.9c-0.1,0.2-0.1,0.3-0.2,0.5c-0.9,2.5-1.3,5.4-1.3,9c0,6.6,1.2,13,2.5,19   c0.2,0.8,0.3,1.6,0.5,2.4c0.4,2,0.9,4,1.2,6L5,56.7c0.3,2.1,0.7,4.8,2.9,6.2c0.8,0.5,1.6,0.7,2.4,0.7c1.5,0,3-0.7,4.1-1.5   c0.3-0.2,1.1-0.8,1.6-1c1.1-0.5,2.2-2.4,2.2-3.7c0-0.8,0.1-1.6,0.2-2.4l0.1-0.5c0.3-2.4,0.4-4.8,0.5-7.1c0.2-3.3,0.4-6.8,0-10.3   c0.2,0.2,0.4,0.5,0.6,0.7c0.1,0.2,0.3,0.3,0.4,0.5c1.7,2.1,2.5,3.9,2.5,5.6c0,0.2,0,0.3,0,0.5c0,0.8-0.1,1.9,0.5,2.8   c0.1,0.2,0.3,0.4,0.5,0.6c0.5,0.5,1.1,0.7,1.5,0.8c0.1,0,0.3,0.1,0.4,0.1l15.2,3.9c0.8,0.2,2.2,0.6,3.3-0.2   c0.6-0.4,0.9-0.9,1.1-1.3c0.1-0.1,0.2-0.3,0.3-0.4c0.9-1.1,2.7-1,3.5-1c0.5,0.1,1.1,0.2,1.6,0.3c1.2,0.2,2.4,0.4,3.6,0.3   c2.2-0.2,4.6-1.7,4.8-4.1c0-0.4,0-0.8,0-1.1c0-0.3-0.1-0.8,0-0.9c0.1-0.1,0.1-0.1,0.2-0.1c0.2-0.2,0.5-0.4,0.8-0.7   c0.6-0.8,0.6-1.8-0.1-2.7c0.1-0.1,0.3-0.3,0.4-0.4c0.7-0.9,0.9-2,0.5-3c0,0,0,0,0,0c0.1,0,0.1,0,0.2,0c0.8-0.2,1.5-0.7,1.9-1.4   C63.2,35,63.4,33.8,63.1,32.8z"></path><circle cx="27.6" cy="2.4" r="1.3"></circle></g></svg>