<svg fill="#FFFFFF" xmlns:x="http://ns.adobe.com/Extensibility/1.0/" xmlns:i="http://ns.adobe.com/AdobeIllustrator/10.0/" xmlns:graph="http://ns.adobe.com/Graphs/1.0/" xmlns="http://www.w3.org/2000/svg" xmlns:xlink="http://www.w3.org/1999/xlink" version="1.1" x="0px" y="0px" viewBox="0 0 100 100" enable-background="new 0 0 100 100" xml:space="preserve"><metadata><sfw xmlns="http://ns.adobe.com/SaveForWeb/1.0/"><slices></slices><sliceSourceBounds width="1445.9" height="1140.4" y="-1142.6" x="2" bottomLeftOrigin="true"></sliceSourceBounds></sfw></metadata><g><path d="M45.2,51.4L28.8,62.4l-2-26.3h-0.6H12.8h-0.6L7.5,96.6c-0.1,1.2,0.9,2.3,2.1,2.3h3.2h1.5l0,0h75.2v0h1   c1.2,0,2.2-1.1,2.1-2.3l-3.4-44.1c0-1.1-1.2-1.7-2.1-1.1L68.2,64V52.5c0-1.1-1.2-1.7-2.1-1.1L47.3,64V52.5   C47.3,51.5,46.1,50.8,45.2,51.4z M39.1,86.1c0,0.9-0.7,1.6-1.6,1.6H26.7c-0.9,0-1.6-0.7-1.6-1.6v-3.8c0-0.9,0.7-1.6,1.6-1.6h10.8   c0.9,0,1.6,0.7,1.6,1.6V86.1z M67,82.3c0-0.9,0.7-1.6,1.6-1.6h10.8c0.9,0,1.6,0.7,1.6,1.6v3.8c0,0.9-0.7,1.6-1.6,1.6H68.6   c-0.9,0-1.6-0.7-1.6-1.6V82.3z M47.7,80.7h10.8c0.9,0,1.6,0.7,1.6,1.6v3.8c0,0.9-0.7,1.6-1.6,1.6H47.7c-0.9,0-1.6-0.7-1.6-1.6v-3.8   C46.1,81.5,46.8,80.7,47.7,80.7z M91.7,14.9l-8.1,5.3l-7.6,5c-1.3,0.8-3-0.1-3-1.6v-4.1H32.6c-3.8,0-6.8,3.1-6.8,6.8v2.1H13.2v-2.1   c0-10.7,8.7-19.3,19.3-19.3H73V3c0-1.5,1.7-2.4,3-1.6l7.6,5l8.1,5.3C92.8,12.5,92.8,14.2,91.7,14.9z"></path></g></svg>