<svg fill="#002451" xmlns="http://www.w3.org/2000/svg" xmlns:xlink="http://www.w3.org/1999/xlink" version="1.1" x="0px" y="0px" viewBox="0 0 100 100" enable-background="new 0 0 100 100" xml:space="preserve"><path d="M81.804,13.46c0.657,0,1.192,0.534,1.192,1.192V91.82c0,0.658-0.535,1.192-1.192,1.192H18.153  c-0.658,0-1.193-0.534-1.193-1.192V14.652c0-0.658,0.535-1.192,1.193-1.192H81.804 M81.804,11.473H18.153  c-1.757,0-3.181,1.425-3.181,3.18V91.82c0,1.755,1.424,3.18,3.181,3.18h63.651c1.755,0,3.18-1.425,3.18-3.18V14.652  C84.984,12.897,83.559,11.473,81.804,11.473L81.804,11.473z M72.772,31.707H48.584v1.988h24.188V31.707z M72.772,36.212H48.584V38.2  h24.188V36.212z M72.772,72.597H48.584v1.988h24.188V72.597z M72.772,77.102H48.584v1.988h24.188V77.102z M38.844,70.494v9.244H29.6  v-9.244H38.844 M40.832,68.507H27.613v13.219h13.219V68.507L40.832,68.507z M72.772,52.153H48.584v1.988h24.188V52.153z   M72.772,56.656H48.584v1.988h24.188V56.656z M45.501,27.699c0.388-0.388,0.388-1.017,0-1.406c-0.388-0.388-1.017-0.388-1.406,0  l-8.3,8.3l-3.199-3.199c-0.388-0.388-1.017-0.388-1.406,0c-0.388,0.388-0.388,1.017,0,1.406l4.605,4.604L45.501,27.699z   M38.844,35.762v3.086H29.6v-9.243h9.243v0.536l1.988-1.988v-0.536H27.613v13.219h13.219v-7.062L38.844,35.762z M45.501,48.142  c0.388-0.388,0.388-1.017,0-1.405c-0.388-0.388-1.017-0.388-1.406,0l-8.3,8.3l-3.199-3.199c-0.388-0.388-1.017-0.388-1.406,0  c-0.388,0.388-0.388,1.017,0,1.405l4.605,4.604L45.501,48.142z M38.844,56.206v3.086H29.6v-9.244h9.243v0.536l1.988-1.988v-0.536  H27.613V61.28h13.219v-7.062L38.844,56.206z M29.005,16.019c-0.342,0.749-0.665,1.456-0.907,1.988h44.19  c-0.243-0.532-0.565-1.239-0.907-1.988H29.005z M73.566,16.019c0.419,0.918,0.767,1.681,0.904,1.988h3.393v68.295H22.01V18.006  h3.906c0.137-0.307,0.484-1.07,0.904-1.988h-6.797v72.271H79.85V16.019H73.566z M72.702,18.923c-0.182-0.421-3.246-7.11-3.246-7.11  s-0.889-1.988-1.988-1.988h-8.435c-1.265,0-2.29-1.025-2.29-2.291V7.231c0-1.099-0.89-1.988-1.988-1.988h-8.85  c-1.098,0-1.988,0.889-1.988,1.988v0.303c0,1.266-1.025,2.291-2.29,2.291h-8.713c-1.099,0-1.988,1.988-1.988,1.988  s-3.063,6.689-3.246,7.11c-0.182,0.421,0.004,0.786,0.377,0.786c0.184,0,44.081,0,44.265,0  C72.698,19.709,72.884,19.344,72.702,18.923z M50.331,6.432c0.824,0,1.493,0.668,1.493,1.493c0,0.825-0.669,1.493-1.493,1.493  c-0.824,0-1.493-0.668-1.493-1.493C48.839,7.099,49.508,6.432,50.331,6.432z"></path></svg>